<?xml version="1.0" encoding="utf-8" standalone="no"?>
<!DOCTYPE svg PUBLIC "-//W3C//DTD SVG 1.1//EN"
  "http://www.w3.org/Graphics/SVG/1.1/DTD/svg11.dtd">
<svg height="504pt" version="1.1" viewBox="0 0 504 504" width="504pt" xmlns="http://www.w3.org/2000/svg" xmlns:xlink="http://www.w3.org/1999/xlink">
 <metadata>
  <rdf:RDF xmlns:cc="http://creativecommons.org/ns#" xmlns:dc="http://purl.org/dc/elements/1.1/" xmlns:rdf="http://www.w3.org/1999/02/22-rdf-syntax-ns#">
   <cc:Work>
    <dc:type rdf:resource="http://purl.org/dc/dcmitype/StillImage"/>
    <dc:date>2022-03-23T19:34:07.068427</dc:date>
    <dc:format>image/svg+xml</dc:format>
    <dc:creator>
     <cc:Agent>
      <dc:title>Matplotlib v3.4.2, https://matplotlib.org/</dc:title>
     </cc:Agent>
    </dc:creator>
   </cc:Work>
  </rdf:RDF>
 </metadata>
 <defs>
  <style type="text/css">*{stroke-linecap:butt;stroke-linejoin:round;}</style>
 </defs>
 <g id="figure_1">
  <g id="patch_1">
   <path d="M 0 504 
L 504 504 
L 504 0 
L 0 0 
z
" style="fill:none;"/>
  </g>
  <g id="axes_1">
   <g id="patch_2">
    <path d="M 410.508 250.74 
C 410.508 225.102395 404.030481 199.875584 391.678845 177.409523 
C 379.32721 154.943463 361.497279 135.958104 339.849968 122.221994 
C 318.202658 108.485884 293.43168 100.439211 267.844531 98.83155 
C 242.257382 97.223889 216.67403 102.106758 193.477648 113.025302 
L 258.3 250.74 
L 410.508 250.74 
z
" style="fill:#08306b;"/>
   </g>
   <g id="patch_3">
    <path d="M 193.477648 113.025302 
C 174.599575 121.911217 157.74871 134.584697 143.974339 150.256576 
C 130.199967 165.928456 119.794055 184.26655 113.404566 204.128966 
C 107.015078 223.991381 104.777446 244.957108 106.831007 265.720634 
C 108.884568 286.48416 115.185793 306.605375 125.342312 324.831352 
L 258.3 250.74 
L 193.477648 113.025302 
z
" style="fill:#084285;"/>
   </g>
   <g id="patch_4">
    <path d="M 125.342312 324.831352 
C 136.897016 345.566386 153.143609 363.313805 172.779679 376.650881 
C 192.415748 389.987957 214.902178 398.548515 238.436336 401.646296 
L 258.3 250.74 
L 125.342312 324.831352 
z
" style="fill:#0a539e;"/>
   </g>
   <g id="patch_5">
    <path d="M 238.436336 401.646296 
C 251.532478 403.37013 264.797482 403.381864 277.896654 401.681202 
C 290.995827 399.98054 303.818063 396.581907 316.039844 391.571054 
L 258.3 250.74 
L 238.436336 401.646296 
z
" style="fill:#1764ab;"/>
   </g>
   <g id="patch_6">
    <path d="M 316.039844 391.571054 
C 325.177352 387.824733 333.928602 383.197989 342.16977 377.756286 
C 350.410938 372.314583 358.102971 366.083709 365.13703 359.151827 
L 258.3 250.74 
L 316.039844 391.571054 
z
" style="fill:#2575b7;"/>
   </g>
   <g id="patch_7">
    <path d="M 365.13703 359.151827 
C 370.580259 353.787667 375.611774 348.021169 380.188873 341.901274 
C 384.765972 335.781378 388.87567 329.325448 392.483086 322.588275 
L 258.3 250.74 
L 365.13703 359.151827 
z
" style="fill:#3787c0;"/>
   </g>
   <g id="patch_8">
    <path d="M 392.483086 322.588275 
C 394.271912 319.247483 395.935349 315.841051 397.469919 312.3761 
C 399.00449 308.91115 400.409123 305.390098 401.680883 301.820306 
L 258.3 250.74 
L 392.483086 322.588275 
z
" style="fill:#4a98c9;"/>
   </g>
   <g id="patch_9">
    <path d="M 401.680883 301.820306 
C 402.4829 299.569068 403.231786 297.299254 403.926916 295.012751 
C 404.622047 292.726248 405.263231 290.423691 405.849934 288.106995 
L 258.3 250.74 
L 401.680883 301.820306 
z
" style="fill:#60a7d2;"/>
   </g>
   <g id="patch_10">
    <path d="M 405.849934 288.106995 
C 406.229257 286.609171 406.585752 285.105658 406.919293 283.596979 
C 407.252834 282.0883 407.563383 280.57463 407.850832 279.056495 
L 258.3 250.74 
L 405.849934 288.106995 
z
" style="fill:#79b5d9;"/>
   </g>
   <g id="patch_11">
    <path d="M 407.850832 279.056495 
C 408.088729 277.800065 408.310783 276.540686 408.516941 275.27866 
C 408.723099 274.016634 408.913345 272.75206 409.087633 271.485239 
L 258.3 250.74 
L 407.850832 279.056495 
z
" style="fill:#94c4df;"/>
   </g>
   <g id="patch_12">
    <path d="M 409.087633 271.485239 
C 409.244071 270.348164 409.387642 269.209357 409.518318 268.069034 
C 409.648995 266.928712 409.766769 265.786948 409.871617 264.643962 
L 258.3 250.74 
L 409.087633 271.485239 
z
" style="fill:#abd0e6;"/>
   </g>
   <g id="patch_13">
    <path d="M 409.871617 264.643962 
C 409.932241 263.983086 409.988541 263.32182 410.040515 262.660208 
C 410.092489 261.998595 410.140135 261.33665 410.183451 260.674415 
L 258.3 250.74 
L 409.871617 264.643962 
z
" style="fill:#c1d9ed;"/>
   </g>
   <g id="patch_14">
    <path d="M 410.183451 260.674415 
C 410.224942 260.040078 410.262458 259.405488 410.295998 258.770682 
C 410.329538 258.135875 410.359101 257.500865 410.384684 256.865688 
L 258.3 250.74 
L 410.183451 260.674415 
z
" style="fill:#d0e1f2;"/>
   </g>
   <g id="patch_15">
    <path d="M 410.384684 256.865688 
C 410.407544 256.298147 410.427226 255.730481 410.443731 255.162719 
C 410.460235 254.594957 410.473562 254.027107 410.483709 253.459195 
L 258.3 250.74 
L 410.384684 256.865688 
z
" style="fill:#dceaf6;"/>
   </g>
   <g id="patch_16">
    <path d="M 410.483709 253.459195 
C 410.491806 253.006044 410.497879 252.552858 410.501927 252.099652 
C 410.505976 251.646446 410.508 251.193224 410.508 250.74 
L 258.3 250.74 
L 410.483709 253.459195 
z
" style="fill:#eaf2fb;"/>
   </g>
   <g id="matplotlib.axis_1"/>
   <g id="matplotlib.axis_2"/>
   <g id="text_1">
    <!-- LC-ESI-QTOF -->
    <g transform="translate(348.004965 112.129568)scale(0.1 -0.1)">
     <defs>
      <path d="M 628 4666 
L 1259 4666 
L 1259 531 
L 3531 531 
L 3531 0 
L 628 0 
L 628 4666 
z
" id="DejaVuSans-4c" transform="scale(0.015625)"/>
      <path d="M 4122 4306 
L 4122 3641 
Q 3803 3938 3442 4084 
Q 3081 4231 2675 4231 
Q 1875 4231 1450 3742 
Q 1025 3253 1025 2328 
Q 1025 1406 1450 917 
Q 1875 428 2675 428 
Q 3081 428 3442 575 
Q 3803 722 4122 1019 
L 4122 359 
Q 3791 134 3420 21 
Q 3050 -91 2638 -91 
Q 1578 -91 968 557 
Q 359 1206 359 2328 
Q 359 3453 968 4101 
Q 1578 4750 2638 4750 
Q 3056 4750 3426 4639 
Q 3797 4528 4122 4306 
z
" id="DejaVuSans-43" transform="scale(0.015625)"/>
      <path d="M 313 2009 
L 1997 2009 
L 1997 1497 
L 313 1497 
L 313 2009 
z
" id="DejaVuSans-2d" transform="scale(0.015625)"/>
      <path d="M 628 4666 
L 3578 4666 
L 3578 4134 
L 1259 4134 
L 1259 2753 
L 3481 2753 
L 3481 2222 
L 1259 2222 
L 1259 531 
L 3634 531 
L 3634 0 
L 628 0 
L 628 4666 
z
" id="DejaVuSans-45" transform="scale(0.015625)"/>
      <path d="M 3425 4513 
L 3425 3897 
Q 3066 4069 2747 4153 
Q 2428 4238 2131 4238 
Q 1616 4238 1336 4038 
Q 1056 3838 1056 3469 
Q 1056 3159 1242 3001 
Q 1428 2844 1947 2747 
L 2328 2669 
Q 3034 2534 3370 2195 
Q 3706 1856 3706 1288 
Q 3706 609 3251 259 
Q 2797 -91 1919 -91 
Q 1588 -91 1214 -16 
Q 841 59 441 206 
L 441 856 
Q 825 641 1194 531 
Q 1563 422 1919 422 
Q 2459 422 2753 634 
Q 3047 847 3047 1241 
Q 3047 1584 2836 1778 
Q 2625 1972 2144 2069 
L 1759 2144 
Q 1053 2284 737 2584 
Q 422 2884 422 3419 
Q 422 4038 858 4394 
Q 1294 4750 2059 4750 
Q 2388 4750 2728 4690 
Q 3069 4631 3425 4513 
z
" id="DejaVuSans-53" transform="scale(0.015625)"/>
      <path d="M 628 4666 
L 1259 4666 
L 1259 0 
L 628 0 
L 628 4666 
z
" id="DejaVuSans-49" transform="scale(0.015625)"/>
      <path d="M 2522 4238 
Q 1834 4238 1429 3725 
Q 1025 3213 1025 2328 
Q 1025 1447 1429 934 
Q 1834 422 2522 422 
Q 3209 422 3611 934 
Q 4013 1447 4013 2328 
Q 4013 3213 3611 3725 
Q 3209 4238 2522 4238 
z
M 3406 84 
L 4238 -825 
L 3475 -825 
L 2784 -78 
Q 2681 -84 2626 -87 
Q 2572 -91 2522 -91 
Q 1538 -91 948 567 
Q 359 1225 359 2328 
Q 359 3434 948 4092 
Q 1538 4750 2522 4750 
Q 3503 4750 4090 4092 
Q 4678 3434 4678 2328 
Q 4678 1516 4351 937 
Q 4025 359 3406 84 
z
" id="DejaVuSans-51" transform="scale(0.015625)"/>
      <path d="M -19 4666 
L 3928 4666 
L 3928 4134 
L 2272 4134 
L 2272 0 
L 1638 0 
L 1638 4134 
L -19 4134 
L -19 4666 
z
" id="DejaVuSans-54" transform="scale(0.015625)"/>
      <path d="M 2522 4238 
Q 1834 4238 1429 3725 
Q 1025 3213 1025 2328 
Q 1025 1447 1429 934 
Q 1834 422 2522 422 
Q 3209 422 3611 934 
Q 4013 1447 4013 2328 
Q 4013 3213 3611 3725 
Q 3209 4238 2522 4238 
z
M 2522 4750 
Q 3503 4750 4090 4092 
Q 4678 3434 4678 2328 
Q 4678 1225 4090 567 
Q 3503 -91 2522 -91 
Q 1538 -91 948 565 
Q 359 1222 359 2328 
Q 359 3434 948 4092 
Q 1538 4750 2522 4750 
z
" id="DejaVuSans-4f" transform="scale(0.015625)"/>
      <path d="M 628 4666 
L 3309 4666 
L 3309 4134 
L 1259 4134 
L 1259 2759 
L 3109 2759 
L 3109 2228 
L 1259 2228 
L 1259 0 
L 628 0 
L 628 4666 
z
" id="DejaVuSans-46" transform="scale(0.015625)"/>
     </defs>
     <use xlink:href="#DejaVuSans-4c"/>
     <use x="55.712891" xlink:href="#DejaVuSans-43"/>
     <use x="125.537109" xlink:href="#DejaVuSans-2d"/>
     <use x="161.621094" xlink:href="#DejaVuSans-45"/>
     <use x="224.804688" xlink:href="#DejaVuSans-53"/>
     <use x="288.28125" xlink:href="#DejaVuSans-49"/>
     <use x="317.773438" xlink:href="#DejaVuSans-2d"/>
     <use x="357.482422" xlink:href="#DejaVuSans-51"/>
     <use x="436.193359" xlink:href="#DejaVuSans-54"/>
     <use x="497.277344" xlink:href="#DejaVuSans-4f"/>
     <use x="575.988281" xlink:href="#DejaVuSans-46"/>
    </g>
   </g>
   <g id="text_2">
    <!-- 32% -->
    <g transform="translate(296.1167 176.388571)scale(0.1 -0.1)">
     <defs>
      <path d="M 2597 2516 
Q 3050 2419 3304 2112 
Q 3559 1806 3559 1356 
Q 3559 666 3084 287 
Q 2609 -91 1734 -91 
Q 1441 -91 1130 -33 
Q 819 25 488 141 
L 488 750 
Q 750 597 1062 519 
Q 1375 441 1716 441 
Q 2309 441 2620 675 
Q 2931 909 2931 1356 
Q 2931 1769 2642 2001 
Q 2353 2234 1838 2234 
L 1294 2234 
L 1294 2753 
L 1863 2753 
Q 2328 2753 2575 2939 
Q 2822 3125 2822 3475 
Q 2822 3834 2567 4026 
Q 2313 4219 1838 4219 
Q 1578 4219 1281 4162 
Q 984 4106 628 3988 
L 628 4550 
Q 988 4650 1302 4700 
Q 1616 4750 1894 4750 
Q 2613 4750 3031 4423 
Q 3450 4097 3450 3541 
Q 3450 3153 3228 2886 
Q 3006 2619 2597 2516 
z
" id="DejaVuSans-33" transform="scale(0.015625)"/>
      <path d="M 1228 531 
L 3431 531 
L 3431 0 
L 469 0 
L 469 531 
Q 828 903 1448 1529 
Q 2069 2156 2228 2338 
Q 2531 2678 2651 2914 
Q 2772 3150 2772 3378 
Q 2772 3750 2511 3984 
Q 2250 4219 1831 4219 
Q 1534 4219 1204 4116 
Q 875 4013 500 3803 
L 500 4441 
Q 881 4594 1212 4672 
Q 1544 4750 1819 4750 
Q 2544 4750 2975 4387 
Q 3406 4025 3406 3419 
Q 3406 3131 3298 2873 
Q 3191 2616 2906 2266 
Q 2828 2175 2409 1742 
Q 1991 1309 1228 531 
z
" id="DejaVuSans-32" transform="scale(0.015625)"/>
      <path d="M 4653 2053 
Q 4381 2053 4226 1822 
Q 4072 1591 4072 1178 
Q 4072 772 4226 539 
Q 4381 306 4653 306 
Q 4919 306 5073 539 
Q 5228 772 5228 1178 
Q 5228 1588 5073 1820 
Q 4919 2053 4653 2053 
z
M 4653 2450 
Q 5147 2450 5437 2106 
Q 5728 1763 5728 1178 
Q 5728 594 5436 251 
Q 5144 -91 4653 -91 
Q 4153 -91 3862 251 
Q 3572 594 3572 1178 
Q 3572 1766 3864 2108 
Q 4156 2450 4653 2450 
z
M 1428 4353 
Q 1159 4353 1004 4120 
Q 850 3888 850 3481 
Q 850 3069 1003 2837 
Q 1156 2606 1428 2606 
Q 1700 2606 1854 2837 
Q 2009 3069 2009 3481 
Q 2009 3884 1853 4118 
Q 1697 4353 1428 4353 
z
M 4250 4750 
L 4750 4750 
L 1831 -91 
L 1331 -91 
L 4250 4750 
z
M 1428 4750 
Q 1922 4750 2215 4408 
Q 2509 4066 2509 3481 
Q 2509 2891 2217 2550 
Q 1925 2209 1428 2209 
Q 931 2209 642 2551 
Q 353 2894 353 3481 
Q 353 4063 643 4406 
Q 934 4750 1428 4750 
z
" id="DejaVuSans-25" transform="scale(0.015625)"/>
     </defs>
     <use xlink:href="#DejaVuSans-33"/>
     <use x="63.623047" xlink:href="#DejaVuSans-32"/>
     <use x="127.246094" xlink:href="#DejaVuSans-25"/>
    </g>
   </g>
   <g id="text_3">
    <!-- ESI-QFT -->
    <g transform="translate(59.771273 202.227237)scale(0.1 -0.1)">
     <use xlink:href="#DejaVuSans-45"/>
     <use x="63.183594" xlink:href="#DejaVuSans-53"/>
     <use x="126.660156" xlink:href="#DejaVuSans-49"/>
     <use x="156.152344" xlink:href="#DejaVuSans-2d"/>
     <use x="195.861328" xlink:href="#DejaVuSans-51"/>
     <use x="274.572266" xlink:href="#DejaVuSans-46"/>
     <use x="330.341797" xlink:href="#DejaVuSans-54"/>
    </g>
   </g>
   <g id="text_4">
    <!-- 26% -->
    <g transform="translate(160.249458 225.532754)scale(0.1 -0.1)">
     <defs>
      <path d="M 2113 2584 
Q 1688 2584 1439 2293 
Q 1191 2003 1191 1497 
Q 1191 994 1439 701 
Q 1688 409 2113 409 
Q 2538 409 2786 701 
Q 3034 994 3034 1497 
Q 3034 2003 2786 2293 
Q 2538 2584 2113 2584 
z
M 3366 4563 
L 3366 3988 
Q 3128 4100 2886 4159 
Q 2644 4219 2406 4219 
Q 1781 4219 1451 3797 
Q 1122 3375 1075 2522 
Q 1259 2794 1537 2939 
Q 1816 3084 2150 3084 
Q 2853 3084 3261 2657 
Q 3669 2231 3669 1497 
Q 3669 778 3244 343 
Q 2819 -91 2113 -91 
Q 1303 -91 875 529 
Q 447 1150 447 2328 
Q 447 3434 972 4092 
Q 1497 4750 2381 4750 
Q 2619 4750 2861 4703 
Q 3103 4656 3366 4563 
z
" id="DejaVuSans-36" transform="scale(0.015625)"/>
     </defs>
     <use xlink:href="#DejaVuSans-32"/>
     <use x="63.623047" xlink:href="#DejaVuSans-36"/>
     <use x="127.246094" xlink:href="#DejaVuSans-25"/>
    </g>
   </g>
   <g id="text_5">
    <!-- LC-ESI-ITFT -->
    <g transform="translate(108.097959 392.001344)scale(0.1 -0.1)">
     <use xlink:href="#DejaVuSans-4c"/>
     <use x="55.712891" xlink:href="#DejaVuSans-43"/>
     <use x="125.537109" xlink:href="#DejaVuSans-2d"/>
     <use x="161.621094" xlink:href="#DejaVuSans-45"/>
     <use x="224.804688" xlink:href="#DejaVuSans-53"/>
     <use x="288.28125" xlink:href="#DejaVuSans-49"/>
     <use x="317.773438" xlink:href="#DejaVuSans-2d"/>
     <use x="353.857422" xlink:href="#DejaVuSans-49"/>
     <use x="383.349609" xlink:href="#DejaVuSans-54"/>
     <use x="444.433594" xlink:href="#DejaVuSans-46"/>
     <use x="500.203125" xlink:href="#DejaVuSans-54"/>
    </g>
   </g>
   <g id="text_6">
    <!-- 15% -->
    <g transform="translate(195.874526 329.045903)scale(0.1 -0.1)">
     <defs>
      <path d="M 794 531 
L 1825 531 
L 1825 4091 
L 703 3866 
L 703 4441 
L 1819 4666 
L 2450 4666 
L 2450 531 
L 3481 531 
L 3481 0 
L 794 0 
L 794 531 
z
" id="DejaVuSans-31" transform="scale(0.015625)"/>
      <path d="M 691 4666 
L 3169 4666 
L 3169 4134 
L 1269 4134 
L 1269 2991 
Q 1406 3038 1543 3061 
Q 1681 3084 1819 3084 
Q 2600 3084 3056 2656 
Q 3513 2228 3513 1497 
Q 3513 744 3044 326 
Q 2575 -91 1722 -91 
Q 1428 -91 1123 -41 
Q 819 9 494 109 
L 494 744 
Q 775 591 1075 516 
Q 1375 441 1709 441 
Q 2250 441 2565 725 
Q 2881 1009 2881 1497 
Q 2881 1984 2565 2268 
Q 2250 2553 1709 2553 
Q 1456 2553 1204 2497 
Q 953 2441 691 2322 
L 691 4666 
z
" id="DejaVuSans-35" transform="scale(0.015625)"/>
     </defs>
     <use xlink:href="#DejaVuSans-31"/>
     <use x="63.623047" xlink:href="#DejaVuSans-35"/>
     <use x="127.246094" xlink:href="#DejaVuSans-25"/>
    </g>
   </g>
   <g id="text_7">
    <!-- LC-ESI-QFT -->
    <g transform="translate(279.85632 419.534697)scale(0.1 -0.1)">
     <use xlink:href="#DejaVuSans-4c"/>
     <use x="55.712891" xlink:href="#DejaVuSans-43"/>
     <use x="125.537109" xlink:href="#DejaVuSans-2d"/>
     <use x="161.621094" xlink:href="#DejaVuSans-45"/>
     <use x="224.804688" xlink:href="#DejaVuSans-53"/>
     <use x="288.28125" xlink:href="#DejaVuSans-49"/>
     <use x="317.773438" xlink:href="#DejaVuSans-2d"/>
     <use x="357.482422" xlink:href="#DejaVuSans-51"/>
     <use x="436.193359" xlink:href="#DejaVuSans-46"/>
     <use x="491.962891" xlink:href="#DejaVuSans-54"/>
    </g>
   </g>
   <g id="text_8">
    <!-- 8% -->
    <g transform="translate(262.125961 344.064096)scale(0.1 -0.1)">
     <defs>
      <path d="M 2034 2216 
Q 1584 2216 1326 1975 
Q 1069 1734 1069 1313 
Q 1069 891 1326 650 
Q 1584 409 2034 409 
Q 2484 409 2743 651 
Q 3003 894 3003 1313 
Q 3003 1734 2745 1975 
Q 2488 2216 2034 2216 
z
M 1403 2484 
Q 997 2584 770 2862 
Q 544 3141 544 3541 
Q 544 4100 942 4425 
Q 1341 4750 2034 4750 
Q 2731 4750 3128 4425 
Q 3525 4100 3525 3541 
Q 3525 3141 3298 2862 
Q 3072 2584 2669 2484 
Q 3125 2378 3379 2068 
Q 3634 1759 3634 1313 
Q 3634 634 3220 271 
Q 2806 -91 2034 -91 
Q 1263 -91 848 271 
Q 434 634 434 1313 
Q 434 1759 690 2068 
Q 947 2378 1403 2484 
z
M 1172 3481 
Q 1172 3119 1398 2916 
Q 1625 2713 2034 2713 
Q 2441 2713 2670 2916 
Q 2900 3119 2900 3481 
Q 2900 3844 2670 4047 
Q 2441 4250 2034 4250 
Q 1625 4250 1398 4047 
Q 1172 3844 1172 3481 
z
" id="DejaVuSans-38" transform="scale(0.015625)"/>
     </defs>
     <use xlink:href="#DejaVuSans-38"/>
     <use x="63.623047" xlink:href="#DejaVuSans-25"/>
    </g>
   </g>
   <g id="text_9">
    <!-- Linear Ion Trap -->
    <g transform="translate(350.556747 393.21729)scale(0.1 -0.1)">
     <defs>
      <path d="M 603 3500 
L 1178 3500 
L 1178 0 
L 603 0 
L 603 3500 
z
M 603 4863 
L 1178 4863 
L 1178 4134 
L 603 4134 
L 603 4863 
z
" id="DejaVuSans-69" transform="scale(0.015625)"/>
      <path d="M 3513 2113 
L 3513 0 
L 2938 0 
L 2938 2094 
Q 2938 2591 2744 2837 
Q 2550 3084 2163 3084 
Q 1697 3084 1428 2787 
Q 1159 2491 1159 1978 
L 1159 0 
L 581 0 
L 581 3500 
L 1159 3500 
L 1159 2956 
Q 1366 3272 1645 3428 
Q 1925 3584 2291 3584 
Q 2894 3584 3203 3211 
Q 3513 2838 3513 2113 
z
" id="DejaVuSans-6e" transform="scale(0.015625)"/>
      <path d="M 3597 1894 
L 3597 1613 
L 953 1613 
Q 991 1019 1311 708 
Q 1631 397 2203 397 
Q 2534 397 2845 478 
Q 3156 559 3463 722 
L 3463 178 
Q 3153 47 2828 -22 
Q 2503 -91 2169 -91 
Q 1331 -91 842 396 
Q 353 884 353 1716 
Q 353 2575 817 3079 
Q 1281 3584 2069 3584 
Q 2775 3584 3186 3129 
Q 3597 2675 3597 1894 
z
M 3022 2063 
Q 3016 2534 2758 2815 
Q 2500 3097 2075 3097 
Q 1594 3097 1305 2825 
Q 1016 2553 972 2059 
L 3022 2063 
z
" id="DejaVuSans-65" transform="scale(0.015625)"/>
      <path d="M 2194 1759 
Q 1497 1759 1228 1600 
Q 959 1441 959 1056 
Q 959 750 1161 570 
Q 1363 391 1709 391 
Q 2188 391 2477 730 
Q 2766 1069 2766 1631 
L 2766 1759 
L 2194 1759 
z
M 3341 1997 
L 3341 0 
L 2766 0 
L 2766 531 
Q 2569 213 2275 61 
Q 1981 -91 1556 -91 
Q 1019 -91 701 211 
Q 384 513 384 1019 
Q 384 1609 779 1909 
Q 1175 2209 1959 2209 
L 2766 2209 
L 2766 2266 
Q 2766 2663 2505 2880 
Q 2244 3097 1772 3097 
Q 1472 3097 1187 3025 
Q 903 2953 641 2809 
L 641 3341 
Q 956 3463 1253 3523 
Q 1550 3584 1831 3584 
Q 2591 3584 2966 3190 
Q 3341 2797 3341 1997 
z
" id="DejaVuSans-61" transform="scale(0.015625)"/>
      <path d="M 2631 2963 
Q 2534 3019 2420 3045 
Q 2306 3072 2169 3072 
Q 1681 3072 1420 2755 
Q 1159 2438 1159 1844 
L 1159 0 
L 581 0 
L 581 3500 
L 1159 3500 
L 1159 2956 
Q 1341 3275 1631 3429 
Q 1922 3584 2338 3584 
Q 2397 3584 2469 3576 
Q 2541 3569 2628 3553 
L 2631 2963 
z
" id="DejaVuSans-72" transform="scale(0.015625)"/>
      <path id="DejaVuSans-20" transform="scale(0.015625)"/>
      <path d="M 1959 3097 
Q 1497 3097 1228 2736 
Q 959 2375 959 1747 
Q 959 1119 1226 758 
Q 1494 397 1959 397 
Q 2419 397 2687 759 
Q 2956 1122 2956 1747 
Q 2956 2369 2687 2733 
Q 2419 3097 1959 3097 
z
M 1959 3584 
Q 2709 3584 3137 3096 
Q 3566 2609 3566 1747 
Q 3566 888 3137 398 
Q 2709 -91 1959 -91 
Q 1206 -91 779 398 
Q 353 888 353 1747 
Q 353 2609 779 3096 
Q 1206 3584 1959 3584 
z
" id="DejaVuSans-6f" transform="scale(0.015625)"/>
      <path d="M 1159 525 
L 1159 -1331 
L 581 -1331 
L 581 3500 
L 1159 3500 
L 1159 2969 
Q 1341 3281 1617 3432 
Q 1894 3584 2278 3584 
Q 2916 3584 3314 3078 
Q 3713 2572 3713 1747 
Q 3713 922 3314 415 
Q 2916 -91 2278 -91 
Q 1894 -91 1617 61 
Q 1341 213 1159 525 
z
M 3116 1747 
Q 3116 2381 2855 2742 
Q 2594 3103 2138 3103 
Q 1681 3103 1420 2742 
Q 1159 2381 1159 1747 
Q 1159 1113 1420 752 
Q 1681 391 2138 391 
Q 2594 391 2855 752 
Q 3116 1113 3116 1747 
z
" id="DejaVuSans-70" transform="scale(0.015625)"/>
     </defs>
     <use xlink:href="#DejaVuSans-4c"/>
     <use x="55.712891" xlink:href="#DejaVuSans-69"/>
     <use x="83.496094" xlink:href="#DejaVuSans-6e"/>
     <use x="146.875" xlink:href="#DejaVuSans-65"/>
     <use x="208.398438" xlink:href="#DejaVuSans-61"/>
     <use x="269.677734" xlink:href="#DejaVuSans-72"/>
     <use x="310.791016" xlink:href="#DejaVuSans-20"/>
     <use x="342.578125" xlink:href="#DejaVuSans-49"/>
     <use x="372.070312" xlink:href="#DejaVuSans-6f"/>
     <use x="433.251953" xlink:href="#DejaVuSans-6e"/>
     <use x="496.630859" xlink:href="#DejaVuSans-20"/>
     <use x="528.417969" xlink:href="#DejaVuSans-54"/>
     <use x="574.751953" xlink:href="#DejaVuSans-72"/>
     <use x="615.865234" xlink:href="#DejaVuSans-61"/>
     <use x="677.144531" xlink:href="#DejaVuSans-70"/>
    </g>
   </g>
   <g id="text_10">
    <!-- 6% -->
    <g transform="translate(300.689831 329.709147)scale(0.1 -0.1)">
     <use xlink:href="#DejaVuSans-36"/>
     <use x="63.623047" xlink:href="#DejaVuSans-25"/>
    </g>
   </g>
   <g id="text_11">
    <!-- LC-ESI-QQ -->
    <g transform="translate(392.377761 353.776776)scale(0.1 -0.1)">
     <use xlink:href="#DejaVuSans-4c"/>
     <use x="55.712891" xlink:href="#DejaVuSans-43"/>
     <use x="125.537109" xlink:href="#DejaVuSans-2d"/>
     <use x="161.621094" xlink:href="#DejaVuSans-45"/>
     <use x="224.804688" xlink:href="#DejaVuSans-53"/>
     <use x="288.28125" xlink:href="#DejaVuSans-49"/>
     <use x="317.773438" xlink:href="#DejaVuSans-2d"/>
     <use x="357.482422" xlink:href="#DejaVuSans-51"/>
     <use x="436.193359" xlink:href="#DejaVuSans-51"/>
    </g>
   </g>
   <g id="text_12">
    <!-- 5% -->
    <g transform="translate(323.501293 308.196139)scale(0.1 -0.1)">
     <use xlink:href="#DejaVuSans-35"/>
     <use x="63.623047" xlink:href="#DejaVuSans-25"/>
    </g>
   </g>
   <g id="text_13">
    <!-- Quattro_QQQ -->
    <g transform="translate(411.386911 321.071741)scale(0.1 -0.1)">
     <defs>
      <path d="M 544 1381 
L 544 3500 
L 1119 3500 
L 1119 1403 
Q 1119 906 1312 657 
Q 1506 409 1894 409 
Q 2359 409 2629 706 
Q 2900 1003 2900 1516 
L 2900 3500 
L 3475 3500 
L 3475 0 
L 2900 0 
L 2900 538 
Q 2691 219 2414 64 
Q 2138 -91 1772 -91 
Q 1169 -91 856 284 
Q 544 659 544 1381 
z
M 1991 3584 
L 1991 3584 
z
" id="DejaVuSans-75" transform="scale(0.015625)"/>
      <path d="M 1172 4494 
L 1172 3500 
L 2356 3500 
L 2356 3053 
L 1172 3053 
L 1172 1153 
Q 1172 725 1289 603 
Q 1406 481 1766 481 
L 2356 481 
L 2356 0 
L 1766 0 
Q 1100 0 847 248 
Q 594 497 594 1153 
L 594 3053 
L 172 3053 
L 172 3500 
L 594 3500 
L 594 4494 
L 1172 4494 
z
" id="DejaVuSans-74" transform="scale(0.015625)"/>
      <path d="M 3263 -1063 
L 3263 -1509 
L -63 -1509 
L -63 -1063 
L 3263 -1063 
z
" id="DejaVuSans-5f" transform="scale(0.015625)"/>
     </defs>
     <use xlink:href="#DejaVuSans-51"/>
     <use x="78.710938" xlink:href="#DejaVuSans-75"/>
     <use x="142.089844" xlink:href="#DejaVuSans-61"/>
     <use x="203.369141" xlink:href="#DejaVuSans-74"/>
     <use x="242.578125" xlink:href="#DejaVuSans-74"/>
     <use x="281.787109" xlink:href="#DejaVuSans-72"/>
     <use x="320.650391" xlink:href="#DejaVuSans-6f"/>
     <use x="381.832031" xlink:href="#DejaVuSans-5f"/>
     <use x="431.832031" xlink:href="#DejaVuSans-51"/>
     <use x="510.542969" xlink:href="#DejaVuSans-51"/>
     <use x="589.253906" xlink:href="#DejaVuSans-51"/>
    </g>
   </g>
   <g id="text_14">
    <!-- 2% -->
    <g transform="translate(333.86992 290.481035)scale(0.1 -0.1)">
     <use xlink:href="#DejaVuSans-32"/>
     <use x="63.623047" xlink:href="#DejaVuSans-25"/>
    </g>
   </g>
   <g id="text_15">
    <!-- LC-ESI-QQQ -->
    <g transform="translate(418.489608 302.199401)scale(0.1 -0.1)">
     <use xlink:href="#DejaVuSans-4c"/>
     <use x="55.712891" xlink:href="#DejaVuSans-43"/>
     <use x="125.537109" xlink:href="#DejaVuSans-2d"/>
     <use x="161.621094" xlink:href="#DejaVuSans-45"/>
     <use x="224.804688" xlink:href="#DejaVuSans-53"/>
     <use x="288.28125" xlink:href="#DejaVuSans-49"/>
     <use x="317.773438" xlink:href="#DejaVuSans-2d"/>
     <use x="357.482422" xlink:href="#DejaVuSans-51"/>
     <use x="436.193359" xlink:href="#DejaVuSans-51"/>
     <use x="514.904297" xlink:href="#DejaVuSans-51"/>
    </g>
   </g>
   <g id="text_16">
    <!-- 1% -->
    <g transform="translate(337.744119 280.063026)scale(0.1 -0.1)">
     <use xlink:href="#DejaVuSans-31"/>
     <use x="63.623047" xlink:href="#DejaVuSans-25"/>
    </g>
   </g>
   <g id="text_17">
    <!-- LC-Q-TOF/MS -->
    <g transform="translate(421.781222 289.642052)scale(0.1 -0.1)">
     <defs>
      <path d="M 1625 4666 
L 2156 4666 
L 531 -594 
L 0 -594 
L 1625 4666 
z
" id="DejaVuSans-2f" transform="scale(0.015625)"/>
      <path d="M 628 4666 
L 1569 4666 
L 2759 1491 
L 3956 4666 
L 4897 4666 
L 4897 0 
L 4281 0 
L 4281 4097 
L 3078 897 
L 2444 897 
L 1241 4097 
L 1241 0 
L 628 0 
L 628 4666 
z
" id="DejaVuSans-4d" transform="scale(0.015625)"/>
     </defs>
     <use xlink:href="#DejaVuSans-4c"/>
     <use x="55.712891" xlink:href="#DejaVuSans-43"/>
     <use x="125.537109" xlink:href="#DejaVuSans-2d"/>
     <use x="165.246094" xlink:href="#DejaVuSans-51"/>
     <use x="246.707031" xlink:href="#DejaVuSans-2d"/>
     <use x="273.666016" xlink:href="#DejaVuSans-54"/>
     <use x="334.75" xlink:href="#DejaVuSans-4f"/>
     <use x="413.460938" xlink:href="#DejaVuSans-46"/>
     <use x="470.980469" xlink:href="#DejaVuSans-2f"/>
     <use x="504.671875" xlink:href="#DejaVuSans-4d"/>
     <use x="590.951172" xlink:href="#DejaVuSans-53"/>
    </g>
   </g>
   <g id="text_18">
    <!-- 1% -->
    <g transform="translate(339.539544 273.213563)scale(0.1 -0.1)">
     <use xlink:href="#DejaVuSans-31"/>
     <use x="63.623047" xlink:href="#DejaVuSans-25"/>
    </g>
   </g>
   <g id="text_19">
    <!-- LC-ESI-TOF -->
    <g transform="translate(423.538635 280.491901)scale(0.1 -0.1)">
     <use xlink:href="#DejaVuSans-4c"/>
     <use x="55.712891" xlink:href="#DejaVuSans-43"/>
     <use x="125.537109" xlink:href="#DejaVuSans-2d"/>
     <use x="161.621094" xlink:href="#DejaVuSans-45"/>
     <use x="224.804688" xlink:href="#DejaVuSans-53"/>
     <use x="288.28125" xlink:href="#DejaVuSans-49"/>
     <use x="317.773438" xlink:href="#DejaVuSans-2d"/>
     <use x="344.732422" xlink:href="#DejaVuSans-54"/>
     <use x="405.816406" xlink:href="#DejaVuSans-4f"/>
     <use x="484.527344" xlink:href="#DejaVuSans-46"/>
    </g>
   </g>
   <g id="text_20">
    <!-- 1% -->
    <g transform="translate(340.498133 268.222571)scale(0.1 -0.1)">
     <use xlink:href="#DejaVuSans-31"/>
     <use x="63.623047" xlink:href="#DejaVuSans-25"/>
    </g>
   </g>
   <g id="text_21">
    <!-- QIT -->
    <g transform="translate(424.64015 272.561313)scale(0.1 -0.1)">
     <use xlink:href="#DejaVuSans-51"/>
     <use x="78.710938" xlink:href="#DejaVuSans-49"/>
     <use x="108.203125" xlink:href="#DejaVuSans-54"/>
    </g>
   </g>
   <g id="text_22">
    <!-- 1% -->
    <g transform="translate(341.09896 263.896796)scale(0.1 -0.1)">
     <use xlink:href="#DejaVuSans-31"/>
     <use x="63.623047" xlink:href="#DejaVuSans-25"/>
    </g>
   </g>
   <g id="text_23">
    <!-- QqQ -->
    <g transform="translate(425.214567 266.611604)scale(0.1 -0.1)">
     <defs>
      <path d="M 947 1747 
Q 947 1113 1208 752 
Q 1469 391 1925 391 
Q 2381 391 2643 752 
Q 2906 1113 2906 1747 
Q 2906 2381 2643 2742 
Q 2381 3103 1925 3103 
Q 1469 3103 1208 2742 
Q 947 2381 947 1747 
z
M 2906 525 
Q 2725 213 2448 61 
Q 2172 -91 1784 -91 
Q 1150 -91 751 415 
Q 353 922 353 1747 
Q 353 2572 751 3078 
Q 1150 3584 1784 3584 
Q 2172 3584 2448 3432 
Q 2725 3281 2906 2969 
L 2906 3500 
L 3481 3500 
L 3481 -1331 
L 2906 -1331 
L 2906 525 
z
" id="DejaVuSans-71" transform="scale(0.015625)"/>
     </defs>
     <use xlink:href="#DejaVuSans-51"/>
     <use x="78.710938" xlink:href="#DejaVuSans-71"/>
     <use x="142.1875" xlink:href="#DejaVuSans-51"/>
    </g>
   </g>
   <g id="text_24">
    <!-- 0% -->
    <g transform="translate(341.412278 260.6515)scale(0.1 -0.1)">
     <defs>
      <path d="M 2034 4250 
Q 1547 4250 1301 3770 
Q 1056 3291 1056 2328 
Q 1056 1369 1301 889 
Q 1547 409 2034 409 
Q 2525 409 2770 889 
Q 3016 1369 3016 2328 
Q 3016 3291 2770 3770 
Q 2525 4250 2034 4250 
z
M 2034 4750 
Q 2819 4750 3233 4129 
Q 3647 3509 3647 2328 
Q 3647 1150 3233 529 
Q 2819 -91 2034 -91 
Q 1250 -91 836 529 
Q 422 1150 422 2328 
Q 422 3509 836 4129 
Q 1250 4750 2034 4750 
z
" id="DejaVuSans-30" transform="scale(0.015625)"/>
     </defs>
     <use xlink:href="#DejaVuSans-30"/>
     <use x="63.623047" xlink:href="#DejaVuSans-25"/>
    </g>
   </g>
   <g id="text_25">
    <!-- LC-ESI-QIT -->
    <g transform="translate(425.495598 262.333125)scale(0.1 -0.1)">
     <use xlink:href="#DejaVuSans-4c"/>
     <use x="55.712891" xlink:href="#DejaVuSans-43"/>
     <use x="125.537109" xlink:href="#DejaVuSans-2d"/>
     <use x="161.621094" xlink:href="#DejaVuSans-45"/>
     <use x="224.804688" xlink:href="#DejaVuSans-53"/>
     <use x="288.28125" xlink:href="#DejaVuSans-49"/>
     <use x="317.773438" xlink:href="#DejaVuSans-2d"/>
     <use x="357.482422" xlink:href="#DejaVuSans-51"/>
     <use x="436.193359" xlink:href="#DejaVuSans-49"/>
     <use x="465.685547" xlink:href="#DejaVuSans-54"/>
    </g>
   </g>
   <g id="text_26">
    <!-- 0% -->
    <g transform="translate(341.565568 258.317784)scale(0.1 -0.1)">
     <use xlink:href="#DejaVuSans-30"/>
     <use x="63.623047" xlink:href="#DejaVuSans-25"/>
    </g>
   </g>
   <g id="text_27">
    <!-- LC-QTOF -->
    <g transform="translate(425.658104 258.364366)scale(0.1 -0.1)">
     <use xlink:href="#DejaVuSans-4c"/>
     <use x="55.712891" xlink:href="#DejaVuSans-43"/>
     <use x="125.537109" xlink:href="#DejaVuSans-2d"/>
     <use x="165.246094" xlink:href="#DejaVuSans-51"/>
     <use x="243.957031" xlink:href="#DejaVuSans-54"/>
     <use x="305.041016" xlink:href="#DejaVuSans-4f"/>
     <use x="383.751953" xlink:href="#DejaVuSans-46"/>
    </g>
   </g>
   <g id="text_28">
    <!-- 0% -->
    <g transform="translate(341.654207 256.153006)scale(0.1 -0.1)">
     <use xlink:href="#DejaVuSans-30"/>
     <use x="63.623047" xlink:href="#DejaVuSans-25"/>
    </g>
   </g>
   <g id="text_29">
    <!-- LC-ESI-IT -->
    <g transform="translate(425.72212 254.994992)scale(0.1 -0.1)">
     <use xlink:href="#DejaVuSans-4c"/>
     <use x="55.712891" xlink:href="#DejaVuSans-43"/>
     <use x="125.537109" xlink:href="#DejaVuSans-2d"/>
     <use x="161.621094" xlink:href="#DejaVuSans-45"/>
     <use x="224.804688" xlink:href="#DejaVuSans-53"/>
     <use x="288.28125" xlink:href="#DejaVuSans-49"/>
     <use x="317.773438" xlink:href="#DejaVuSans-2d"/>
     <use x="353.857422" xlink:href="#DejaVuSans-49"/>
     <use x="383.349609" xlink:href="#DejaVuSans-54"/>
    </g>
   </g>
   <g id="text_30">
    <!-- 0% -->
    <g transform="translate(341.689125 254.315166)scale(0.1 -0.1)">
     <use xlink:href="#DejaVuSans-30"/>
     <use x="63.623047" xlink:href="#DejaVuSans-25"/>
    </g>
   </g>
   <g id="legend_1">
    <g id="patch_17">
     <path d="M 75.04 288.93 
L 181.1025 288.93 
Q 183.1025 288.93 183.1025 286.93 
L 183.1025 67.48 
Q 183.1025 65.48 181.1025 65.48 
L 75.04 65.48 
Q 73.04 65.48 73.04 67.48 
L 73.04 286.93 
Q 73.04 288.93 75.04 288.93 
z
" style="fill:#ffffff;opacity:0.8;stroke:#cccccc;stroke-linejoin:miter;"/>
    </g>
    <g id="patch_18">
     <path d="M 77.04 77.078438 
L 97.04 77.078438 
L 97.04 70.078438 
L 77.04 70.078438 
z
" style="fill:#08306b;"/>
    </g>
    <g id="text_31">
     <!-- LC-ESI-QTOF -->
     <g transform="translate(105.04 77.078438)scale(0.1 -0.1)">
      <use xlink:href="#DejaVuSans-4c"/>
      <use x="55.712891" xlink:href="#DejaVuSans-43"/>
      <use x="125.537109" xlink:href="#DejaVuSans-2d"/>
      <use x="161.621094" xlink:href="#DejaVuSans-45"/>
      <use x="224.804688" xlink:href="#DejaVuSans-53"/>
      <use x="288.28125" xlink:href="#DejaVuSans-49"/>
      <use x="317.773438" xlink:href="#DejaVuSans-2d"/>
      <use x="357.482422" xlink:href="#DejaVuSans-51"/>
      <use x="436.193359" xlink:href="#DejaVuSans-54"/>
      <use x="497.277344" xlink:href="#DejaVuSans-4f"/>
      <use x="575.988281" xlink:href="#DejaVuSans-46"/>
     </g>
    </g>
    <g id="patch_19">
     <path d="M 77.04 91.756563 
L 97.04 91.756563 
L 97.04 84.756563 
L 77.04 84.756563 
z
" style="fill:#084285;"/>
    </g>
    <g id="text_32">
     <!-- ESI-QFT -->
     <g transform="translate(105.04 91.756563)scale(0.1 -0.1)">
      <use xlink:href="#DejaVuSans-45"/>
      <use x="63.183594" xlink:href="#DejaVuSans-53"/>
      <use x="126.660156" xlink:href="#DejaVuSans-49"/>
      <use x="156.152344" xlink:href="#DejaVuSans-2d"/>
      <use x="195.861328" xlink:href="#DejaVuSans-51"/>
      <use x="274.572266" xlink:href="#DejaVuSans-46"/>
      <use x="330.341797" xlink:href="#DejaVuSans-54"/>
     </g>
    </g>
    <g id="patch_20">
     <path d="M 77.04 106.434687 
L 97.04 106.434687 
L 97.04 99.434687 
L 77.04 99.434687 
z
" style="fill:#0a539e;"/>
    </g>
    <g id="text_33">
     <!-- LC-ESI-ITFT -->
     <g transform="translate(105.04 106.434687)scale(0.1 -0.1)">
      <use xlink:href="#DejaVuSans-4c"/>
      <use x="55.712891" xlink:href="#DejaVuSans-43"/>
      <use x="125.537109" xlink:href="#DejaVuSans-2d"/>
      <use x="161.621094" xlink:href="#DejaVuSans-45"/>
      <use x="224.804688" xlink:href="#DejaVuSans-53"/>
      <use x="288.28125" xlink:href="#DejaVuSans-49"/>
      <use x="317.773438" xlink:href="#DejaVuSans-2d"/>
      <use x="353.857422" xlink:href="#DejaVuSans-49"/>
      <use x="383.349609" xlink:href="#DejaVuSans-54"/>
      <use x="444.433594" xlink:href="#DejaVuSans-46"/>
      <use x="500.203125" xlink:href="#DejaVuSans-54"/>
     </g>
    </g>
    <g id="patch_21">
     <path d="M 77.04 121.112813 
L 97.04 121.112813 
L 97.04 114.112813 
L 77.04 114.112813 
z
" style="fill:#1764ab;"/>
    </g>
    <g id="text_34">
     <!-- LC-ESI-QFT -->
     <g transform="translate(105.04 121.112813)scale(0.1 -0.1)">
      <use xlink:href="#DejaVuSans-4c"/>
      <use x="55.712891" xlink:href="#DejaVuSans-43"/>
      <use x="125.537109" xlink:href="#DejaVuSans-2d"/>
      <use x="161.621094" xlink:href="#DejaVuSans-45"/>
      <use x="224.804688" xlink:href="#DejaVuSans-53"/>
      <use x="288.28125" xlink:href="#DejaVuSans-49"/>
      <use x="317.773438" xlink:href="#DejaVuSans-2d"/>
      <use x="357.482422" xlink:href="#DejaVuSans-51"/>
      <use x="436.193359" xlink:href="#DejaVuSans-46"/>
      <use x="491.962891" xlink:href="#DejaVuSans-54"/>
     </g>
    </g>
    <g id="patch_22">
     <path d="M 77.04 135.790938 
L 97.04 135.790938 
L 97.04 128.790938 
L 77.04 128.790938 
z
" style="fill:#2575b7;"/>
    </g>
    <g id="text_35">
     <!-- Linear Ion Trap -->
     <g transform="translate(105.04 135.790938)scale(0.1 -0.1)">
      <use xlink:href="#DejaVuSans-4c"/>
      <use x="55.712891" xlink:href="#DejaVuSans-69"/>
      <use x="83.496094" xlink:href="#DejaVuSans-6e"/>
      <use x="146.875" xlink:href="#DejaVuSans-65"/>
      <use x="208.398438" xlink:href="#DejaVuSans-61"/>
      <use x="269.677734" xlink:href="#DejaVuSans-72"/>
      <use x="310.791016" xlink:href="#DejaVuSans-20"/>
      <use x="342.578125" xlink:href="#DejaVuSans-49"/>
      <use x="372.070312" xlink:href="#DejaVuSans-6f"/>
      <use x="433.251953" xlink:href="#DejaVuSans-6e"/>
      <use x="496.630859" xlink:href="#DejaVuSans-20"/>
      <use x="528.417969" xlink:href="#DejaVuSans-54"/>
      <use x="574.751953" xlink:href="#DejaVuSans-72"/>
      <use x="615.865234" xlink:href="#DejaVuSans-61"/>
      <use x="677.144531" xlink:href="#DejaVuSans-70"/>
     </g>
    </g>
    <g id="patch_23">
     <path d="M 77.04 150.469063 
L 97.04 150.469063 
L 97.04 143.469063 
L 77.04 143.469063 
z
" style="fill:#3787c0;"/>
    </g>
    <g id="text_36">
     <!-- LC-ESI-QQ -->
     <g transform="translate(105.04 150.469063)scale(0.1 -0.1)">
      <use xlink:href="#DejaVuSans-4c"/>
      <use x="55.712891" xlink:href="#DejaVuSans-43"/>
      <use x="125.537109" xlink:href="#DejaVuSans-2d"/>
      <use x="161.621094" xlink:href="#DejaVuSans-45"/>
      <use x="224.804688" xlink:href="#DejaVuSans-53"/>
      <use x="288.28125" xlink:href="#DejaVuSans-49"/>
      <use x="317.773438" xlink:href="#DejaVuSans-2d"/>
      <use x="357.482422" xlink:href="#DejaVuSans-51"/>
      <use x="436.193359" xlink:href="#DejaVuSans-51"/>
     </g>
    </g>
    <g id="patch_24">
     <path d="M 77.04 165.147188 
L 97.04 165.147188 
L 97.04 158.147188 
L 77.04 158.147188 
z
" style="fill:#4a98c9;"/>
    </g>
    <g id="text_37">
     <!-- Quattro_QQQ -->
     <g transform="translate(105.04 165.147188)scale(0.1 -0.1)">
      <use xlink:href="#DejaVuSans-51"/>
      <use x="78.710938" xlink:href="#DejaVuSans-75"/>
      <use x="142.089844" xlink:href="#DejaVuSans-61"/>
      <use x="203.369141" xlink:href="#DejaVuSans-74"/>
      <use x="242.578125" xlink:href="#DejaVuSans-74"/>
      <use x="281.787109" xlink:href="#DejaVuSans-72"/>
      <use x="320.650391" xlink:href="#DejaVuSans-6f"/>
      <use x="381.832031" xlink:href="#DejaVuSans-5f"/>
      <use x="431.832031" xlink:href="#DejaVuSans-51"/>
      <use x="510.542969" xlink:href="#DejaVuSans-51"/>
      <use x="589.253906" xlink:href="#DejaVuSans-51"/>
     </g>
    </g>
    <g id="patch_25">
     <path d="M 77.04 180.103438 
L 97.04 180.103438 
L 97.04 173.103438 
L 77.04 173.103438 
z
" style="fill:#60a7d2;"/>
    </g>
    <g id="text_38">
     <!-- LC-ESI-QQQ -->
     <g transform="translate(105.04 180.103438)scale(0.1 -0.1)">
      <use xlink:href="#DejaVuSans-4c"/>
      <use x="55.712891" xlink:href="#DejaVuSans-43"/>
      <use x="125.537109" xlink:href="#DejaVuSans-2d"/>
      <use x="161.621094" xlink:href="#DejaVuSans-45"/>
      <use x="224.804688" xlink:href="#DejaVuSans-53"/>
      <use x="288.28125" xlink:href="#DejaVuSans-49"/>
      <use x="317.773438" xlink:href="#DejaVuSans-2d"/>
      <use x="357.482422" xlink:href="#DejaVuSans-51"/>
      <use x="436.193359" xlink:href="#DejaVuSans-51"/>
      <use x="514.904297" xlink:href="#DejaVuSans-51"/>
     </g>
    </g>
    <g id="patch_26">
     <path d="M 77.04 194.781563 
L 97.04 194.781563 
L 97.04 187.781563 
L 77.04 187.781563 
z
" style="fill:#79b5d9;"/>
    </g>
    <g id="text_39">
     <!-- LC-Q-TOF/MS -->
     <g transform="translate(105.04 194.781563)scale(0.1 -0.1)">
      <use xlink:href="#DejaVuSans-4c"/>
      <use x="55.712891" xlink:href="#DejaVuSans-43"/>
      <use x="125.537109" xlink:href="#DejaVuSans-2d"/>
      <use x="165.246094" xlink:href="#DejaVuSans-51"/>
      <use x="246.707031" xlink:href="#DejaVuSans-2d"/>
      <use x="273.666016" xlink:href="#DejaVuSans-54"/>
      <use x="334.75" xlink:href="#DejaVuSans-4f"/>
      <use x="413.460938" xlink:href="#DejaVuSans-46"/>
      <use x="470.980469" xlink:href="#DejaVuSans-2f"/>
      <use x="504.671875" xlink:href="#DejaVuSans-4d"/>
      <use x="590.951172" xlink:href="#DejaVuSans-53"/>
     </g>
    </g>
    <g id="patch_27">
     <path d="M 77.04 209.459687 
L 97.04 209.459687 
L 97.04 202.459687 
L 77.04 202.459687 
z
" style="fill:#94c4df;"/>
    </g>
    <g id="text_40">
     <!-- LC-ESI-TOF -->
     <g transform="translate(105.04 209.459687)scale(0.1 -0.1)">
      <use xlink:href="#DejaVuSans-4c"/>
      <use x="55.712891" xlink:href="#DejaVuSans-43"/>
      <use x="125.537109" xlink:href="#DejaVuSans-2d"/>
      <use x="161.621094" xlink:href="#DejaVuSans-45"/>
      <use x="224.804688" xlink:href="#DejaVuSans-53"/>
      <use x="288.28125" xlink:href="#DejaVuSans-49"/>
      <use x="317.773438" xlink:href="#DejaVuSans-2d"/>
      <use x="344.732422" xlink:href="#DejaVuSans-54"/>
      <use x="405.816406" xlink:href="#DejaVuSans-4f"/>
      <use x="484.527344" xlink:href="#DejaVuSans-46"/>
     </g>
    </g>
    <g id="patch_28">
     <path d="M 77.04 224.137812 
L 97.04 224.137812 
L 97.04 217.137812 
L 77.04 217.137812 
z
" style="fill:#abd0e6;"/>
    </g>
    <g id="text_41">
     <!-- QIT -->
     <g transform="translate(105.04 224.137812)scale(0.1 -0.1)">
      <use xlink:href="#DejaVuSans-51"/>
      <use x="78.710938" xlink:href="#DejaVuSans-49"/>
      <use x="108.203125" xlink:href="#DejaVuSans-54"/>
     </g>
    </g>
    <g id="patch_29">
     <path d="M 77.04 238.815938 
L 97.04 238.815938 
L 97.04 231.815938 
L 77.04 231.815938 
z
" style="fill:#c1d9ed;"/>
    </g>
    <g id="text_42">
     <!-- QqQ -->
     <g transform="translate(105.04 238.815938)scale(0.1 -0.1)">
      <use xlink:href="#DejaVuSans-51"/>
      <use x="78.710938" xlink:href="#DejaVuSans-71"/>
      <use x="142.1875" xlink:href="#DejaVuSans-51"/>
     </g>
    </g>
    <g id="patch_30">
     <path d="M 77.04 253.494062 
L 97.04 253.494062 
L 97.04 246.494062 
L 77.04 246.494062 
z
" style="fill:#d0e1f2;"/>
    </g>
    <g id="text_43">
     <!-- LC-ESI-QIT -->
     <g transform="translate(105.04 253.494062)scale(0.1 -0.1)">
      <use xlink:href="#DejaVuSans-4c"/>
      <use x="55.712891" xlink:href="#DejaVuSans-43"/>
      <use x="125.537109" xlink:href="#DejaVuSans-2d"/>
      <use x="161.621094" xlink:href="#DejaVuSans-45"/>
      <use x="224.804688" xlink:href="#DejaVuSans-53"/>
      <use x="288.28125" xlink:href="#DejaVuSans-49"/>
      <use x="317.773438" xlink:href="#DejaVuSans-2d"/>
      <use x="357.482422" xlink:href="#DejaVuSans-51"/>
      <use x="436.193359" xlink:href="#DejaVuSans-49"/>
      <use x="465.685547" xlink:href="#DejaVuSans-54"/>
     </g>
    </g>
    <g id="patch_31">
     <path d="M 77.04 268.172187 
L 97.04 268.172187 
L 97.04 261.172187 
L 77.04 261.172187 
z
" style="fill:#dceaf6;"/>
    </g>
    <g id="text_44">
     <!-- LC-QTOF -->
     <g transform="translate(105.04 268.172187)scale(0.1 -0.1)">
      <use xlink:href="#DejaVuSans-4c"/>
      <use x="55.712891" xlink:href="#DejaVuSans-43"/>
      <use x="125.537109" xlink:href="#DejaVuSans-2d"/>
      <use x="165.246094" xlink:href="#DejaVuSans-51"/>
      <use x="243.957031" xlink:href="#DejaVuSans-54"/>
      <use x="305.041016" xlink:href="#DejaVuSans-4f"/>
      <use x="383.751953" xlink:href="#DejaVuSans-46"/>
     </g>
    </g>
    <g id="patch_32">
     <path d="M 77.04 282.850312 
L 97.04 282.850312 
L 97.04 275.850312 
L 77.04 275.850312 
z
" style="fill:#eaf2fb;"/>
    </g>
    <g id="text_45">
     <!-- LC-ESI-IT -->
     <g transform="translate(105.04 282.850312)scale(0.1 -0.1)">
      <use xlink:href="#DejaVuSans-4c"/>
      <use x="55.712891" xlink:href="#DejaVuSans-43"/>
      <use x="125.537109" xlink:href="#DejaVuSans-2d"/>
      <use x="161.621094" xlink:href="#DejaVuSans-45"/>
      <use x="224.804688" xlink:href="#DejaVuSans-53"/>
      <use x="288.28125" xlink:href="#DejaVuSans-49"/>
      <use x="317.773438" xlink:href="#DejaVuSans-2d"/>
      <use x="353.857422" xlink:href="#DejaVuSans-49"/>
      <use x="383.349609" xlink:href="#DejaVuSans-54"/>
     </g>
    </g>
   </g>
  </g>
 </g>
</svg>
