<?xml version="1.0" encoding="utf-8" standalone="no"?>
<!DOCTYPE svg PUBLIC "-//W3C//DTD SVG 1.1//EN"
  "http://www.w3.org/Graphics/SVG/1.1/DTD/svg11.dtd">
<svg height="504pt" version="1.1" viewBox="0 0 504 504" width="504pt" xmlns="http://www.w3.org/2000/svg" xmlns:xlink="http://www.w3.org/1999/xlink">
 <metadata>
  <rdf:RDF xmlns:cc="http://creativecommons.org/ns#" xmlns:dc="http://purl.org/dc/elements/1.1/" xmlns:rdf="http://www.w3.org/1999/02/22-rdf-syntax-ns#">
   <cc:Work>
    <dc:type rdf:resource="http://purl.org/dc/dcmitype/StillImage"/>
    <dc:date>2022-03-19T21:56:01.050312</dc:date>
    <dc:format>image/svg+xml</dc:format>
    <dc:creator>
     <cc:Agent>
      <dc:title>Matplotlib v3.4.2, https://matplotlib.org/</dc:title>
     </cc:Agent>
    </dc:creator>
   </cc:Work>
  </rdf:RDF>
 </metadata>
 <defs>
  <style type="text/css">*{stroke-linecap:butt;stroke-linejoin:round;}</style>
 </defs>
 <g id="figure_1">
  <g id="patch_1">
   <path d="M 0 504 
L 504 504 
L 504 0 
L 0 0 
z
" style="fill:none;"/>
  </g>
  <g id="axes_1">
   <g id="patch_2">
    <path d="M 63 441 
L 453.6 441 
L 453.6 60.48 
L 63 60.48 
z
" style="fill:#ffffff;"/>
   </g>
   <g id="patch_3">
    <path clip-path="url(#p5b8329499a)" d="M 80.754545 441 
L 87.856364 441 
L 87.856364 435.278933 
L 80.754545 435.278933 
z
" style="fill:#0000ff;fill-opacity:0.6;stroke:#ffffff;stroke-linejoin:miter;stroke-width:0.710182;"/>
   </g>
   <g id="patch_4">
    <path clip-path="url(#p5b8329499a)" d="M 87.856364 441 
L 94.958182 441 
L 94.958182 351.632989 
L 87.856364 351.632989 
z
" style="fill:#0000ff;fill-opacity:0.6;stroke:#ffffff;stroke-linejoin:miter;stroke-width:0.710182;"/>
   </g>
   <g id="patch_5">
    <path clip-path="url(#p5b8329499a)" d="M 94.958182 441 
L 102.06 441 
L 102.06 237.349744 
L 94.958182 237.349744 
z
" style="fill:#0000ff;fill-opacity:0.6;stroke:#ffffff;stroke-linejoin:miter;stroke-width:0.710182;"/>
   </g>
   <g id="patch_6">
    <path clip-path="url(#p5b8329499a)" d="M 102.06 441 
L 109.161818 441 
L 109.161818 209.27706 
L 102.06 209.27706 
z
" style="fill:#0000ff;fill-opacity:0.6;stroke:#ffffff;stroke-linejoin:miter;stroke-width:0.710182;"/>
   </g>
   <g id="patch_7">
    <path clip-path="url(#p5b8329499a)" d="M 109.161818 441 
L 116.263636 441 
L 116.263636 90.495874 
L 109.161818 90.495874 
z
" style="fill:#0000ff;fill-opacity:0.6;stroke:#ffffff;stroke-linejoin:miter;stroke-width:0.710182;"/>
   </g>
   <g id="patch_8">
    <path clip-path="url(#p5b8329499a)" d="M 116.263636 441 
L 123.365455 441 
L 123.365455 78.6 
L 116.263636 78.6 
z
" style="fill:#0000ff;fill-opacity:0.6;stroke:#ffffff;stroke-linejoin:miter;stroke-width:0.710182;"/>
   </g>
   <g id="patch_9">
    <path clip-path="url(#p5b8329499a)" d="M 123.365455 441 
L 130.467273 441 
L 130.467273 170.393533 
L 123.365455 170.393533 
z
" style="fill:#0000ff;fill-opacity:0.6;stroke:#ffffff;stroke-linejoin:miter;stroke-width:0.710182;"/>
   </g>
   <g id="patch_10">
    <path clip-path="url(#p5b8329499a)" d="M 130.467273 441 
L 137.569091 441 
L 137.569091 201.721306 
L 130.467273 201.721306 
z
" style="fill:#0000ff;fill-opacity:0.6;stroke:#ffffff;stroke-linejoin:miter;stroke-width:0.710182;"/>
   </g>
   <g id="patch_11">
    <path clip-path="url(#p5b8329499a)" d="M 137.569091 441 
L 144.670909 441 
L 144.670909 282.191072 
L 137.569091 282.191072 
z
" style="fill:#0000ff;fill-opacity:0.6;stroke:#ffffff;stroke-linejoin:miter;stroke-width:0.710182;"/>
   </g>
   <g id="patch_12">
    <path clip-path="url(#p5b8329499a)" d="M 144.670909 441 
L 151.772727 441 
L 151.772727 342.301731 
L 144.670909 342.301731 
z
" style="fill:#0000ff;fill-opacity:0.6;stroke:#ffffff;stroke-linejoin:miter;stroke-width:0.710182;"/>
   </g>
   <g id="patch_13">
    <path clip-path="url(#p5b8329499a)" d="M 151.772727 441 
L 158.874545 441 
L 158.874545 318.411345 
L 151.772727 318.411345 
z
" style="fill:#0000ff;fill-opacity:0.6;stroke:#ffffff;stroke-linejoin:miter;stroke-width:0.710182;"/>
   </g>
   <g id="patch_14">
    <path clip-path="url(#p5b8329499a)" d="M 158.874545 441 
L 165.976364 441 
L 165.976364 388.977746 
L 158.874545 388.977746 
z
" style="fill:#0000ff;fill-opacity:0.6;stroke:#ffffff;stroke-linejoin:miter;stroke-width:0.710182;"/>
   </g>
   <g id="patch_15">
    <path clip-path="url(#p5b8329499a)" d="M 165.976364 441 
L 173.078182 441 
L 173.078182 402.313751 
L 165.976364 402.313751 
z
" style="fill:#0000ff;fill-opacity:0.6;stroke:#ffffff;stroke-linejoin:miter;stroke-width:0.710182;"/>
   </g>
   <g id="patch_16">
    <path clip-path="url(#p5b8329499a)" d="M 173.078182 441 
L 180.18 441 
L 180.18 379.015199 
L 173.078182 379.015199 
z
" style="fill:#0000ff;fill-opacity:0.6;stroke:#ffffff;stroke-linejoin:miter;stroke-width:0.710182;"/>
   </g>
   <g id="patch_17">
    <path clip-path="url(#p5b8329499a)" d="M 180.18 441 
L 187.281818 441 
L 187.281818 384.755993 
L 180.18 384.755993 
z
" style="fill:#0000ff;fill-opacity:0.6;stroke:#ffffff;stroke-linejoin:miter;stroke-width:0.710182;"/>
   </g>
   <g id="patch_18">
    <path clip-path="url(#p5b8329499a)" d="M 187.281818 441 
L 194.383636 441 
L 194.383636 410.559978 
L 187.281818 410.559978 
z
" style="fill:#0000ff;fill-opacity:0.6;stroke:#ffffff;stroke-linejoin:miter;stroke-width:0.710182;"/>
   </g>
   <g id="patch_19">
    <path clip-path="url(#p5b8329499a)" d="M 194.383636 441 
L 201.485455 441 
L 201.485455 420.049058 
L 194.383636 420.049058 
z
" style="fill:#0000ff;fill-opacity:0.6;stroke:#ffffff;stroke-linejoin:miter;stroke-width:0.710182;"/>
   </g>
   <g id="patch_20">
    <path clip-path="url(#p5b8329499a)" d="M 201.485455 441 
L 208.587273 441 
L 208.587273 420.049058 
L 201.485455 420.049058 
z
" style="fill:#0000ff;fill-opacity:0.6;stroke:#ffffff;stroke-linejoin:miter;stroke-width:0.710182;"/>
   </g>
   <g id="patch_21">
    <path clip-path="url(#p5b8329499a)" d="M 208.587273 441 
L 215.689091 441 
L 215.689091 434.075536 
L 208.587273 434.075536 
z
" style="fill:#0000ff;fill-opacity:0.6;stroke:#ffffff;stroke-linejoin:miter;stroke-width:0.710182;"/>
   </g>
   <g id="patch_22">
    <path clip-path="url(#p5b8329499a)" d="M 215.689091 441 
L 222.790909 441 
L 222.790909 426.164682 
L 215.689091 426.164682 
z
" style="fill:#0000ff;fill-opacity:0.6;stroke:#ffffff;stroke-linejoin:miter;stroke-width:0.710182;"/>
   </g>
   <g id="patch_23">
    <path clip-path="url(#p5b8329499a)" d="M 222.790909 441 
L 229.892727 441 
L 229.892727 432.359216 
L 222.790909 432.359216 
z
" style="fill:#0000ff;fill-opacity:0.6;stroke:#ffffff;stroke-linejoin:miter;stroke-width:0.710182;"/>
   </g>
   <g id="patch_24">
    <path clip-path="url(#p5b8329499a)" d="M 229.892727 441 
L 236.994545 441 
L 236.994545 436.600697 
L 229.892727 436.600697 
z
" style="fill:#0000ff;fill-opacity:0.6;stroke:#ffffff;stroke-linejoin:miter;stroke-width:0.710182;"/>
   </g>
   <g id="patch_25">
    <path clip-path="url(#p5b8329499a)" d="M 236.994545 441 
L 244.096364 441 
L 244.096364 434.095264 
L 236.994545 434.095264 
z
" style="fill:#0000ff;fill-opacity:0.6;stroke:#ffffff;stroke-linejoin:miter;stroke-width:0.710182;"/>
   </g>
   <g id="patch_26">
    <path clip-path="url(#p5b8329499a)" d="M 244.096364 441 
L 251.198182 441 
L 251.198182 435.732673 
L 244.096364 435.732673 
z
" style="fill:#0000ff;fill-opacity:0.6;stroke:#ffffff;stroke-linejoin:miter;stroke-width:0.710182;"/>
   </g>
   <g id="patch_27">
    <path clip-path="url(#p5b8329499a)" d="M 251.198182 441 
L 258.3 441 
L 258.3 437.409537 
L 251.198182 437.409537 
z
" style="fill:#0000ff;fill-opacity:0.6;stroke:#ffffff;stroke-linejoin:miter;stroke-width:0.710182;"/>
   </g>
   <g id="patch_28">
    <path clip-path="url(#p5b8329499a)" d="M 258.3 441 
L 265.401818 441 
L 265.401818 438.356473 
L 258.3 438.356473 
z
" style="fill:#0000ff;fill-opacity:0.6;stroke:#ffffff;stroke-linejoin:miter;stroke-width:0.710182;"/>
   </g>
   <g id="patch_29">
    <path clip-path="url(#p5b8329499a)" d="M 265.401818 441 
L 272.503636 441 
L 272.503636 438.869396 
L 265.401818 438.869396 
z
" style="fill:#0000ff;fill-opacity:0.6;stroke:#ffffff;stroke-linejoin:miter;stroke-width:0.710182;"/>
   </g>
   <g id="patch_30">
    <path clip-path="url(#p5b8329499a)" d="M 272.503636 441 
L 279.605455 441 
L 279.605455 440.388438 
L 272.503636 440.388438 
z
" style="fill:#0000ff;fill-opacity:0.6;stroke:#ffffff;stroke-linejoin:miter;stroke-width:0.710182;"/>
   </g>
   <g id="patch_31">
    <path clip-path="url(#p5b8329499a)" d="M 279.605455 441 
L 286.707273 441 
L 286.707273 438.731301 
L 279.605455 438.731301 
z
" style="fill:#0000ff;fill-opacity:0.6;stroke:#ffffff;stroke-linejoin:miter;stroke-width:0.710182;"/>
   </g>
   <g id="patch_32">
    <path clip-path="url(#p5b8329499a)" d="M 286.707273 441 
L 293.809091 441 
L 293.809091 440.151704 
L 286.707273 440.151704 
z
" style="fill:#0000ff;fill-opacity:0.6;stroke:#ffffff;stroke-linejoin:miter;stroke-width:0.710182;"/>
   </g>
   <g id="patch_33">
    <path clip-path="url(#p5b8329499a)" d="M 293.809091 441 
L 300.910909 441 
L 300.910909 439.934698 
L 293.809091 439.934698 
z
" style="fill:#0000ff;fill-opacity:0.6;stroke:#ffffff;stroke-linejoin:miter;stroke-width:0.710182;"/>
   </g>
   <g id="patch_34">
    <path clip-path="url(#p5b8329499a)" d="M 300.910909 441 
L 308.012727 441 
L 308.012727 440.782994 
L 300.910909 440.782994 
z
" style="fill:#0000ff;fill-opacity:0.6;stroke:#ffffff;stroke-linejoin:miter;stroke-width:0.710182;"/>
   </g>
   <g id="patch_35">
    <path clip-path="url(#p5b8329499a)" d="M 308.012727 441 
L 315.114545 441 
L 315.114545 440.408165 
L 308.012727 440.408165 
z
" style="fill:#0000ff;fill-opacity:0.6;stroke:#ffffff;stroke-linejoin:miter;stroke-width:0.710182;"/>
   </g>
   <g id="patch_36">
    <path clip-path="url(#p5b8329499a)" d="M 315.114545 441 
L 322.216364 441 
L 322.216364 440.467349 
L 315.114545 440.467349 
z
" style="fill:#0000ff;fill-opacity:0.6;stroke:#ffffff;stroke-linejoin:miter;stroke-width:0.710182;"/>
   </g>
   <g id="patch_37">
    <path clip-path="url(#p5b8329499a)" d="M 322.216364 441 
L 329.318182 441 
L 329.318182 440.033337 
L 322.216364 440.033337 
z
" style="fill:#0000ff;fill-opacity:0.6;stroke:#ffffff;stroke-linejoin:miter;stroke-width:0.710182;"/>
   </g>
   <g id="patch_38">
    <path clip-path="url(#p5b8329499a)" d="M 329.318182 441 
L 336.42 441 
L 336.42 440.980272 
L 329.318182 440.980272 
z
" style="fill:#0000ff;fill-opacity:0.6;stroke:#ffffff;stroke-linejoin:miter;stroke-width:0.710182;"/>
   </g>
   <g id="patch_39">
    <path clip-path="url(#p5b8329499a)" d="M 336.42 441 
L 343.521818 441 
L 343.521818 440.625171 
L 336.42 440.625171 
z
" style="fill:#0000ff;fill-opacity:0.6;stroke:#ffffff;stroke-linejoin:miter;stroke-width:0.710182;"/>
   </g>
   <g id="patch_40">
    <path clip-path="url(#p5b8329499a)" d="M 343.521818 441 
L 350.623636 441 
L 350.623636 441 
L 343.521818 441 
z
" style="fill:#0000ff;fill-opacity:0.6;stroke:#ffffff;stroke-linejoin:miter;stroke-width:0.710182;"/>
   </g>
   <g id="patch_41">
    <path clip-path="url(#p5b8329499a)" d="M 350.623636 441 
L 357.725455 441 
L 357.725455 441 
L 350.623636 441 
z
" style="fill:#0000ff;fill-opacity:0.6;stroke:#ffffff;stroke-linejoin:miter;stroke-width:0.710182;"/>
   </g>
   <g id="patch_42">
    <path clip-path="url(#p5b8329499a)" d="M 357.725455 441 
L 364.827273 441 
L 364.827273 441 
L 357.725455 441 
z
" style="fill:#0000ff;fill-opacity:0.6;stroke:#ffffff;stroke-linejoin:miter;stroke-width:0.710182;"/>
   </g>
   <g id="patch_43">
    <path clip-path="url(#p5b8329499a)" d="M 364.827273 441 
L 371.929091 441 
L 371.929091 440.940817 
L 364.827273 440.940817 
z
" style="fill:#0000ff;fill-opacity:0.6;stroke:#ffffff;stroke-linejoin:miter;stroke-width:0.710182;"/>
   </g>
   <g id="patch_44">
    <path clip-path="url(#p5b8329499a)" d="M 371.929091 441 
L 379.030909 441 
L 379.030909 441 
L 371.929091 441 
z
" style="fill:#0000ff;fill-opacity:0.6;stroke:#ffffff;stroke-linejoin:miter;stroke-width:0.710182;"/>
   </g>
   <g id="patch_45">
    <path clip-path="url(#p5b8329499a)" d="M 379.030909 441 
L 386.132727 441 
L 386.132727 441 
L 379.030909 441 
z
" style="fill:#0000ff;fill-opacity:0.6;stroke:#ffffff;stroke-linejoin:miter;stroke-width:0.710182;"/>
   </g>
   <g id="patch_46">
    <path clip-path="url(#p5b8329499a)" d="M 386.132727 441 
L 393.234545 441 
L 393.234545 441 
L 386.132727 441 
z
" style="fill:#0000ff;fill-opacity:0.6;stroke:#ffffff;stroke-linejoin:miter;stroke-width:0.710182;"/>
   </g>
   <g id="patch_47">
    <path clip-path="url(#p5b8329499a)" d="M 393.234545 441 
L 400.336364 441 
L 400.336364 441 
L 393.234545 441 
z
" style="fill:#0000ff;fill-opacity:0.6;stroke:#ffffff;stroke-linejoin:miter;stroke-width:0.710182;"/>
   </g>
   <g id="patch_48">
    <path clip-path="url(#p5b8329499a)" d="M 400.336364 441 
L 407.438182 441 
L 407.438182 441 
L 400.336364 441 
z
" style="fill:#0000ff;fill-opacity:0.6;stroke:#ffffff;stroke-linejoin:miter;stroke-width:0.710182;"/>
   </g>
   <g id="patch_49">
    <path clip-path="url(#p5b8329499a)" d="M 407.438182 441 
L 414.54 441 
L 414.54 441 
L 407.438182 441 
z
" style="fill:#0000ff;fill-opacity:0.6;stroke:#ffffff;stroke-linejoin:miter;stroke-width:0.710182;"/>
   </g>
   <g id="patch_50">
    <path clip-path="url(#p5b8329499a)" d="M 414.54 441 
L 421.641818 441 
L 421.641818 441 
L 414.54 441 
z
" style="fill:#0000ff;fill-opacity:0.6;stroke:#ffffff;stroke-linejoin:miter;stroke-width:0.710182;"/>
   </g>
   <g id="patch_51">
    <path clip-path="url(#p5b8329499a)" d="M 421.641818 441 
L 428.743636 441 
L 428.743636 441 
L 421.641818 441 
z
" style="fill:#0000ff;fill-opacity:0.6;stroke:#ffffff;stroke-linejoin:miter;stroke-width:0.710182;"/>
   </g>
   <g id="patch_52">
    <path clip-path="url(#p5b8329499a)" d="M 428.743636 441 
L 435.845455 441 
L 435.845455 440.940817 
L 428.743636 440.940817 
z
" style="fill:#0000ff;fill-opacity:0.6;stroke:#ffffff;stroke-linejoin:miter;stroke-width:0.710182;"/>
   </g>
   <g id="matplotlib.axis_1">
    <g id="xtick_1">
     <g id="line2d_1">
      <defs>
       <path d="M 0 0 
L 0 3.5 
" id="m59754c59e1" style="stroke:#000000;stroke-width:0.8;"/>
      </defs>
      <g>
       <use style="stroke:#000000;stroke-width:0.8;" x="76.590971" xlink:href="#m59754c59e1" y="441"/>
      </g>
     </g>
     <g id="text_1">
      <!-- 0 -->
      <g transform="translate(73.409721 455.598437)scale(0.1 -0.1)">
       <defs>
        <path d="M 2034 4250 
Q 1547 4250 1301 3770 
Q 1056 3291 1056 2328 
Q 1056 1369 1301 889 
Q 1547 409 2034 409 
Q 2525 409 2770 889 
Q 3016 1369 3016 2328 
Q 3016 3291 2770 3770 
Q 2525 4250 2034 4250 
z
M 2034 4750 
Q 2819 4750 3233 4129 
Q 3647 3509 3647 2328 
Q 3647 1150 3233 529 
Q 2819 -91 2034 -91 
Q 1250 -91 836 529 
Q 422 1150 422 2328 
Q 422 3509 836 4129 
Q 1250 4750 2034 4750 
z
" id="DejaVuSans-30" transform="scale(0.015625)"/>
       </defs>
       <use xlink:href="#DejaVuSans-30"/>
      </g>
     </g>
    </g>
    <g id="xtick_2">
     <g id="line2d_2">
      <g>
       <use style="stroke:#000000;stroke-width:0.8;" x="143.654107" xlink:href="#m59754c59e1" y="441"/>
      </g>
     </g>
     <g id="text_2">
      <!-- 500 -->
      <g transform="translate(134.110357 455.598437)scale(0.1 -0.1)">
       <defs>
        <path d="M 691 4666 
L 3169 4666 
L 3169 4134 
L 1269 4134 
L 1269 2991 
Q 1406 3038 1543 3061 
Q 1681 3084 1819 3084 
Q 2600 3084 3056 2656 
Q 3513 2228 3513 1497 
Q 3513 744 3044 326 
Q 2575 -91 1722 -91 
Q 1428 -91 1123 -41 
Q 819 9 494 109 
L 494 744 
Q 775 591 1075 516 
Q 1375 441 1709 441 
Q 2250 441 2565 725 
Q 2881 1009 2881 1497 
Q 2881 1984 2565 2268 
Q 2250 2553 1709 2553 
Q 1456 2553 1204 2497 
Q 953 2441 691 2322 
L 691 4666 
z
" id="DejaVuSans-35" transform="scale(0.015625)"/>
       </defs>
       <use xlink:href="#DejaVuSans-35"/>
       <use x="63.623047" xlink:href="#DejaVuSans-30"/>
       <use x="127.246094" xlink:href="#DejaVuSans-30"/>
      </g>
     </g>
    </g>
    <g id="xtick_3">
     <g id="line2d_3">
      <g>
       <use style="stroke:#000000;stroke-width:0.8;" x="210.717243" xlink:href="#m59754c59e1" y="441"/>
      </g>
     </g>
     <g id="text_3">
      <!-- 1000 -->
      <g transform="translate(197.992243 455.598437)scale(0.1 -0.1)">
       <defs>
        <path d="M 794 531 
L 1825 531 
L 1825 4091 
L 703 3866 
L 703 4441 
L 1819 4666 
L 2450 4666 
L 2450 531 
L 3481 531 
L 3481 0 
L 794 0 
L 794 531 
z
" id="DejaVuSans-31" transform="scale(0.015625)"/>
       </defs>
       <use xlink:href="#DejaVuSans-31"/>
       <use x="63.623047" xlink:href="#DejaVuSans-30"/>
       <use x="127.246094" xlink:href="#DejaVuSans-30"/>
       <use x="190.869141" xlink:href="#DejaVuSans-30"/>
      </g>
     </g>
    </g>
    <g id="xtick_4">
     <g id="line2d_4">
      <g>
       <use style="stroke:#000000;stroke-width:0.8;" x="277.78038" xlink:href="#m59754c59e1" y="441"/>
      </g>
     </g>
     <g id="text_4">
      <!-- 1500 -->
      <g transform="translate(265.05538 455.598437)scale(0.1 -0.1)">
       <use xlink:href="#DejaVuSans-31"/>
       <use x="63.623047" xlink:href="#DejaVuSans-35"/>
       <use x="127.246094" xlink:href="#DejaVuSans-30"/>
       <use x="190.869141" xlink:href="#DejaVuSans-30"/>
      </g>
     </g>
    </g>
    <g id="xtick_5">
     <g id="line2d_5">
      <g>
       <use style="stroke:#000000;stroke-width:0.8;" x="344.843516" xlink:href="#m59754c59e1" y="441"/>
      </g>
     </g>
     <g id="text_5">
      <!-- 2000 -->
      <g transform="translate(332.118516 455.598437)scale(0.1 -0.1)">
       <defs>
        <path d="M 1228 531 
L 3431 531 
L 3431 0 
L 469 0 
L 469 531 
Q 828 903 1448 1529 
Q 2069 2156 2228 2338 
Q 2531 2678 2651 2914 
Q 2772 3150 2772 3378 
Q 2772 3750 2511 3984 
Q 2250 4219 1831 4219 
Q 1534 4219 1204 4116 
Q 875 4013 500 3803 
L 500 4441 
Q 881 4594 1212 4672 
Q 1544 4750 1819 4750 
Q 2544 4750 2975 4387 
Q 3406 4025 3406 3419 
Q 3406 3131 3298 2873 
Q 3191 2616 2906 2266 
Q 2828 2175 2409 1742 
Q 1991 1309 1228 531 
z
" id="DejaVuSans-32" transform="scale(0.015625)"/>
       </defs>
       <use xlink:href="#DejaVuSans-32"/>
       <use x="63.623047" xlink:href="#DejaVuSans-30"/>
       <use x="127.246094" xlink:href="#DejaVuSans-30"/>
       <use x="190.869141" xlink:href="#DejaVuSans-30"/>
      </g>
     </g>
    </g>
    <g id="xtick_6">
     <g id="line2d_6">
      <g>
       <use style="stroke:#000000;stroke-width:0.8;" x="411.906652" xlink:href="#m59754c59e1" y="441"/>
      </g>
     </g>
     <g id="text_6">
      <!-- 2500 -->
      <g transform="translate(399.181652 455.598437)scale(0.1 -0.1)">
       <use xlink:href="#DejaVuSans-32"/>
       <use x="63.623047" xlink:href="#DejaVuSans-35"/>
       <use x="127.246094" xlink:href="#DejaVuSans-30"/>
       <use x="190.869141" xlink:href="#DejaVuSans-30"/>
      </g>
     </g>
    </g>
    <g id="text_7">
     <!-- total_exact_mass -->
     <g transform="translate(215.001563 469.276563)scale(0.1 -0.1)">
      <defs>
       <path d="M 1172 4494 
L 1172 3500 
L 2356 3500 
L 2356 3053 
L 1172 3053 
L 1172 1153 
Q 1172 725 1289 603 
Q 1406 481 1766 481 
L 2356 481 
L 2356 0 
L 1766 0 
Q 1100 0 847 248 
Q 594 497 594 1153 
L 594 3053 
L 172 3053 
L 172 3500 
L 594 3500 
L 594 4494 
L 1172 4494 
z
" id="DejaVuSans-74" transform="scale(0.015625)"/>
       <path d="M 1959 3097 
Q 1497 3097 1228 2736 
Q 959 2375 959 1747 
Q 959 1119 1226 758 
Q 1494 397 1959 397 
Q 2419 397 2687 759 
Q 2956 1122 2956 1747 
Q 2956 2369 2687 2733 
Q 2419 3097 1959 3097 
z
M 1959 3584 
Q 2709 3584 3137 3096 
Q 3566 2609 3566 1747 
Q 3566 888 3137 398 
Q 2709 -91 1959 -91 
Q 1206 -91 779 398 
Q 353 888 353 1747 
Q 353 2609 779 3096 
Q 1206 3584 1959 3584 
z
" id="DejaVuSans-6f" transform="scale(0.015625)"/>
       <path d="M 2194 1759 
Q 1497 1759 1228 1600 
Q 959 1441 959 1056 
Q 959 750 1161 570 
Q 1363 391 1709 391 
Q 2188 391 2477 730 
Q 2766 1069 2766 1631 
L 2766 1759 
L 2194 1759 
z
M 3341 1997 
L 3341 0 
L 2766 0 
L 2766 531 
Q 2569 213 2275 61 
Q 1981 -91 1556 -91 
Q 1019 -91 701 211 
Q 384 513 384 1019 
Q 384 1609 779 1909 
Q 1175 2209 1959 2209 
L 2766 2209 
L 2766 2266 
Q 2766 2663 2505 2880 
Q 2244 3097 1772 3097 
Q 1472 3097 1187 3025 
Q 903 2953 641 2809 
L 641 3341 
Q 956 3463 1253 3523 
Q 1550 3584 1831 3584 
Q 2591 3584 2966 3190 
Q 3341 2797 3341 1997 
z
" id="DejaVuSans-61" transform="scale(0.015625)"/>
       <path d="M 603 4863 
L 1178 4863 
L 1178 0 
L 603 0 
L 603 4863 
z
" id="DejaVuSans-6c" transform="scale(0.015625)"/>
       <path d="M 3263 -1063 
L 3263 -1509 
L -63 -1509 
L -63 -1063 
L 3263 -1063 
z
" id="DejaVuSans-5f" transform="scale(0.015625)"/>
       <path d="M 3597 1894 
L 3597 1613 
L 953 1613 
Q 991 1019 1311 708 
Q 1631 397 2203 397 
Q 2534 397 2845 478 
Q 3156 559 3463 722 
L 3463 178 
Q 3153 47 2828 -22 
Q 2503 -91 2169 -91 
Q 1331 -91 842 396 
Q 353 884 353 1716 
Q 353 2575 817 3079 
Q 1281 3584 2069 3584 
Q 2775 3584 3186 3129 
Q 3597 2675 3597 1894 
z
M 3022 2063 
Q 3016 2534 2758 2815 
Q 2500 3097 2075 3097 
Q 1594 3097 1305 2825 
Q 1016 2553 972 2059 
L 3022 2063 
z
" id="DejaVuSans-65" transform="scale(0.015625)"/>
       <path d="M 3513 3500 
L 2247 1797 
L 3578 0 
L 2900 0 
L 1881 1375 
L 863 0 
L 184 0 
L 1544 1831 
L 300 3500 
L 978 3500 
L 1906 2253 
L 2834 3500 
L 3513 3500 
z
" id="DejaVuSans-78" transform="scale(0.015625)"/>
       <path d="M 3122 3366 
L 3122 2828 
Q 2878 2963 2633 3030 
Q 2388 3097 2138 3097 
Q 1578 3097 1268 2742 
Q 959 2388 959 1747 
Q 959 1106 1268 751 
Q 1578 397 2138 397 
Q 2388 397 2633 464 
Q 2878 531 3122 666 
L 3122 134 
Q 2881 22 2623 -34 
Q 2366 -91 2075 -91 
Q 1284 -91 818 406 
Q 353 903 353 1747 
Q 353 2603 823 3093 
Q 1294 3584 2113 3584 
Q 2378 3584 2631 3529 
Q 2884 3475 3122 3366 
z
" id="DejaVuSans-63" transform="scale(0.015625)"/>
       <path d="M 3328 2828 
Q 3544 3216 3844 3400 
Q 4144 3584 4550 3584 
Q 5097 3584 5394 3201 
Q 5691 2819 5691 2113 
L 5691 0 
L 5113 0 
L 5113 2094 
Q 5113 2597 4934 2840 
Q 4756 3084 4391 3084 
Q 3944 3084 3684 2787 
Q 3425 2491 3425 1978 
L 3425 0 
L 2847 0 
L 2847 2094 
Q 2847 2600 2669 2842 
Q 2491 3084 2119 3084 
Q 1678 3084 1418 2786 
Q 1159 2488 1159 1978 
L 1159 0 
L 581 0 
L 581 3500 
L 1159 3500 
L 1159 2956 
Q 1356 3278 1631 3431 
Q 1906 3584 2284 3584 
Q 2666 3584 2933 3390 
Q 3200 3197 3328 2828 
z
" id="DejaVuSans-6d" transform="scale(0.015625)"/>
       <path d="M 2834 3397 
L 2834 2853 
Q 2591 2978 2328 3040 
Q 2066 3103 1784 3103 
Q 1356 3103 1142 2972 
Q 928 2841 928 2578 
Q 928 2378 1081 2264 
Q 1234 2150 1697 2047 
L 1894 2003 
Q 2506 1872 2764 1633 
Q 3022 1394 3022 966 
Q 3022 478 2636 193 
Q 2250 -91 1575 -91 
Q 1294 -91 989 -36 
Q 684 19 347 128 
L 347 722 
Q 666 556 975 473 
Q 1284 391 1588 391 
Q 1994 391 2212 530 
Q 2431 669 2431 922 
Q 2431 1156 2273 1281 
Q 2116 1406 1581 1522 
L 1381 1569 
Q 847 1681 609 1914 
Q 372 2147 372 2553 
Q 372 3047 722 3315 
Q 1072 3584 1716 3584 
Q 2034 3584 2315 3537 
Q 2597 3491 2834 3397 
z
" id="DejaVuSans-73" transform="scale(0.015625)"/>
      </defs>
      <use xlink:href="#DejaVuSans-74"/>
      <use x="39.208984" xlink:href="#DejaVuSans-6f"/>
      <use x="100.390625" xlink:href="#DejaVuSans-74"/>
      <use x="139.599609" xlink:href="#DejaVuSans-61"/>
      <use x="200.878906" xlink:href="#DejaVuSans-6c"/>
      <use x="228.662109" xlink:href="#DejaVuSans-5f"/>
      <use x="278.662109" xlink:href="#DejaVuSans-65"/>
      <use x="338.435547" xlink:href="#DejaVuSans-78"/>
      <use x="397.615234" xlink:href="#DejaVuSans-61"/>
      <use x="458.894531" xlink:href="#DejaVuSans-63"/>
      <use x="513.875" xlink:href="#DejaVuSans-74"/>
      <use x="553.083984" xlink:href="#DejaVuSans-5f"/>
      <use x="603.083984" xlink:href="#DejaVuSans-6d"/>
      <use x="700.496094" xlink:href="#DejaVuSans-61"/>
      <use x="761.775391" xlink:href="#DejaVuSans-73"/>
      <use x="813.875" xlink:href="#DejaVuSans-73"/>
     </g>
    </g>
   </g>
   <g id="matplotlib.axis_2">
    <g id="ytick_1">
     <g id="line2d_7">
      <defs>
       <path d="M 0 0 
L -3.5 0 
" id="mff3ba3dd81" style="stroke:#000000;stroke-width:0.8;"/>
      </defs>
      <g>
       <use style="stroke:#000000;stroke-width:0.8;" x="63" xlink:href="#mff3ba3dd81" y="441"/>
      </g>
     </g>
     <g id="text_8">
      <!-- 0 -->
      <g transform="translate(49.6375 444.799219)scale(0.1 -0.1)">
       <use xlink:href="#DejaVuSans-30"/>
      </g>
     </g>
    </g>
    <g id="ytick_2">
     <g id="line2d_8">
      <g>
       <use style="stroke:#000000;stroke-width:0.8;" x="63" xlink:href="#mff3ba3dd81" y="391.448458"/>
      </g>
     </g>
     <g id="text_9">
      <!-- 2 -->
      <g transform="translate(49.6375 395.247677)scale(0.1 -0.1)">
       <use xlink:href="#DejaVuSans-32"/>
      </g>
     </g>
    </g>
    <g id="ytick_3">
     <g id="line2d_9">
      <g>
       <use style="stroke:#000000;stroke-width:0.8;" x="63" xlink:href="#mff3ba3dd81" y="341.896916"/>
      </g>
     </g>
     <g id="text_10">
      <!-- 4 -->
      <g transform="translate(49.6375 345.696135)scale(0.1 -0.1)">
       <defs>
        <path d="M 2419 4116 
L 825 1625 
L 2419 1625 
L 2419 4116 
z
M 2253 4666 
L 3047 4666 
L 3047 1625 
L 3713 1625 
L 3713 1100 
L 3047 1100 
L 3047 0 
L 2419 0 
L 2419 1100 
L 313 1100 
L 313 1709 
L 2253 4666 
z
" id="DejaVuSans-34" transform="scale(0.015625)"/>
       </defs>
       <use xlink:href="#DejaVuSans-34"/>
      </g>
     </g>
    </g>
    <g id="ytick_4">
     <g id="line2d_10">
      <g>
       <use style="stroke:#000000;stroke-width:0.8;" x="63" xlink:href="#mff3ba3dd81" y="292.345374"/>
      </g>
     </g>
     <g id="text_11">
      <!-- 6 -->
      <g transform="translate(49.6375 296.144593)scale(0.1 -0.1)">
       <defs>
        <path d="M 2113 2584 
Q 1688 2584 1439 2293 
Q 1191 2003 1191 1497 
Q 1191 994 1439 701 
Q 1688 409 2113 409 
Q 2538 409 2786 701 
Q 3034 994 3034 1497 
Q 3034 2003 2786 2293 
Q 2538 2584 2113 2584 
z
M 3366 4563 
L 3366 3988 
Q 3128 4100 2886 4159 
Q 2644 4219 2406 4219 
Q 1781 4219 1451 3797 
Q 1122 3375 1075 2522 
Q 1259 2794 1537 2939 
Q 1816 3084 2150 3084 
Q 2853 3084 3261 2657 
Q 3669 2231 3669 1497 
Q 3669 778 3244 343 
Q 2819 -91 2113 -91 
Q 1303 -91 875 529 
Q 447 1150 447 2328 
Q 447 3434 972 4092 
Q 1497 4750 2381 4750 
Q 2619 4750 2861 4703 
Q 3103 4656 3366 4563 
z
" id="DejaVuSans-36" transform="scale(0.015625)"/>
       </defs>
       <use xlink:href="#DejaVuSans-36"/>
      </g>
     </g>
    </g>
    <g id="ytick_5">
     <g id="line2d_11">
      <g>
       <use style="stroke:#000000;stroke-width:0.8;" x="63" xlink:href="#mff3ba3dd81" y="242.793833"/>
      </g>
     </g>
     <g id="text_12">
      <!-- 8 -->
      <g transform="translate(49.6375 246.593051)scale(0.1 -0.1)">
       <defs>
        <path d="M 2034 2216 
Q 1584 2216 1326 1975 
Q 1069 1734 1069 1313 
Q 1069 891 1326 650 
Q 1584 409 2034 409 
Q 2484 409 2743 651 
Q 3003 894 3003 1313 
Q 3003 1734 2745 1975 
Q 2488 2216 2034 2216 
z
M 1403 2484 
Q 997 2584 770 2862 
Q 544 3141 544 3541 
Q 544 4100 942 4425 
Q 1341 4750 2034 4750 
Q 2731 4750 3128 4425 
Q 3525 4100 3525 3541 
Q 3525 3141 3298 2862 
Q 3072 2584 2669 2484 
Q 3125 2378 3379 2068 
Q 3634 1759 3634 1313 
Q 3634 634 3220 271 
Q 2806 -91 2034 -91 
Q 1263 -91 848 271 
Q 434 634 434 1313 
Q 434 1759 690 2068 
Q 947 2378 1403 2484 
z
M 1172 3481 
Q 1172 3119 1398 2916 
Q 1625 2713 2034 2713 
Q 2441 2713 2670 2916 
Q 2900 3119 2900 3481 
Q 2900 3844 2670 4047 
Q 2441 4250 2034 4250 
Q 1625 4250 1398 4047 
Q 1172 3844 1172 3481 
z
" id="DejaVuSans-38" transform="scale(0.015625)"/>
       </defs>
       <use xlink:href="#DejaVuSans-38"/>
      </g>
     </g>
    </g>
    <g id="ytick_6">
     <g id="line2d_12">
      <g>
       <use style="stroke:#000000;stroke-width:0.8;" x="63" xlink:href="#mff3ba3dd81" y="193.242291"/>
      </g>
     </g>
     <g id="text_13">
      <!-- 10 -->
      <g transform="translate(43.275 197.041509)scale(0.1 -0.1)">
       <use xlink:href="#DejaVuSans-31"/>
       <use x="63.623047" xlink:href="#DejaVuSans-30"/>
      </g>
     </g>
    </g>
    <g id="ytick_7">
     <g id="line2d_13">
      <g>
       <use style="stroke:#000000;stroke-width:0.8;" x="63" xlink:href="#mff3ba3dd81" y="143.690749"/>
      </g>
     </g>
     <g id="text_14">
      <!-- 12 -->
      <g transform="translate(43.275 147.489968)scale(0.1 -0.1)">
       <use xlink:href="#DejaVuSans-31"/>
       <use x="63.623047" xlink:href="#DejaVuSans-32"/>
      </g>
     </g>
    </g>
    <g id="ytick_8">
     <g id="line2d_14">
      <g>
       <use style="stroke:#000000;stroke-width:0.8;" x="63" xlink:href="#mff3ba3dd81" y="94.139207"/>
      </g>
     </g>
     <g id="text_15">
      <!-- 14 -->
      <g transform="translate(43.275 97.938426)scale(0.1 -0.1)">
       <use xlink:href="#DejaVuSans-31"/>
       <use x="63.623047" xlink:href="#DejaVuSans-34"/>
      </g>
     </g>
    </g>
    <g id="text_16">
     <!-- Percent -->
     <g transform="translate(37.195312 269.547813)rotate(-90)scale(0.1 -0.1)">
      <defs>
       <path d="M 1259 4147 
L 1259 2394 
L 2053 2394 
Q 2494 2394 2734 2622 
Q 2975 2850 2975 3272 
Q 2975 3691 2734 3919 
Q 2494 4147 2053 4147 
L 1259 4147 
z
M 628 4666 
L 2053 4666 
Q 2838 4666 3239 4311 
Q 3641 3956 3641 3272 
Q 3641 2581 3239 2228 
Q 2838 1875 2053 1875 
L 1259 1875 
L 1259 0 
L 628 0 
L 628 4666 
z
" id="DejaVuSans-50" transform="scale(0.015625)"/>
       <path d="M 2631 2963 
Q 2534 3019 2420 3045 
Q 2306 3072 2169 3072 
Q 1681 3072 1420 2755 
Q 1159 2438 1159 1844 
L 1159 0 
L 581 0 
L 581 3500 
L 1159 3500 
L 1159 2956 
Q 1341 3275 1631 3429 
Q 1922 3584 2338 3584 
Q 2397 3584 2469 3576 
Q 2541 3569 2628 3553 
L 2631 2963 
z
" id="DejaVuSans-72" transform="scale(0.015625)"/>
       <path d="M 3513 2113 
L 3513 0 
L 2938 0 
L 2938 2094 
Q 2938 2591 2744 2837 
Q 2550 3084 2163 3084 
Q 1697 3084 1428 2787 
Q 1159 2491 1159 1978 
L 1159 0 
L 581 0 
L 581 3500 
L 1159 3500 
L 1159 2956 
Q 1366 3272 1645 3428 
Q 1925 3584 2291 3584 
Q 2894 3584 3203 3211 
Q 3513 2838 3513 2113 
z
" id="DejaVuSans-6e" transform="scale(0.015625)"/>
      </defs>
      <use xlink:href="#DejaVuSans-50"/>
      <use x="56.677734" xlink:href="#DejaVuSans-65"/>
      <use x="118.201172" xlink:href="#DejaVuSans-72"/>
      <use x="157.064453" xlink:href="#DejaVuSans-63"/>
      <use x="212.044922" xlink:href="#DejaVuSans-65"/>
      <use x="273.568359" xlink:href="#DejaVuSans-6e"/>
      <use x="336.947266" xlink:href="#DejaVuSans-74"/>
     </g>
    </g>
   </g>
   <g id="patch_53">
    <path d="M 63 441 
L 63 60.48 
" style="fill:none;stroke:#000000;stroke-linecap:square;stroke-linejoin:miter;stroke-width:0.8;"/>
   </g>
   <g id="patch_54">
    <path d="M 453.6 441 
L 453.6 60.48 
" style="fill:none;stroke:#000000;stroke-linecap:square;stroke-linejoin:miter;stroke-width:0.8;"/>
   </g>
   <g id="patch_55">
    <path d="M 63 441 
L 453.6 441 
" style="fill:none;stroke:#000000;stroke-linecap:square;stroke-linejoin:miter;stroke-width:0.8;"/>
   </g>
   <g id="patch_56">
    <path d="M 63 60.48 
L 453.6 60.48 
" style="fill:none;stroke:#000000;stroke-linecap:square;stroke-linejoin:miter;stroke-width:0.8;"/>
   </g>
   <g id="legend_1">
    <g id="patch_57">
     <path d="M 442.6 73.48 
L 446.6 73.48 
Q 448.6 73.48 448.6 71.48 
L 448.6 67.48 
Q 448.6 65.48 446.6 65.48 
L 442.6 65.48 
Q 440.6 65.48 440.6 67.48 
L 440.6 71.48 
Q 440.6 73.48 442.6 73.48 
z
" style="fill:#ffffff;opacity:0.8;stroke:#cccccc;stroke-linejoin:miter;"/>
    </g>
   </g>
  </g>
 </g>
 <defs>
  <clipPath id="p5b8329499a">
   <rect height="380.52" width="390.6" x="63" y="60.48"/>
  </clipPath>
 </defs>
</svg>
