<?xml version="1.0" encoding="utf-8" standalone="no"?>
<!DOCTYPE svg PUBLIC "-//W3C//DTD SVG 1.1//EN"
  "http://www.w3.org/Graphics/SVG/1.1/DTD/svg11.dtd">
<svg height="216pt" version="1.1" viewBox="0 0 1800 216" width="1800pt" xmlns="http://www.w3.org/2000/svg" xmlns:xlink="http://www.w3.org/1999/xlink">
 <metadata>
  <rdf:RDF xmlns:cc="http://creativecommons.org/ns#" xmlns:dc="http://purl.org/dc/elements/1.1/" xmlns:rdf="http://www.w3.org/1999/02/22-rdf-syntax-ns#">
   <cc:Work>
    <dc:type rdf:resource="http://purl.org/dc/dcmitype/StillImage"/>
    <dc:date>2022-05-16T21:27:04.220267</dc:date>
    <dc:format>image/svg+xml</dc:format>
    <dc:creator>
     <cc:Agent>
      <dc:title>Matplotlib v3.4.2, https://matplotlib.org/</dc:title>
     </cc:Agent>
    </dc:creator>
   </cc:Work>
  </rdf:RDF>
 </metadata>
 <defs>
  <style type="text/css">*{stroke-linecap:butt;stroke-linejoin:round;}</style>
 </defs>
 <g id="figure_1">
  <g id="patch_1">
   <path d="M 0 216 
L 1800 216 
L 1800 0 
L 0 0 
z
" style="fill:#ffffff;"/>
  </g>
  <g id="axes_1">
   <g id="patch_2">
    <path d="M 225 189 
L 465.517241 189 
L 465.517241 25.92 
L 225 25.92 
z
" style="fill:#ffffff;"/>
   </g>
   <g id="matplotlib.axis_1">
    <g id="xtick_1">
     <g id="text_1">
      <!-- 0 -->
      <g style="fill:#262626;" transform="translate(232.874086 206.373594)scale(0.11 -0.11)">
       <defs>
        <path d="M 266 2259 
Q 266 3072 433 3567 
Q 600 4063 929 4331 
Q 1259 4600 1759 4600 
Q 2128 4600 2406 4451 
Q 2684 4303 2865 4023 
Q 3047 3744 3150 3342 
Q 3253 2941 3253 2259 
Q 3253 1453 3087 958 
Q 2922 463 2592 192 
Q 2263 -78 1759 -78 
Q 1097 -78 719 397 
Q 266 969 266 2259 
z
M 844 2259 
Q 844 1131 1108 757 
Q 1372 384 1759 384 
Q 2147 384 2411 759 
Q 2675 1134 2675 2259 
Q 2675 3391 2411 3762 
Q 2147 4134 1753 4134 
Q 1366 4134 1134 3806 
Q 844 3388 844 2259 
z
" id="ArialMT-30" transform="scale(0.015625)"/>
       </defs>
       <use xlink:href="#ArialMT-30"/>
      </g>
     </g>
    </g>
    <g id="xtick_2">
     <g id="text_2">
      <!-- 500 -->
      <g style="fill:#262626;" transform="translate(270.488337 206.373594)scale(0.11 -0.11)">
       <defs>
        <path d="M 266 1200 
L 856 1250 
Q 922 819 1161 601 
Q 1400 384 1738 384 
Q 2144 384 2425 690 
Q 2706 997 2706 1503 
Q 2706 1984 2436 2262 
Q 2166 2541 1728 2541 
Q 1456 2541 1237 2417 
Q 1019 2294 894 2097 
L 366 2166 
L 809 4519 
L 3088 4519 
L 3088 3981 
L 1259 3981 
L 1013 2750 
Q 1425 3038 1878 3038 
Q 2478 3038 2890 2622 
Q 3303 2206 3303 1553 
Q 3303 931 2941 478 
Q 2500 -78 1738 -78 
Q 1113 -78 717 272 
Q 322 622 266 1200 
z
" id="ArialMT-35" transform="scale(0.015625)"/>
       </defs>
       <use xlink:href="#ArialMT-35"/>
       <use x="55.615234" xlink:href="#ArialMT-30"/>
       <use x="111.230469" xlink:href="#ArialMT-30"/>
      </g>
     </g>
    </g>
    <g id="xtick_3">
     <g id="text_3">
      <!-- 1000 -->
      <g style="fill:#262626;" transform="translate(311.161104 206.373594)scale(0.11 -0.11)">
       <defs>
        <path d="M 2384 0 
L 1822 0 
L 1822 3584 
Q 1619 3391 1289 3197 
Q 959 3003 697 2906 
L 697 3450 
Q 1169 3672 1522 3987 
Q 1875 4303 2022 4600 
L 2384 4600 
L 2384 0 
z
" id="ArialMT-31" transform="scale(0.015625)"/>
       </defs>
       <use xlink:href="#ArialMT-31"/>
       <use x="55.615234" xlink:href="#ArialMT-30"/>
       <use x="111.230469" xlink:href="#ArialMT-30"/>
       <use x="166.845703" xlink:href="#ArialMT-30"/>
      </g>
     </g>
    </g>
    <g id="xtick_4">
     <g id="text_4">
      <!-- 1500 -->
      <g style="fill:#262626;" transform="translate(354.892386 206.373594)scale(0.11 -0.11)">
       <use xlink:href="#ArialMT-31"/>
       <use x="55.615234" xlink:href="#ArialMT-35"/>
       <use x="111.230469" xlink:href="#ArialMT-30"/>
       <use x="166.845703" xlink:href="#ArialMT-30"/>
      </g>
     </g>
    </g>
    <g id="xtick_5">
     <g id="text_5">
      <!-- 2000 -->
      <g style="fill:#262626;" transform="translate(398.623668 206.373594)scale(0.11 -0.11)">
       <defs>
        <path d="M 3222 541 
L 3222 0 
L 194 0 
Q 188 203 259 391 
Q 375 700 629 1000 
Q 884 1300 1366 1694 
Q 2113 2306 2375 2664 
Q 2638 3022 2638 3341 
Q 2638 3675 2398 3904 
Q 2159 4134 1775 4134 
Q 1369 4134 1125 3890 
Q 881 3647 878 3216 
L 300 3275 
Q 359 3922 746 4261 
Q 1134 4600 1788 4600 
Q 2447 4600 2831 4234 
Q 3216 3869 3216 3328 
Q 3216 3053 3103 2787 
Q 2991 2522 2730 2228 
Q 2469 1934 1863 1422 
Q 1356 997 1212 845 
Q 1069 694 975 541 
L 3222 541 
z
" id="ArialMT-32" transform="scale(0.015625)"/>
       </defs>
       <use xlink:href="#ArialMT-32"/>
       <use x="55.615234" xlink:href="#ArialMT-30"/>
       <use x="111.230469" xlink:href="#ArialMT-30"/>
       <use x="166.845703" xlink:href="#ArialMT-30"/>
      </g>
     </g>
    </g>
    <g id="xtick_6">
     <g id="text_6">
      <!-- 2500 -->
      <g style="fill:#262626;" transform="translate(442.35495 206.373594)scale(0.11 -0.11)">
       <use xlink:href="#ArialMT-32"/>
       <use x="55.615234" xlink:href="#ArialMT-35"/>
       <use x="111.230469" xlink:href="#ArialMT-30"/>
       <use x="166.845703" xlink:href="#ArialMT-30"/>
      </g>
     </g>
    </g>
    <g id="text_7">
     <!-- m/z -->
     <g style="fill:#262626;" transform="translate(335.593933 221.149219)scale(0.12 -0.12)">
      <defs>
       <path d="M 422 0 
L 422 3319 
L 925 3319 
L 925 2853 
Q 1081 3097 1340 3245 
Q 1600 3394 1931 3394 
Q 2300 3394 2536 3241 
Q 2772 3088 2869 2813 
Q 3263 3394 3894 3394 
Q 4388 3394 4653 3120 
Q 4919 2847 4919 2278 
L 4919 0 
L 4359 0 
L 4359 2091 
Q 4359 2428 4304 2576 
Q 4250 2725 4106 2815 
Q 3963 2906 3769 2906 
Q 3419 2906 3187 2673 
Q 2956 2441 2956 1928 
L 2956 0 
L 2394 0 
L 2394 2156 
Q 2394 2531 2256 2718 
Q 2119 2906 1806 2906 
Q 1569 2906 1367 2781 
Q 1166 2656 1075 2415 
Q 984 2175 984 1722 
L 984 0 
L 422 0 
z
" id="ArialMT-6d" transform="scale(0.015625)"/>
       <path d="M 0 -78 
L 1328 4659 
L 1778 4659 
L 453 -78 
L 0 -78 
z
" id="ArialMT-2f" transform="scale(0.015625)"/>
       <path d="M 125 0 
L 125 456 
L 2238 2881 
Q 1878 2863 1603 2863 
L 250 2863 
L 250 3319 
L 2963 3319 
L 2963 2947 
L 1166 841 
L 819 456 
Q 1197 484 1528 484 
L 3063 484 
L 3063 0 
L 125 0 
z
" id="ArialMT-7a" transform="scale(0.015625)"/>
      </defs>
      <use xlink:href="#ArialMT-6d"/>
      <use x="83.300781" xlink:href="#ArialMT-2f"/>
      <use x="111.083984" xlink:href="#ArialMT-7a"/>
     </g>
    </g>
   </g>
   <g id="matplotlib.axis_2">
    <g id="ytick_1">
     <g id="text_8">
      <!-- 0 -->
      <g style="fill:#262626;" transform="translate(209.382969 192.936797)scale(0.11 -0.11)">
       <use xlink:href="#ArialMT-30"/>
      </g>
     </g>
    </g>
    <g id="ytick_2">
     <g id="text_9">
      <!-- 20 -->
      <g style="fill:#262626;" transform="translate(203.265938 160.320797)scale(0.11 -0.11)">
       <use xlink:href="#ArialMT-32"/>
       <use x="55.615234" xlink:href="#ArialMT-30"/>
      </g>
     </g>
    </g>
    <g id="ytick_3">
     <g id="text_10">
      <!-- 40 -->
      <g style="fill:#262626;" transform="translate(203.265938 127.704797)scale(0.11 -0.11)">
       <defs>
        <path d="M 2069 0 
L 2069 1097 
L 81 1097 
L 81 1613 
L 2172 4581 
L 2631 4581 
L 2631 1613 
L 3250 1613 
L 3250 1097 
L 2631 1097 
L 2631 0 
L 2069 0 
z
M 2069 1613 
L 2069 3678 
L 634 1613 
L 2069 1613 
z
" id="ArialMT-34" transform="scale(0.015625)"/>
       </defs>
       <use xlink:href="#ArialMT-34"/>
       <use x="55.615234" xlink:href="#ArialMT-30"/>
      </g>
     </g>
    </g>
    <g id="ytick_4">
     <g id="text_11">
      <!-- 60 -->
      <g style="fill:#262626;" transform="translate(203.265938 95.088797)scale(0.11 -0.11)">
       <defs>
        <path d="M 3184 3459 
L 2625 3416 
Q 2550 3747 2413 3897 
Q 2184 4138 1850 4138 
Q 1581 4138 1378 3988 
Q 1113 3794 959 3422 
Q 806 3050 800 2363 
Q 1003 2672 1297 2822 
Q 1591 2972 1913 2972 
Q 2475 2972 2870 2558 
Q 3266 2144 3266 1488 
Q 3266 1056 3080 686 
Q 2894 316 2569 119 
Q 2244 -78 1831 -78 
Q 1128 -78 684 439 
Q 241 956 241 2144 
Q 241 3472 731 4075 
Q 1159 4600 1884 4600 
Q 2425 4600 2770 4297 
Q 3116 3994 3184 3459 
z
M 888 1484 
Q 888 1194 1011 928 
Q 1134 663 1356 523 
Q 1578 384 1822 384 
Q 2178 384 2434 671 
Q 2691 959 2691 1453 
Q 2691 1928 2437 2201 
Q 2184 2475 1800 2475 
Q 1419 2475 1153 2201 
Q 888 1928 888 1484 
z
" id="ArialMT-36" transform="scale(0.015625)"/>
       </defs>
       <use xlink:href="#ArialMT-36"/>
       <use x="55.615234" xlink:href="#ArialMT-30"/>
      </g>
     </g>
    </g>
    <g id="ytick_5">
     <g id="text_12">
      <!-- 80 -->
      <g style="fill:#262626;" transform="translate(203.265938 62.472797)scale(0.11 -0.11)">
       <defs>
        <path d="M 1131 2484 
Q 781 2613 612 2850 
Q 444 3088 444 3419 
Q 444 3919 803 4259 
Q 1163 4600 1759 4600 
Q 2359 4600 2725 4251 
Q 3091 3903 3091 3403 
Q 3091 3084 2923 2848 
Q 2756 2613 2416 2484 
Q 2838 2347 3058 2040 
Q 3278 1734 3278 1309 
Q 3278 722 2862 322 
Q 2447 -78 1769 -78 
Q 1091 -78 675 323 
Q 259 725 259 1325 
Q 259 1772 486 2073 
Q 713 2375 1131 2484 
z
M 1019 3438 
Q 1019 3113 1228 2906 
Q 1438 2700 1772 2700 
Q 2097 2700 2305 2904 
Q 2513 3109 2513 3406 
Q 2513 3716 2298 3927 
Q 2084 4138 1766 4138 
Q 1444 4138 1231 3931 
Q 1019 3725 1019 3438 
z
M 838 1322 
Q 838 1081 952 856 
Q 1066 631 1291 507 
Q 1516 384 1775 384 
Q 2178 384 2440 643 
Q 2703 903 2703 1303 
Q 2703 1709 2433 1975 
Q 2163 2241 1756 2241 
Q 1359 2241 1098 1978 
Q 838 1716 838 1322 
z
" id="ArialMT-38" transform="scale(0.015625)"/>
       </defs>
       <use xlink:href="#ArialMT-38"/>
       <use x="55.615234" xlink:href="#ArialMT-30"/>
      </g>
     </g>
    </g>
    <g id="ytick_6">
     <g id="text_13">
      <!-- 100 -->
      <g style="fill:#262626;" transform="translate(197.148906 29.856797)scale(0.11 -0.11)">
       <use xlink:href="#ArialMT-31"/>
       <use x="55.615234" xlink:href="#ArialMT-30"/>
       <use x="111.230469" xlink:href="#ArialMT-30"/>
      </g>
     </g>
    </g>
    <g id="text_14">
     <!-- Intensity [%] -->
     <g style="fill:#262626;" transform="translate(190.623281 140.139375)rotate(-90)scale(0.12 -0.12)">
      <defs>
       <path d="M 597 0 
L 597 4581 
L 1203 4581 
L 1203 0 
L 597 0 
z
" id="ArialMT-49" transform="scale(0.015625)"/>
       <path d="M 422 0 
L 422 3319 
L 928 3319 
L 928 2847 
Q 1294 3394 1984 3394 
Q 2284 3394 2536 3286 
Q 2788 3178 2913 3003 
Q 3038 2828 3088 2588 
Q 3119 2431 3119 2041 
L 3119 0 
L 2556 0 
L 2556 2019 
Q 2556 2363 2490 2533 
Q 2425 2703 2258 2804 
Q 2091 2906 1866 2906 
Q 1506 2906 1245 2678 
Q 984 2450 984 1813 
L 984 0 
L 422 0 
z
" id="ArialMT-6e" transform="scale(0.015625)"/>
       <path d="M 1650 503 
L 1731 6 
Q 1494 -44 1306 -44 
Q 1000 -44 831 53 
Q 663 150 594 308 
Q 525 466 525 972 
L 525 2881 
L 113 2881 
L 113 3319 
L 525 3319 
L 525 4141 
L 1084 4478 
L 1084 3319 
L 1650 3319 
L 1650 2881 
L 1084 2881 
L 1084 941 
Q 1084 700 1114 631 
Q 1144 563 1211 522 
Q 1278 481 1403 481 
Q 1497 481 1650 503 
z
" id="ArialMT-74" transform="scale(0.015625)"/>
       <path d="M 2694 1069 
L 3275 997 
Q 3138 488 2766 206 
Q 2394 -75 1816 -75 
Q 1088 -75 661 373 
Q 234 822 234 1631 
Q 234 2469 665 2931 
Q 1097 3394 1784 3394 
Q 2450 3394 2872 2941 
Q 3294 2488 3294 1666 
Q 3294 1616 3291 1516 
L 816 1516 
Q 847 969 1125 678 
Q 1403 388 1819 388 
Q 2128 388 2347 550 
Q 2566 713 2694 1069 
z
M 847 1978 
L 2700 1978 
Q 2663 2397 2488 2606 
Q 2219 2931 1791 2931 
Q 1403 2931 1139 2672 
Q 875 2413 847 1978 
z
" id="ArialMT-65" transform="scale(0.015625)"/>
       <path d="M 197 991 
L 753 1078 
Q 800 744 1014 566 
Q 1228 388 1613 388 
Q 2000 388 2187 545 
Q 2375 703 2375 916 
Q 2375 1106 2209 1216 
Q 2094 1291 1634 1406 
Q 1016 1563 777 1677 
Q 538 1791 414 1992 
Q 291 2194 291 2438 
Q 291 2659 392 2848 
Q 494 3038 669 3163 
Q 800 3259 1026 3326 
Q 1253 3394 1513 3394 
Q 1903 3394 2198 3281 
Q 2494 3169 2634 2976 
Q 2775 2784 2828 2463 
L 2278 2388 
Q 2241 2644 2061 2787 
Q 1881 2931 1553 2931 
Q 1166 2931 1000 2803 
Q 834 2675 834 2503 
Q 834 2394 903 2306 
Q 972 2216 1119 2156 
Q 1203 2125 1616 2013 
Q 2213 1853 2448 1751 
Q 2684 1650 2818 1456 
Q 2953 1263 2953 975 
Q 2953 694 2789 445 
Q 2625 197 2315 61 
Q 2006 -75 1616 -75 
Q 969 -75 630 194 
Q 291 463 197 991 
z
" id="ArialMT-73" transform="scale(0.015625)"/>
       <path d="M 425 3934 
L 425 4581 
L 988 4581 
L 988 3934 
L 425 3934 
z
M 425 0 
L 425 3319 
L 988 3319 
L 988 0 
L 425 0 
z
" id="ArialMT-69" transform="scale(0.015625)"/>
       <path d="M 397 -1278 
L 334 -750 
Q 519 -800 656 -800 
Q 844 -800 956 -737 
Q 1069 -675 1141 -563 
Q 1194 -478 1313 -144 
Q 1328 -97 1363 -6 
L 103 3319 
L 709 3319 
L 1400 1397 
Q 1534 1031 1641 628 
Q 1738 1016 1872 1384 
L 2581 3319 
L 3144 3319 
L 1881 -56 
Q 1678 -603 1566 -809 
Q 1416 -1088 1222 -1217 
Q 1028 -1347 759 -1347 
Q 597 -1347 397 -1278 
z
" id="ArialMT-79" transform="scale(0.015625)"/>
       <path id="ArialMT-20" transform="scale(0.015625)"/>
       <path d="M 434 -1272 
L 434 4581 
L 1675 4581 
L 1675 4116 
L 997 4116 
L 997 -806 
L 1675 -806 
L 1675 -1272 
L 434 -1272 
z
" id="ArialMT-5b" transform="scale(0.015625)"/>
       <path d="M 372 3481 
Q 372 3972 619 4315 
Q 866 4659 1334 4659 
Q 1766 4659 2048 4351 
Q 2331 4044 2331 3447 
Q 2331 2866 2045 2552 
Q 1759 2238 1341 2238 
Q 925 2238 648 2547 
Q 372 2856 372 3481 
z
M 1350 4272 
Q 1141 4272 1002 4090 
Q 863 3909 863 3425 
Q 863 2984 1003 2804 
Q 1144 2625 1350 2625 
Q 1563 2625 1702 2806 
Q 1841 2988 1841 3469 
Q 1841 3913 1700 4092 
Q 1559 4272 1350 4272 
z
M 1353 -169 
L 3859 4659 
L 4316 4659 
L 1819 -169 
L 1353 -169 
z
M 3334 1075 
Q 3334 1569 3581 1911 
Q 3828 2253 4300 2253 
Q 4731 2253 5014 1945 
Q 5297 1638 5297 1041 
Q 5297 459 5011 145 
Q 4725 -169 4303 -169 
Q 3888 -169 3611 142 
Q 3334 453 3334 1075 
z
M 4316 1866 
Q 4103 1866 3964 1684 
Q 3825 1503 3825 1019 
Q 3825 581 3965 400 
Q 4106 219 4313 219 
Q 4528 219 4667 400 
Q 4806 581 4806 1063 
Q 4806 1506 4665 1686 
Q 4525 1866 4316 1866 
z
" id="ArialMT-25" transform="scale(0.015625)"/>
       <path d="M 1363 -1272 
L 122 -1272 
L 122 -806 
L 800 -806 
L 800 4116 
L 122 4116 
L 122 4581 
L 1363 4581 
L 1363 -1272 
z
" id="ArialMT-5d" transform="scale(0.015625)"/>
      </defs>
      <use xlink:href="#ArialMT-49"/>
      <use x="27.783203" xlink:href="#ArialMT-6e"/>
      <use x="83.398438" xlink:href="#ArialMT-74"/>
      <use x="111.181641" xlink:href="#ArialMT-65"/>
      <use x="166.796875" xlink:href="#ArialMT-6e"/>
      <use x="222.412109" xlink:href="#ArialMT-73"/>
      <use x="272.412109" xlink:href="#ArialMT-69"/>
      <use x="294.628906" xlink:href="#ArialMT-74"/>
      <use x="322.412109" xlink:href="#ArialMT-79"/>
      <use x="372.412109" xlink:href="#ArialMT-20"/>
      <use x="400.195312" xlink:href="#ArialMT-5b"/>
      <use x="427.978516" xlink:href="#ArialMT-25"/>
      <use x="516.894531" xlink:href="#ArialMT-5d"/>
     </g>
    </g>
   </g>
   <g id="line2d_1">
    <path clip-path="url(#p197d45c9e9)" d="M 235.932602 189 
L 251.942624 189 
L 251.946997 188.659222 
L 252.051952 189 
L 252.200639 189 
L 252.205012 188.766792 
L 252.309967 189 
L 252.463027 189 
L 252.4674 188.582443 
L 252.572355 189 
L 253.079638 189 
L 253.084011 188.598866 
L 253.188966 189 
L 253.866801 189 
L 253.871174 188.675233 
L 253.976129 189 
L 254.129188 189 
L 254.221024 186.594019 
L 254.238517 189 
L 254.304114 189 
L 254.308487 188.597223 
L 254.413442 189 
L 254.741426 189 
L 254.745799 188.80826 
L 254.850755 189 
L 255.353664 189 
L 255.358037 188.079487 
L 255.462992 189 
L 255.790977 189 
L 255.79535 188.795532 
L 255.900305 189 
L 255.965902 189 
L 256.053365 188.501559 
L 256.07523 189 
L 256.140827 189 
L 256.1452 188.776235 
L 256.250156 189 
L 257.273468 189 
L 257.277841 185.116762 
L 257.382796 189 
L 257.448393 189 
L 257.452766 188.223188 
L 257.557721 189 
L 257.715154 189 
L 257.719527 186.201506 
L 257.824482 189 
L 257.890079 189 
L 257.894452 188.78609 
L 257.999407 189 
L 258.239929 189 
L 258.244302 188.198553 
L 258.349257 189 
L 258.410481 189 
L 258.502317 187.799883 
L 258.519809 189 
L 258.672869 189 
L 258.677242 188.720807 
L 258.782197 189 
L 259.114555 189 
L 259.118928 188.699047 
L 259.223883 189 
L 259.55624 189 
L 259.560614 188.742157 
L 259.665569 189 
L 260.776343 189 
L 260.868179 186.004429 
L 260.885671 189 
L 260.951268 189 
L 260.955642 188.439974 
L 261.060597 189 
L 261.213656 189 
L 261.309865 185.439476 
L 261.322984 189 
L 261.392954 189 
L 261.397327 170.999068 
L 261.502283 189 
L 262.088282 189 
L 262.092655 188.577517 
L 262.19761 189 
L 262.70052 189 
L 262.704893 188.781983 
L 262.809848 189 
L 262.962907 189 
L 262.967281 187.709556 
L 263.072236 189 
L 263.137833 189 
L 263.142206 188.506076 
L 263.247161 189 
L 264.362308 189 
L 264.366682 188.440794 
L 264.449771 189 
L 264.454144 25.92 
L 264.559099 189 
L 264.624696 189 
L 264.629069 150.350732 
L 264.734024 189 
L 454.584639 189 
L 454.584639 189 
" style="fill:none;stroke:#ff0000;stroke-linecap:round;stroke-width:0.5;"/>
   </g>
   <g id="patch_3">
    <path d="M 225 189 
L 225 25.92 
" style="fill:none;stroke:#262626;stroke-linecap:square;stroke-linejoin:miter;stroke-width:1.25;"/>
   </g>
   <g id="patch_4">
    <path d="M 465.517241 189 
L 465.517241 25.92 
" style="fill:none;stroke:#262626;stroke-linecap:square;stroke-linejoin:miter;stroke-width:1.25;"/>
   </g>
   <g id="patch_5">
    <path d="M 225 189 
L 465.517241 189 
" style="fill:none;stroke:#262626;stroke-linecap:square;stroke-linejoin:miter;stroke-width:1.25;"/>
   </g>
   <g id="patch_6">
    <path d="M 225 25.92 
L 465.517241 25.92 
" style="fill:none;stroke:#262626;stroke-linecap:square;stroke-linejoin:miter;stroke-width:1.25;"/>
   </g>
  </g>
  <g id="axes_2">
   <g id="patch_7">
    <path d="M 513.62069 189 
L 754.137931 189 
L 754.137931 25.92 
L 513.62069 25.92 
z
" style="fill:#ffffff;"/>
   </g>
   <g id="matplotlib.axis_3">
    <g id="xtick_7">
     <g id="text_15">
      <!-- 0 -->
      <g style="fill:#262626;" transform="translate(521.494776 206.373594)scale(0.11 -0.11)">
       <use xlink:href="#ArialMT-30"/>
      </g>
     </g>
    </g>
    <g id="xtick_8">
     <g id="text_16">
      <!-- 500 -->
      <g style="fill:#262626;" transform="translate(559.109027 206.373594)scale(0.11 -0.11)">
       <use xlink:href="#ArialMT-35"/>
       <use x="55.615234" xlink:href="#ArialMT-30"/>
       <use x="111.230469" xlink:href="#ArialMT-30"/>
      </g>
     </g>
    </g>
    <g id="xtick_9">
     <g id="text_17">
      <!-- 1000 -->
      <g style="fill:#262626;" transform="translate(599.781793 206.373594)scale(0.11 -0.11)">
       <use xlink:href="#ArialMT-31"/>
       <use x="55.615234" xlink:href="#ArialMT-30"/>
       <use x="111.230469" xlink:href="#ArialMT-30"/>
       <use x="166.845703" xlink:href="#ArialMT-30"/>
      </g>
     </g>
    </g>
    <g id="xtick_10">
     <g id="text_18">
      <!-- 1500 -->
      <g style="fill:#262626;" transform="translate(643.513075 206.373594)scale(0.11 -0.11)">
       <use xlink:href="#ArialMT-31"/>
       <use x="55.615234" xlink:href="#ArialMT-35"/>
       <use x="111.230469" xlink:href="#ArialMT-30"/>
       <use x="166.845703" xlink:href="#ArialMT-30"/>
      </g>
     </g>
    </g>
    <g id="xtick_11">
     <g id="text_19">
      <!-- 2000 -->
      <g style="fill:#262626;" transform="translate(687.244358 206.373594)scale(0.11 -0.11)">
       <use xlink:href="#ArialMT-32"/>
       <use x="55.615234" xlink:href="#ArialMT-30"/>
       <use x="111.230469" xlink:href="#ArialMT-30"/>
       <use x="166.845703" xlink:href="#ArialMT-30"/>
      </g>
     </g>
    </g>
    <g id="xtick_12">
     <g id="text_20">
      <!-- 2500 -->
      <g style="fill:#262626;" transform="translate(730.97564 206.373594)scale(0.11 -0.11)">
       <use xlink:href="#ArialMT-32"/>
       <use x="55.615234" xlink:href="#ArialMT-35"/>
       <use x="111.230469" xlink:href="#ArialMT-30"/>
       <use x="166.845703" xlink:href="#ArialMT-30"/>
      </g>
     </g>
    </g>
    <g id="text_21">
     <!-- m/z -->
     <g style="fill:#262626;" transform="translate(624.214623 221.149219)scale(0.12 -0.12)">
      <use xlink:href="#ArialMT-6d"/>
      <use x="83.300781" xlink:href="#ArialMT-2f"/>
      <use x="111.083984" xlink:href="#ArialMT-7a"/>
     </g>
    </g>
   </g>
   <g id="matplotlib.axis_4"/>
   <g id="line2d_2">
    <path clip-path="url(#p2261160efc)" d="M 524.553292 189 
L 536.338872 189 
L 536.343245 188.791598 
L 536.4482 189 
L 542.662415 189 
L 542.666789 188.539113 
L 542.771744 189 
L 543.799429 189 
L 543.895638 188.55314 
L 543.908757 189 
L 543.974354 189 
L 543.978727 188.789594 
L 544.083682 189 
L 544.149279 189 
L 544.153652 186.565312 
L 544.258607 189 
L 545.023905 189 
L 545.11574 188.571175 
L 545.133233 189 
L 545.378128 189 
L 545.382501 188.67337 
L 545.487456 189 
L 545.54868 189 
L 545.553053 188.725471 
L 545.658008 189 
L 546.248381 189 
L 546.344589 184.499335 
L 546.357709 189 
L 546.423306 189 
L 546.427679 180.253158 
L 546.532634 189 
L 546.602604 189 
L 546.606977 188.65734 
L 546.711932 189 
L 546.948081 189 
L 546.952454 185.178643 
L 547.057409 189 
L 547.564692 189 
L 547.569065 186.926007 
L 547.67402 189 
L 547.739617 189 
L 547.74399 188.69341 
L 547.848946 189 
L 548.614243 189 
L 548.706079 188.400846 
L 548.723571 189 
L 548.789168 189 
L 548.793541 187.753601 
L 548.898496 189 
L 548.964093 189 
L 548.968466 188.527089 
L 549.073421 189 
L 549.926181 189 
L 550.018017 184.725771 
L 550.03551 189 
L 550.101107 189 
L 550.10548 184.463264 
L 550.210435 189 
L 550.276032 189 
L 550.280405 188.697418 
L 550.38536 189 
L 551.417418 189 
L 551.421791 188.537109 
L 551.526746 189 
L 552.375133 189 
L 552.379506 188.330712 
L 552.462596 189 
L 552.466969 151.698178 
L 552.571924 189 
L 552.637521 189 
L 552.641894 186.607393 
L 552.746849 189 
L 553.748295 189 
L 553.861997 188.763545 
L 553.86637 189 
L 553.870743 25.92 
L 553.975698 189 
L 554.041295 189 
L 554.045668 185.607468 
L 554.150623 189 
L 554.154996 188.801618 
L 554.259951 189 
L 743.205329 189 
L 743.205329 189 
" style="fill:none;stroke:#ff0000;stroke-linecap:round;stroke-width:0.5;"/>
   </g>
   <g id="patch_8">
    <path d="M 513.62069 189 
L 513.62069 25.92 
" style="fill:none;stroke:#262626;stroke-linecap:square;stroke-linejoin:miter;stroke-width:1.25;"/>
   </g>
   <g id="patch_9">
    <path d="M 754.137931 189 
L 754.137931 25.92 
" style="fill:none;stroke:#262626;stroke-linecap:square;stroke-linejoin:miter;stroke-width:1.25;"/>
   </g>
   <g id="patch_10">
    <path d="M 513.62069 189 
L 754.137931 189 
" style="fill:none;stroke:#262626;stroke-linecap:square;stroke-linejoin:miter;stroke-width:1.25;"/>
   </g>
   <g id="patch_11">
    <path d="M 513.62069 25.92 
L 754.137931 25.92 
" style="fill:none;stroke:#262626;stroke-linecap:square;stroke-linejoin:miter;stroke-width:1.25;"/>
   </g>
  </g>
  <g id="axes_3">
   <g id="patch_12">
    <path d="M 802.241379 189 
L 1042.758621 189 
L 1042.758621 25.92 
L 802.241379 25.92 
z
" style="fill:#ffffff;"/>
   </g>
   <g id="matplotlib.axis_5">
    <g id="xtick_13">
     <g id="text_22">
      <!-- 0 -->
      <g style="fill:#262626;" transform="translate(810.115466 206.373594)scale(0.11 -0.11)">
       <use xlink:href="#ArialMT-30"/>
      </g>
     </g>
    </g>
    <g id="xtick_14">
     <g id="text_23">
      <!-- 500 -->
      <g style="fill:#262626;" transform="translate(847.729716 206.373594)scale(0.11 -0.11)">
       <use xlink:href="#ArialMT-35"/>
       <use x="55.615234" xlink:href="#ArialMT-30"/>
       <use x="111.230469" xlink:href="#ArialMT-30"/>
      </g>
     </g>
    </g>
    <g id="xtick_15">
     <g id="text_24">
      <!-- 1000 -->
      <g style="fill:#262626;" transform="translate(888.402483 206.373594)scale(0.11 -0.11)">
       <use xlink:href="#ArialMT-31"/>
       <use x="55.615234" xlink:href="#ArialMT-30"/>
       <use x="111.230469" xlink:href="#ArialMT-30"/>
       <use x="166.845703" xlink:href="#ArialMT-30"/>
      </g>
     </g>
    </g>
    <g id="xtick_16">
     <g id="text_25">
      <!-- 1500 -->
      <g style="fill:#262626;" transform="translate(932.133765 206.373594)scale(0.11 -0.11)">
       <use xlink:href="#ArialMT-31"/>
       <use x="55.615234" xlink:href="#ArialMT-35"/>
       <use x="111.230469" xlink:href="#ArialMT-30"/>
       <use x="166.845703" xlink:href="#ArialMT-30"/>
      </g>
     </g>
    </g>
    <g id="xtick_17">
     <g id="text_26">
      <!-- 2000 -->
      <g style="fill:#262626;" transform="translate(975.865047 206.373594)scale(0.11 -0.11)">
       <use xlink:href="#ArialMT-32"/>
       <use x="55.615234" xlink:href="#ArialMT-30"/>
       <use x="111.230469" xlink:href="#ArialMT-30"/>
       <use x="166.845703" xlink:href="#ArialMT-30"/>
      </g>
     </g>
    </g>
    <g id="xtick_18">
     <g id="text_27">
      <!-- 2500 -->
      <g style="fill:#262626;" transform="translate(1019.596329 206.373594)scale(0.11 -0.11)">
       <use xlink:href="#ArialMT-32"/>
       <use x="55.615234" xlink:href="#ArialMT-35"/>
       <use x="111.230469" xlink:href="#ArialMT-30"/>
       <use x="166.845703" xlink:href="#ArialMT-30"/>
      </g>
     </g>
    </g>
    <g id="text_28">
     <!-- m/z -->
     <g style="fill:#262626;" transform="translate(912.835313 221.149219)scale(0.12 -0.12)">
      <use xlink:href="#ArialMT-6d"/>
      <use x="83.300781" xlink:href="#ArialMT-2f"/>
      <use x="111.083984" xlink:href="#ArialMT-7a"/>
     </g>
    </g>
   </g>
   <g id="matplotlib.axis_6"/>
   <g id="line2d_3">
    <path clip-path="url(#pfb050ff4a6)" d="M 813.173981 189 
L 829.442018 189 
L 829.446391 188.089471 
L 829.551346 189 
L 830.233554 189 
L 830.237927 188.768969 
L 830.342883 189 
L 830.75833 189 
L 830.762703 184.243499 
L 830.867658 189 
L 831.807881 189 
L 831.812254 188.578711 
L 831.917209 189 
L 832.157731 189 
L 832.162104 186.5538 
L 832.267059 189 
L 832.940521 189 
L 832.944894 188.809739 
L 833.049849 189 
L 833.202908 189 
L 833.207282 25.92 
L 833.312237 189 
L 833.382207 189 
L 833.38658 187.233301 
L 833.491535 189 
L 834.16937 189 
L 834.173743 188.67384 
L 834.278698 189 
L 834.431757 189 
L 834.436131 188.646659 
L 834.541086 189 
L 835.131458 189 
L 835.135831 188.55153 
L 835.240786 189 
L 835.30201 189 
L 835.306383 188.605889 
L 835.411338 189 
L 835.481308 189 
L 835.490054 188.5923 
L 835.590636 189 
L 835.656233 189 
L 835.660606 188.809739 
L 835.765562 189 
L 835.831158 189 
L 835.835532 188.782561 
L 835.940487 189 
L 836.355934 189 
L 836.360307 188.782561 
L 836.465262 189 
L 836.618322 189 
L 836.622695 188.26614 
L 836.72765 189 
L 836.880709 189 
L 836.885082 188.782561 
L 836.990037 189 
L 837.93026 189 
L 837.934633 174.050999 
L 838.039588 189 
L 838.192648 189 
L 838.197021 188.442809 
L 838.301976 189 
L 838.892348 189 
L 838.984184 188.130241 
L 839.001676 189 
L 839.023542 189 
L 839.027915 188.605889 
L 839.13287 189 
L 839.508959 189 
L 839.513332 122.409002 
L 839.618288 189 
L 839.679511 189 
L 839.683884 188.22537 
L 839.78884 189 
L 840.379212 189 
L 840.383585 188.660251 
L 840.48854 189 
L 841.083285 189 
L 841.087659 176.2254 
L 841.192614 189 
L 841.210106 189 
L 841.214479 188.34768 
L 841.319434 189 
L 841.953538 189 
L 841.957911 186.9615 
L 842.062866 189 
L 842.570149 189 
L 842.574522 184.651199 
L 842.679477 189 
L 842.740701 189 
L 842.745074 186.825601 
L 842.850029 189 
L 845.976816 189 
L 845.981189 188.211781 
L 846.086144 189 
L 1031.826019 189 
L 1031.826019 189 
" style="fill:none;stroke:#ff0000;stroke-linecap:round;stroke-width:0.5;"/>
   </g>
   <g id="patch_13">
    <path d="M 802.241379 189 
L 802.241379 25.92 
" style="fill:none;stroke:#262626;stroke-linecap:square;stroke-linejoin:miter;stroke-width:1.25;"/>
   </g>
   <g id="patch_14">
    <path d="M 1042.758621 189 
L 1042.758621 25.92 
" style="fill:none;stroke:#262626;stroke-linecap:square;stroke-linejoin:miter;stroke-width:1.25;"/>
   </g>
   <g id="patch_15">
    <path d="M 802.241379 189 
L 1042.758621 189 
" style="fill:none;stroke:#262626;stroke-linecap:square;stroke-linejoin:miter;stroke-width:1.25;"/>
   </g>
   <g id="patch_16">
    <path d="M 802.241379 25.92 
L 1042.758621 25.92 
" style="fill:none;stroke:#262626;stroke-linecap:square;stroke-linejoin:miter;stroke-width:1.25;"/>
   </g>
  </g>
  <g id="axes_4">
   <g id="patch_17">
    <path d="M 1090.862069 189 
L 1331.37931 189 
L 1331.37931 25.92 
L 1090.862069 25.92 
z
" style="fill:#ffffff;"/>
   </g>
   <g id="matplotlib.axis_7">
    <g id="xtick_19">
     <g id="text_29">
      <!-- 0 -->
      <g style="fill:#262626;" transform="translate(1098.736155 206.373594)scale(0.11 -0.11)">
       <use xlink:href="#ArialMT-30"/>
      </g>
     </g>
    </g>
    <g id="xtick_20">
     <g id="text_30">
      <!-- 500 -->
      <g style="fill:#262626;" transform="translate(1136.350406 206.373594)scale(0.11 -0.11)">
       <use xlink:href="#ArialMT-35"/>
       <use x="55.615234" xlink:href="#ArialMT-30"/>
       <use x="111.230469" xlink:href="#ArialMT-30"/>
      </g>
     </g>
    </g>
    <g id="xtick_21">
     <g id="text_31">
      <!-- 1000 -->
      <g style="fill:#262626;" transform="translate(1177.023173 206.373594)scale(0.11 -0.11)">
       <use xlink:href="#ArialMT-31"/>
       <use x="55.615234" xlink:href="#ArialMT-30"/>
       <use x="111.230469" xlink:href="#ArialMT-30"/>
       <use x="166.845703" xlink:href="#ArialMT-30"/>
      </g>
     </g>
    </g>
    <g id="xtick_22">
     <g id="text_32">
      <!-- 1500 -->
      <g style="fill:#262626;" transform="translate(1220.754455 206.373594)scale(0.11 -0.11)">
       <use xlink:href="#ArialMT-31"/>
       <use x="55.615234" xlink:href="#ArialMT-35"/>
       <use x="111.230469" xlink:href="#ArialMT-30"/>
       <use x="166.845703" xlink:href="#ArialMT-30"/>
      </g>
     </g>
    </g>
    <g id="xtick_23">
     <g id="text_33">
      <!-- 2000 -->
      <g style="fill:#262626;" transform="translate(1264.485737 206.373594)scale(0.11 -0.11)">
       <use xlink:href="#ArialMT-32"/>
       <use x="55.615234" xlink:href="#ArialMT-30"/>
       <use x="111.230469" xlink:href="#ArialMT-30"/>
       <use x="166.845703" xlink:href="#ArialMT-30"/>
      </g>
     </g>
    </g>
    <g id="xtick_24">
     <g id="text_34">
      <!-- 2500 -->
      <g style="fill:#262626;" transform="translate(1308.217019 206.373594)scale(0.11 -0.11)">
       <use xlink:href="#ArialMT-32"/>
       <use x="55.615234" xlink:href="#ArialMT-35"/>
       <use x="111.230469" xlink:href="#ArialMT-30"/>
       <use x="166.845703" xlink:href="#ArialMT-30"/>
      </g>
     </g>
    </g>
    <g id="text_35">
     <!-- m/z -->
     <g style="fill:#262626;" transform="translate(1201.456002 221.149219)scale(0.12 -0.12)">
      <use xlink:href="#ArialMT-6d"/>
      <use x="83.300781" xlink:href="#ArialMT-2f"/>
      <use x="111.083984" xlink:href="#ArialMT-7a"/>
     </g>
    </g>
   </g>
   <g id="matplotlib.axis_8"/>
   <g id="line2d_4">
    <path clip-path="url(#p16cbfc9f38)" d="M 1101.794671 189 
L 1111.857239 189 
L 1111.861612 188.717413 
L 1111.966567 189 
L 1112.382014 189 
L 1112.386387 188.741773 
L 1112.491342 189 
L 1114.743503 189 
L 1114.747877 188.774956 
L 1114.852832 189 
L 1115.618129 189 
L 1115.622502 188.770873 
L 1115.727457 189 
L 1115.880517 189 
L 1115.88489 188.610616 
L 1115.989845 189 
L 1118.067081 189 
L 1118.158917 188.539806 
L 1118.176409 189 
L 1119.029169 189 
L 1119.033542 188.684258 
L 1119.138497 189 
L 1119.291557 189 
L 1119.29593 188.662842 
L 1119.400885 189 
L 1120.516033 189 
L 1120.607868 185.014485 
L 1120.625361 189 
L 1120.774047 189 
L 1120.77842 188.429822 
L 1120.883376 189 
L 1121.298823 189 
L 1121.303196 188.534946 
L 1121.408151 189 
L 1121.478121 189 
L 1121.482494 188.717351 
L 1121.587449 189 
L 1121.911061 189 
L 1122.002896 188.263284 
L 1122.020389 189 
L 1122.173448 189 
L 1122.265284 188.523361 
L 1122.282777 189 
L 1122.348373 189 
L 1122.352747 187.684241 
L 1122.457702 189 
L 1122.964985 189 
L 1123.05682 186.219556 
L 1123.074313 189 
L 1123.222999 189 
L 1123.227372 188.706136 
L 1123.332327 189 
L 1123.397924 189 
L 1123.402297 188.682787 
L 1123.507252 189 
L 1123.572849 189 
L 1123.664685 188.579524 
L 1123.682178 189 
L 1124.18946 189 
L 1124.281296 186.072156 
L 1124.298789 189 
L 1124.447475 189 
L 1124.539311 179.100202 
L 1124.556803 189 
L 1124.6224 189 
L 1124.626773 188.177084 
L 1124.731728 189 
L 1124.797325 189 
L 1124.801698 184.979109 
L 1124.906653 189 
L 1125.413936 189 
L 1125.505772 183.453771 
L 1125.523265 189 
L 1125.934339 189 
L 1126.026174 174.137112 
L 1126.043667 189 
L 1126.109264 189 
L 1126.113637 109.852587 
L 1126.218592 189 
L 1126.725875 189 
L 1126.81771 187.26946 
L 1126.835203 189 
L 1126.983889 189 
L 1126.988262 188.327639 
L 1127.093218 189 
L 1127.246277 189 
L 1127.25065 187.89239 
L 1127.355605 189 
L 1128.470753 189 
L 1128.475126 188.678114 
L 1128.558216 189 
L 1128.562589 131.792448 
L 1128.667544 189 
L 1129.695229 189 
L 1129.699602 188.769928 
L 1129.804557 189 
L 1129.874527 189 
L 1129.8789 25.92 
L 1129.983855 189 
L 1320.446708 189 
L 1320.446708 189 
" style="fill:none;stroke:#ff0000;stroke-linecap:round;stroke-width:0.5;"/>
   </g>
   <g id="patch_18">
    <path d="M 1090.862069 189 
L 1090.862069 25.92 
" style="fill:none;stroke:#262626;stroke-linecap:square;stroke-linejoin:miter;stroke-width:1.25;"/>
   </g>
   <g id="patch_19">
    <path d="M 1331.37931 189 
L 1331.37931 25.92 
" style="fill:none;stroke:#262626;stroke-linecap:square;stroke-linejoin:miter;stroke-width:1.25;"/>
   </g>
   <g id="patch_20">
    <path d="M 1090.862069 189 
L 1331.37931 189 
" style="fill:none;stroke:#262626;stroke-linecap:square;stroke-linejoin:miter;stroke-width:1.25;"/>
   </g>
   <g id="patch_21">
    <path d="M 1090.862069 25.92 
L 1331.37931 25.92 
" style="fill:none;stroke:#262626;stroke-linecap:square;stroke-linejoin:miter;stroke-width:1.25;"/>
   </g>
  </g>
  <g id="axes_5">
   <g id="patch_22">
    <path d="M 1379.482759 189 
L 1620 189 
L 1620 25.92 
L 1379.482759 25.92 
z
" style="fill:#ffffff;"/>
   </g>
   <g id="matplotlib.axis_9">
    <g id="xtick_25">
     <g id="text_36">
      <!-- 0 -->
      <g style="fill:#262626;" transform="translate(1387.356845 206.373594)scale(0.11 -0.11)">
       <use xlink:href="#ArialMT-30"/>
      </g>
     </g>
    </g>
    <g id="xtick_26">
     <g id="text_37">
      <!-- 500 -->
      <g style="fill:#262626;" transform="translate(1424.971096 206.373594)scale(0.11 -0.11)">
       <use xlink:href="#ArialMT-35"/>
       <use x="55.615234" xlink:href="#ArialMT-30"/>
       <use x="111.230469" xlink:href="#ArialMT-30"/>
      </g>
     </g>
    </g>
    <g id="xtick_27">
     <g id="text_38">
      <!-- 1000 -->
      <g style="fill:#262626;" transform="translate(1465.643862 206.373594)scale(0.11 -0.11)">
       <use xlink:href="#ArialMT-31"/>
       <use x="55.615234" xlink:href="#ArialMT-30"/>
       <use x="111.230469" xlink:href="#ArialMT-30"/>
       <use x="166.845703" xlink:href="#ArialMT-30"/>
      </g>
     </g>
    </g>
    <g id="xtick_28">
     <g id="text_39">
      <!-- 1500 -->
      <g style="fill:#262626;" transform="translate(1509.375144 206.373594)scale(0.11 -0.11)">
       <use xlink:href="#ArialMT-31"/>
       <use x="55.615234" xlink:href="#ArialMT-35"/>
       <use x="111.230469" xlink:href="#ArialMT-30"/>
       <use x="166.845703" xlink:href="#ArialMT-30"/>
      </g>
     </g>
    </g>
    <g id="xtick_29">
     <g id="text_40">
      <!-- 2000 -->
      <g style="fill:#262626;" transform="translate(1553.106427 206.373594)scale(0.11 -0.11)">
       <use xlink:href="#ArialMT-32"/>
       <use x="55.615234" xlink:href="#ArialMT-30"/>
       <use x="111.230469" xlink:href="#ArialMT-30"/>
       <use x="166.845703" xlink:href="#ArialMT-30"/>
      </g>
     </g>
    </g>
    <g id="xtick_30">
     <g id="text_41">
      <!-- 2500 -->
      <g style="fill:#262626;" transform="translate(1596.837709 206.373594)scale(0.11 -0.11)">
       <use xlink:href="#ArialMT-32"/>
       <use x="55.615234" xlink:href="#ArialMT-35"/>
       <use x="111.230469" xlink:href="#ArialMT-30"/>
       <use x="166.845703" xlink:href="#ArialMT-30"/>
      </g>
     </g>
    </g>
    <g id="text_42">
     <!-- m/z -->
     <g style="fill:#262626;" transform="translate(1490.076692 221.149219)scale(0.12 -0.12)">
      <use xlink:href="#ArialMT-6d"/>
      <use x="83.300781" xlink:href="#ArialMT-2f"/>
      <use x="111.083984" xlink:href="#ArialMT-7a"/>
     </g>
    </g>
   </g>
   <g id="matplotlib.axis_10"/>
   <g id="line2d_5">
    <path clip-path="url(#pe575c1c130)" d="M 1390.415361 189 
L 1396.454651 189 
L 1396.459024 188.615598 
L 1396.563979 189 
L 1397.106247 189 
L 1397.11062 188.848569 
L 1397.215575 189 
L 1397.346769 189 
L 1397.351142 188.860218 
L 1397.456097 189 
L 1398.370081 189 
L 1398.374454 188.819448 
L 1398.479409 189 
L 1401.816106 189 
L 1401.820479 188.854392 
L 1401.925434 189 
L 1404.151356 189 
L 1404.155729 188.854392 
L 1404.260684 189 
L 1405.200907 189 
L 1405.20528 188.691312 
L 1405.310235 189 
L 1406.600308 189 
L 1406.604681 188.825271 
L 1406.709636 189 
L 1407.649859 189 
L 1407.654232 188.126358 
L 1407.759187 189 
L 1407.824784 189 
L 1407.829157 188.75538 
L 1407.934112 189 
L 1407.999709 189 
L 1408.004082 188.778678 
L 1408.109037 189 
L 1408.874335 189 
L 1408.878708 188.801974 
L 1408.983663 189 
L 1409.04926 189 
L 1409.053633 188.417571 
L 1409.158588 189 
L 1409.224185 189 
L 1409.228558 188.71461 
L 1409.333513 189 
L 1409.394737 189 
L 1409.39911 188.784501 
L 1409.504065 189 
L 1409.569662 189 
L 1409.574035 188.761204 
L 1409.67899 189 
L 1409.744587 189 
L 1409.74896 188.301086 
L 1409.853915 189 
L 1410.098811 189 
L 1410.103184 188.1846 
L 1410.208139 189 
L 1410.273736 189 
L 1410.365571 187.718658 
L 1410.383064 189 
L 1410.444288 189 
L 1410.448661 188.242842 
L 1410.553616 189 
L 1410.619213 189 
L 1410.627959 185.155971 
L 1410.728541 189 
L 1410.794138 189 
L 1410.798511 188.359329 
L 1410.903466 189 
L 1410.973436 189 
L 1410.977809 188.737908 
L 1411.082764 189 
L 1411.323286 189 
L 1411.32766 188.831096 
L 1411.432615 189 
L 1411.493838 189 
L 1411.590047 183.175714 
L 1411.603167 189 
L 1411.673137 189 
L 1411.67751 176.768999 
L 1411.782465 189 
L 1411.848062 189 
L 1411.852435 188.615598 
L 1411.95739 189 
L 1412.722688 189 
L 1412.814523 188.068114 
L 1412.832016 189 
L 1412.897613 189 
L 1412.901986 169.779857 
L 1413.006941 189 
L 1413.072538 189 
L 1413.076911 185.039486 
L 1413.181866 189 
L 1414.122089 189 
L 1414.126462 187.718658 
L 1414.231417 189 
L 1414.297014 189 
L 1414.388849 176.768999 
L 1414.406342 189 
L 1415.700788 189 
L 1415.705161 25.92 
L 1415.810116 189 
L 1609.067398 189 
L 1609.067398 189 
" style="fill:none;stroke:#ff0000;stroke-linecap:round;stroke-width:0.5;"/>
   </g>
   <g id="patch_23">
    <path d="M 1379.482759 189 
L 1379.482759 25.92 
" style="fill:none;stroke:#262626;stroke-linecap:square;stroke-linejoin:miter;stroke-width:1.25;"/>
   </g>
   <g id="patch_24">
    <path d="M 1620 189 
L 1620 25.92 
" style="fill:none;stroke:#262626;stroke-linecap:square;stroke-linejoin:miter;stroke-width:1.25;"/>
   </g>
   <g id="patch_25">
    <path d="M 1379.482759 189 
L 1620 189 
" style="fill:none;stroke:#262626;stroke-linecap:square;stroke-linejoin:miter;stroke-width:1.25;"/>
   </g>
   <g id="patch_26">
    <path d="M 1379.482759 25.92 
L 1620 25.92 
" style="fill:none;stroke:#262626;stroke-linecap:square;stroke-linejoin:miter;stroke-width:1.25;"/>
   </g>
  </g>
 </g>
 <defs>
  <clipPath id="p197d45c9e9">
   <rect height="163.08" width="240.517241" x="225" y="25.92"/>
  </clipPath>
  <clipPath id="p2261160efc">
   <rect height="163.08" width="240.517241" x="513.62069" y="25.92"/>
  </clipPath>
  <clipPath id="pfb050ff4a6">
   <rect height="163.08" width="240.517241" x="802.241379" y="25.92"/>
  </clipPath>
  <clipPath id="p16cbfc9f38">
   <rect height="163.08" width="240.517241" x="1090.862069" y="25.92"/>
  </clipPath>
  <clipPath id="pe575c1c130">
   <rect height="163.08" width="240.517241" x="1379.482759" y="25.92"/>
  </clipPath>
 </defs>
</svg>
