<?xml version="1.0" encoding="utf-8" standalone="no"?>
<!DOCTYPE svg PUBLIC "-//W3C//DTD SVG 1.1//EN"
  "http://www.w3.org/Graphics/SVG/1.1/DTD/svg11.dtd">
<svg height="216pt" version="1.1" viewBox="0 0 1800 216" width="1800pt" xmlns="http://www.w3.org/2000/svg" xmlns:xlink="http://www.w3.org/1999/xlink">
 <metadata>
  <rdf:RDF xmlns:cc="http://creativecommons.org/ns#" xmlns:dc="http://purl.org/dc/elements/1.1/" xmlns:rdf="http://www.w3.org/1999/02/22-rdf-syntax-ns#">
   <cc:Work>
    <dc:type rdf:resource="http://purl.org/dc/dcmitype/StillImage"/>
    <dc:date>2022-05-16T21:27:25.614017</dc:date>
    <dc:format>image/svg+xml</dc:format>
    <dc:creator>
     <cc:Agent>
      <dc:title>Matplotlib v3.4.2, https://matplotlib.org/</dc:title>
     </cc:Agent>
    </dc:creator>
   </cc:Work>
  </rdf:RDF>
 </metadata>
 <defs>
  <style type="text/css">*{stroke-linecap:butt;stroke-linejoin:round;}</style>
 </defs>
 <g id="figure_1">
  <g id="patch_1">
   <path d="M 0 216 
L 1800 216 
L 1800 0 
L 0 0 
z
" style="fill:#ffffff;"/>
  </g>
  <g id="axes_1">
   <g id="patch_2">
    <path d="M 225 189 
L 465.517241 189 
L 465.517241 25.92 
L 225 25.92 
z
" style="fill:#ffffff;"/>
   </g>
   <g id="matplotlib.axis_1">
    <g id="xtick_1">
     <g id="text_1">
      <!-- 0 -->
      <g style="fill:#262626;" transform="translate(232.874086 206.373594)scale(0.11 -0.11)">
       <defs>
        <path d="M 266 2259 
Q 266 3072 433 3567 
Q 600 4063 929 4331 
Q 1259 4600 1759 4600 
Q 2128 4600 2406 4451 
Q 2684 4303 2865 4023 
Q 3047 3744 3150 3342 
Q 3253 2941 3253 2259 
Q 3253 1453 3087 958 
Q 2922 463 2592 192 
Q 2263 -78 1759 -78 
Q 1097 -78 719 397 
Q 266 969 266 2259 
z
M 844 2259 
Q 844 1131 1108 757 
Q 1372 384 1759 384 
Q 2147 384 2411 759 
Q 2675 1134 2675 2259 
Q 2675 3391 2411 3762 
Q 2147 4134 1753 4134 
Q 1366 4134 1134 3806 
Q 844 3388 844 2259 
z
" id="ArialMT-30" transform="scale(0.015625)"/>
       </defs>
       <use xlink:href="#ArialMT-30"/>
      </g>
     </g>
    </g>
    <g id="xtick_2">
     <g id="text_2">
      <!-- 500 -->
      <g style="fill:#262626;" transform="translate(270.488337 206.373594)scale(0.11 -0.11)">
       <defs>
        <path d="M 266 1200 
L 856 1250 
Q 922 819 1161 601 
Q 1400 384 1738 384 
Q 2144 384 2425 690 
Q 2706 997 2706 1503 
Q 2706 1984 2436 2262 
Q 2166 2541 1728 2541 
Q 1456 2541 1237 2417 
Q 1019 2294 894 2097 
L 366 2166 
L 809 4519 
L 3088 4519 
L 3088 3981 
L 1259 3981 
L 1013 2750 
Q 1425 3038 1878 3038 
Q 2478 3038 2890 2622 
Q 3303 2206 3303 1553 
Q 3303 931 2941 478 
Q 2500 -78 1738 -78 
Q 1113 -78 717 272 
Q 322 622 266 1200 
z
" id="ArialMT-35" transform="scale(0.015625)"/>
       </defs>
       <use xlink:href="#ArialMT-35"/>
       <use x="55.615234" xlink:href="#ArialMT-30"/>
       <use x="111.230469" xlink:href="#ArialMT-30"/>
      </g>
     </g>
    </g>
    <g id="xtick_3">
     <g id="text_3">
      <!-- 1000 -->
      <g style="fill:#262626;" transform="translate(311.161104 206.373594)scale(0.11 -0.11)">
       <defs>
        <path d="M 2384 0 
L 1822 0 
L 1822 3584 
Q 1619 3391 1289 3197 
Q 959 3003 697 2906 
L 697 3450 
Q 1169 3672 1522 3987 
Q 1875 4303 2022 4600 
L 2384 4600 
L 2384 0 
z
" id="ArialMT-31" transform="scale(0.015625)"/>
       </defs>
       <use xlink:href="#ArialMT-31"/>
       <use x="55.615234" xlink:href="#ArialMT-30"/>
       <use x="111.230469" xlink:href="#ArialMT-30"/>
       <use x="166.845703" xlink:href="#ArialMT-30"/>
      </g>
     </g>
    </g>
    <g id="xtick_4">
     <g id="text_4">
      <!-- 1500 -->
      <g style="fill:#262626;" transform="translate(354.892386 206.373594)scale(0.11 -0.11)">
       <use xlink:href="#ArialMT-31"/>
       <use x="55.615234" xlink:href="#ArialMT-35"/>
       <use x="111.230469" xlink:href="#ArialMT-30"/>
       <use x="166.845703" xlink:href="#ArialMT-30"/>
      </g>
     </g>
    </g>
    <g id="xtick_5">
     <g id="text_5">
      <!-- 2000 -->
      <g style="fill:#262626;" transform="translate(398.623668 206.373594)scale(0.11 -0.11)">
       <defs>
        <path d="M 3222 541 
L 3222 0 
L 194 0 
Q 188 203 259 391 
Q 375 700 629 1000 
Q 884 1300 1366 1694 
Q 2113 2306 2375 2664 
Q 2638 3022 2638 3341 
Q 2638 3675 2398 3904 
Q 2159 4134 1775 4134 
Q 1369 4134 1125 3890 
Q 881 3647 878 3216 
L 300 3275 
Q 359 3922 746 4261 
Q 1134 4600 1788 4600 
Q 2447 4600 2831 4234 
Q 3216 3869 3216 3328 
Q 3216 3053 3103 2787 
Q 2991 2522 2730 2228 
Q 2469 1934 1863 1422 
Q 1356 997 1212 845 
Q 1069 694 975 541 
L 3222 541 
z
" id="ArialMT-32" transform="scale(0.015625)"/>
       </defs>
       <use xlink:href="#ArialMT-32"/>
       <use x="55.615234" xlink:href="#ArialMT-30"/>
       <use x="111.230469" xlink:href="#ArialMT-30"/>
       <use x="166.845703" xlink:href="#ArialMT-30"/>
      </g>
     </g>
    </g>
    <g id="xtick_6">
     <g id="text_6">
      <!-- 2500 -->
      <g style="fill:#262626;" transform="translate(442.35495 206.373594)scale(0.11 -0.11)">
       <use xlink:href="#ArialMT-32"/>
       <use x="55.615234" xlink:href="#ArialMT-35"/>
       <use x="111.230469" xlink:href="#ArialMT-30"/>
       <use x="166.845703" xlink:href="#ArialMT-30"/>
      </g>
     </g>
    </g>
    <g id="text_7">
     <!-- m/z -->
     <g style="fill:#262626;" transform="translate(335.593933 221.149219)scale(0.12 -0.12)">
      <defs>
       <path d="M 422 0 
L 422 3319 
L 925 3319 
L 925 2853 
Q 1081 3097 1340 3245 
Q 1600 3394 1931 3394 
Q 2300 3394 2536 3241 
Q 2772 3088 2869 2813 
Q 3263 3394 3894 3394 
Q 4388 3394 4653 3120 
Q 4919 2847 4919 2278 
L 4919 0 
L 4359 0 
L 4359 2091 
Q 4359 2428 4304 2576 
Q 4250 2725 4106 2815 
Q 3963 2906 3769 2906 
Q 3419 2906 3187 2673 
Q 2956 2441 2956 1928 
L 2956 0 
L 2394 0 
L 2394 2156 
Q 2394 2531 2256 2718 
Q 2119 2906 1806 2906 
Q 1569 2906 1367 2781 
Q 1166 2656 1075 2415 
Q 984 2175 984 1722 
L 984 0 
L 422 0 
z
" id="ArialMT-6d" transform="scale(0.015625)"/>
       <path d="M 0 -78 
L 1328 4659 
L 1778 4659 
L 453 -78 
L 0 -78 
z
" id="ArialMT-2f" transform="scale(0.015625)"/>
       <path d="M 125 0 
L 125 456 
L 2238 2881 
Q 1878 2863 1603 2863 
L 250 2863 
L 250 3319 
L 2963 3319 
L 2963 2947 
L 1166 841 
L 819 456 
Q 1197 484 1528 484 
L 3063 484 
L 3063 0 
L 125 0 
z
" id="ArialMT-7a" transform="scale(0.015625)"/>
      </defs>
      <use xlink:href="#ArialMT-6d"/>
      <use x="83.300781" xlink:href="#ArialMT-2f"/>
      <use x="111.083984" xlink:href="#ArialMT-7a"/>
     </g>
    </g>
   </g>
   <g id="matplotlib.axis_2">
    <g id="ytick_1">
     <g id="text_8">
      <!-- 0 -->
      <g style="fill:#262626;" transform="translate(209.382969 192.936797)scale(0.11 -0.11)">
       <use xlink:href="#ArialMT-30"/>
      </g>
     </g>
    </g>
    <g id="ytick_2">
     <g id="text_9">
      <!-- 20 -->
      <g style="fill:#262626;" transform="translate(203.265938 160.320797)scale(0.11 -0.11)">
       <use xlink:href="#ArialMT-32"/>
       <use x="55.615234" xlink:href="#ArialMT-30"/>
      </g>
     </g>
    </g>
    <g id="ytick_3">
     <g id="text_10">
      <!-- 40 -->
      <g style="fill:#262626;" transform="translate(203.265938 127.704797)scale(0.11 -0.11)">
       <defs>
        <path d="M 2069 0 
L 2069 1097 
L 81 1097 
L 81 1613 
L 2172 4581 
L 2631 4581 
L 2631 1613 
L 3250 1613 
L 3250 1097 
L 2631 1097 
L 2631 0 
L 2069 0 
z
M 2069 1613 
L 2069 3678 
L 634 1613 
L 2069 1613 
z
" id="ArialMT-34" transform="scale(0.015625)"/>
       </defs>
       <use xlink:href="#ArialMT-34"/>
       <use x="55.615234" xlink:href="#ArialMT-30"/>
      </g>
     </g>
    </g>
    <g id="ytick_4">
     <g id="text_11">
      <!-- 60 -->
      <g style="fill:#262626;" transform="translate(203.265938 95.088797)scale(0.11 -0.11)">
       <defs>
        <path d="M 3184 3459 
L 2625 3416 
Q 2550 3747 2413 3897 
Q 2184 4138 1850 4138 
Q 1581 4138 1378 3988 
Q 1113 3794 959 3422 
Q 806 3050 800 2363 
Q 1003 2672 1297 2822 
Q 1591 2972 1913 2972 
Q 2475 2972 2870 2558 
Q 3266 2144 3266 1488 
Q 3266 1056 3080 686 
Q 2894 316 2569 119 
Q 2244 -78 1831 -78 
Q 1128 -78 684 439 
Q 241 956 241 2144 
Q 241 3472 731 4075 
Q 1159 4600 1884 4600 
Q 2425 4600 2770 4297 
Q 3116 3994 3184 3459 
z
M 888 1484 
Q 888 1194 1011 928 
Q 1134 663 1356 523 
Q 1578 384 1822 384 
Q 2178 384 2434 671 
Q 2691 959 2691 1453 
Q 2691 1928 2437 2201 
Q 2184 2475 1800 2475 
Q 1419 2475 1153 2201 
Q 888 1928 888 1484 
z
" id="ArialMT-36" transform="scale(0.015625)"/>
       </defs>
       <use xlink:href="#ArialMT-36"/>
       <use x="55.615234" xlink:href="#ArialMT-30"/>
      </g>
     </g>
    </g>
    <g id="ytick_5">
     <g id="text_12">
      <!-- 80 -->
      <g style="fill:#262626;" transform="translate(203.265938 62.472797)scale(0.11 -0.11)">
       <defs>
        <path d="M 1131 2484 
Q 781 2613 612 2850 
Q 444 3088 444 3419 
Q 444 3919 803 4259 
Q 1163 4600 1759 4600 
Q 2359 4600 2725 4251 
Q 3091 3903 3091 3403 
Q 3091 3084 2923 2848 
Q 2756 2613 2416 2484 
Q 2838 2347 3058 2040 
Q 3278 1734 3278 1309 
Q 3278 722 2862 322 
Q 2447 -78 1769 -78 
Q 1091 -78 675 323 
Q 259 725 259 1325 
Q 259 1772 486 2073 
Q 713 2375 1131 2484 
z
M 1019 3438 
Q 1019 3113 1228 2906 
Q 1438 2700 1772 2700 
Q 2097 2700 2305 2904 
Q 2513 3109 2513 3406 
Q 2513 3716 2298 3927 
Q 2084 4138 1766 4138 
Q 1444 4138 1231 3931 
Q 1019 3725 1019 3438 
z
M 838 1322 
Q 838 1081 952 856 
Q 1066 631 1291 507 
Q 1516 384 1775 384 
Q 2178 384 2440 643 
Q 2703 903 2703 1303 
Q 2703 1709 2433 1975 
Q 2163 2241 1756 2241 
Q 1359 2241 1098 1978 
Q 838 1716 838 1322 
z
" id="ArialMT-38" transform="scale(0.015625)"/>
       </defs>
       <use xlink:href="#ArialMT-38"/>
       <use x="55.615234" xlink:href="#ArialMT-30"/>
      </g>
     </g>
    </g>
    <g id="ytick_6">
     <g id="text_13">
      <!-- 100 -->
      <g style="fill:#262626;" transform="translate(197.148906 29.856797)scale(0.11 -0.11)">
       <use xlink:href="#ArialMT-31"/>
       <use x="55.615234" xlink:href="#ArialMT-30"/>
       <use x="111.230469" xlink:href="#ArialMT-30"/>
      </g>
     </g>
    </g>
    <g id="text_14">
     <!-- Intensity [%] -->
     <g style="fill:#262626;" transform="translate(190.623281 140.139375)rotate(-90)scale(0.12 -0.12)">
      <defs>
       <path d="M 597 0 
L 597 4581 
L 1203 4581 
L 1203 0 
L 597 0 
z
" id="ArialMT-49" transform="scale(0.015625)"/>
       <path d="M 422 0 
L 422 3319 
L 928 3319 
L 928 2847 
Q 1294 3394 1984 3394 
Q 2284 3394 2536 3286 
Q 2788 3178 2913 3003 
Q 3038 2828 3088 2588 
Q 3119 2431 3119 2041 
L 3119 0 
L 2556 0 
L 2556 2019 
Q 2556 2363 2490 2533 
Q 2425 2703 2258 2804 
Q 2091 2906 1866 2906 
Q 1506 2906 1245 2678 
Q 984 2450 984 1813 
L 984 0 
L 422 0 
z
" id="ArialMT-6e" transform="scale(0.015625)"/>
       <path d="M 1650 503 
L 1731 6 
Q 1494 -44 1306 -44 
Q 1000 -44 831 53 
Q 663 150 594 308 
Q 525 466 525 972 
L 525 2881 
L 113 2881 
L 113 3319 
L 525 3319 
L 525 4141 
L 1084 4478 
L 1084 3319 
L 1650 3319 
L 1650 2881 
L 1084 2881 
L 1084 941 
Q 1084 700 1114 631 
Q 1144 563 1211 522 
Q 1278 481 1403 481 
Q 1497 481 1650 503 
z
" id="ArialMT-74" transform="scale(0.015625)"/>
       <path d="M 2694 1069 
L 3275 997 
Q 3138 488 2766 206 
Q 2394 -75 1816 -75 
Q 1088 -75 661 373 
Q 234 822 234 1631 
Q 234 2469 665 2931 
Q 1097 3394 1784 3394 
Q 2450 3394 2872 2941 
Q 3294 2488 3294 1666 
Q 3294 1616 3291 1516 
L 816 1516 
Q 847 969 1125 678 
Q 1403 388 1819 388 
Q 2128 388 2347 550 
Q 2566 713 2694 1069 
z
M 847 1978 
L 2700 1978 
Q 2663 2397 2488 2606 
Q 2219 2931 1791 2931 
Q 1403 2931 1139 2672 
Q 875 2413 847 1978 
z
" id="ArialMT-65" transform="scale(0.015625)"/>
       <path d="M 197 991 
L 753 1078 
Q 800 744 1014 566 
Q 1228 388 1613 388 
Q 2000 388 2187 545 
Q 2375 703 2375 916 
Q 2375 1106 2209 1216 
Q 2094 1291 1634 1406 
Q 1016 1563 777 1677 
Q 538 1791 414 1992 
Q 291 2194 291 2438 
Q 291 2659 392 2848 
Q 494 3038 669 3163 
Q 800 3259 1026 3326 
Q 1253 3394 1513 3394 
Q 1903 3394 2198 3281 
Q 2494 3169 2634 2976 
Q 2775 2784 2828 2463 
L 2278 2388 
Q 2241 2644 2061 2787 
Q 1881 2931 1553 2931 
Q 1166 2931 1000 2803 
Q 834 2675 834 2503 
Q 834 2394 903 2306 
Q 972 2216 1119 2156 
Q 1203 2125 1616 2013 
Q 2213 1853 2448 1751 
Q 2684 1650 2818 1456 
Q 2953 1263 2953 975 
Q 2953 694 2789 445 
Q 2625 197 2315 61 
Q 2006 -75 1616 -75 
Q 969 -75 630 194 
Q 291 463 197 991 
z
" id="ArialMT-73" transform="scale(0.015625)"/>
       <path d="M 425 3934 
L 425 4581 
L 988 4581 
L 988 3934 
L 425 3934 
z
M 425 0 
L 425 3319 
L 988 3319 
L 988 0 
L 425 0 
z
" id="ArialMT-69" transform="scale(0.015625)"/>
       <path d="M 397 -1278 
L 334 -750 
Q 519 -800 656 -800 
Q 844 -800 956 -737 
Q 1069 -675 1141 -563 
Q 1194 -478 1313 -144 
Q 1328 -97 1363 -6 
L 103 3319 
L 709 3319 
L 1400 1397 
Q 1534 1031 1641 628 
Q 1738 1016 1872 1384 
L 2581 3319 
L 3144 3319 
L 1881 -56 
Q 1678 -603 1566 -809 
Q 1416 -1088 1222 -1217 
Q 1028 -1347 759 -1347 
Q 597 -1347 397 -1278 
z
" id="ArialMT-79" transform="scale(0.015625)"/>
       <path id="ArialMT-20" transform="scale(0.015625)"/>
       <path d="M 434 -1272 
L 434 4581 
L 1675 4581 
L 1675 4116 
L 997 4116 
L 997 -806 
L 1675 -806 
L 1675 -1272 
L 434 -1272 
z
" id="ArialMT-5b" transform="scale(0.015625)"/>
       <path d="M 372 3481 
Q 372 3972 619 4315 
Q 866 4659 1334 4659 
Q 1766 4659 2048 4351 
Q 2331 4044 2331 3447 
Q 2331 2866 2045 2552 
Q 1759 2238 1341 2238 
Q 925 2238 648 2547 
Q 372 2856 372 3481 
z
M 1350 4272 
Q 1141 4272 1002 4090 
Q 863 3909 863 3425 
Q 863 2984 1003 2804 
Q 1144 2625 1350 2625 
Q 1563 2625 1702 2806 
Q 1841 2988 1841 3469 
Q 1841 3913 1700 4092 
Q 1559 4272 1350 4272 
z
M 1353 -169 
L 3859 4659 
L 4316 4659 
L 1819 -169 
L 1353 -169 
z
M 3334 1075 
Q 3334 1569 3581 1911 
Q 3828 2253 4300 2253 
Q 4731 2253 5014 1945 
Q 5297 1638 5297 1041 
Q 5297 459 5011 145 
Q 4725 -169 4303 -169 
Q 3888 -169 3611 142 
Q 3334 453 3334 1075 
z
M 4316 1866 
Q 4103 1866 3964 1684 
Q 3825 1503 3825 1019 
Q 3825 581 3965 400 
Q 4106 219 4313 219 
Q 4528 219 4667 400 
Q 4806 581 4806 1063 
Q 4806 1506 4665 1686 
Q 4525 1866 4316 1866 
z
" id="ArialMT-25" transform="scale(0.015625)"/>
       <path d="M 1363 -1272 
L 122 -1272 
L 122 -806 
L 800 -806 
L 800 4116 
L 122 4116 
L 122 4581 
L 1363 4581 
L 1363 -1272 
z
" id="ArialMT-5d" transform="scale(0.015625)"/>
      </defs>
      <use xlink:href="#ArialMT-49"/>
      <use x="27.783203" xlink:href="#ArialMT-6e"/>
      <use x="83.398438" xlink:href="#ArialMT-74"/>
      <use x="111.181641" xlink:href="#ArialMT-65"/>
      <use x="166.796875" xlink:href="#ArialMT-6e"/>
      <use x="222.412109" xlink:href="#ArialMT-73"/>
      <use x="272.412109" xlink:href="#ArialMT-69"/>
      <use x="294.628906" xlink:href="#ArialMT-74"/>
      <use x="322.412109" xlink:href="#ArialMT-79"/>
      <use x="372.412109" xlink:href="#ArialMT-20"/>
      <use x="400.195312" xlink:href="#ArialMT-5b"/>
      <use x="427.978516" xlink:href="#ArialMT-25"/>
      <use x="516.894531" xlink:href="#ArialMT-5d"/>
     </g>
    </g>
   </g>
   <g id="line2d_1">
    <path clip-path="url(#pd7336dc626)" d="M 235.932602 189 
L 249.493672 189 
L 249.498046 188.405993 
L 249.603001 189 
L 250.53885 189 
L 250.543223 188.610043 
L 250.648178 189 
L 250.718148 189 
L 250.805611 188.512324 
L 250.827477 189 
L 250.8887 189 
L 250.893074 188.552469 
L 250.998029 189 
L 251.850789 189 
L 251.942624 187.491937 
L 251.960117 189 
L 252.812877 189 
L 252.81725 188.762583 
L 252.922205 189 
L 253.162727 189 
L 253.254563 187.500243 
L 253.272055 189 
L 253.337652 189 
L 253.342025 186.752805 
L 253.44698 189 
L 253.51695 189 
L 253.521324 188.718711 
L 253.626279 189 
L 254.29974 189 
L 254.391576 183.622936 
L 254.409069 189 
L 254.470292 189 
L 254.474666 188.263363 
L 254.579621 189 
L 255.528589 189 
L 255.532963 188.666405 
L 255.637918 189 
L 255.699141 189 
L 255.790977 181.392597 
L 255.80847 189 
L 255.874067 189 
L 255.87844 186.180696 
L 255.983395 189 
L 256.748692 189 
L 256.840528 182.935151 
L 256.85802 189 
L 256.923617 189 
L 256.92799 187.835635 
L 257.032946 189 
L 258.060631 189 
L 258.152466 188.184512 
L 258.169959 189 
L 258.235556 189 
L 258.327391 95.073332 
L 258.344884 188.792389 
L 258.410481 189 
L 258.414854 171.560266 
L 258.519809 189 
L 259.368196 189 
L 259.468778 188.533583 
L 259.477524 189 
L 259.551867 189 
L 259.55624 188.013537 
L 259.661196 189 
L 260.684508 189 
L 260.776343 186.911868 
L 260.793836 189 
L 260.859433 189 
L 260.863806 179.798661 
L 260.968761 189 
L 262.088282 189 
L 262.092655 25.92 
L 262.19761 189 
L 262.263207 189 
L 262.26758 188.264214 
L 262.372535 189 
L 454.584639 189 
L 454.584639 189 
" style="fill:none;stroke:#ff0000;stroke-linecap:round;stroke-width:0.5;"/>
   </g>
   <g id="patch_3">
    <path d="M 225 189 
L 225 25.92 
" style="fill:none;stroke:#262626;stroke-linecap:square;stroke-linejoin:miter;stroke-width:1.25;"/>
   </g>
   <g id="patch_4">
    <path d="M 465.517241 189 
L 465.517241 25.92 
" style="fill:none;stroke:#262626;stroke-linecap:square;stroke-linejoin:miter;stroke-width:1.25;"/>
   </g>
   <g id="patch_5">
    <path d="M 225 189 
L 465.517241 189 
" style="fill:none;stroke:#262626;stroke-linecap:square;stroke-linejoin:miter;stroke-width:1.25;"/>
   </g>
   <g id="patch_6">
    <path d="M 225 25.92 
L 465.517241 25.92 
" style="fill:none;stroke:#262626;stroke-linecap:square;stroke-linejoin:miter;stroke-width:1.25;"/>
   </g>
  </g>
  <g id="axes_2">
   <g id="patch_7">
    <path d="M 513.62069 189 
L 754.137931 189 
L 754.137931 25.92 
L 513.62069 25.92 
z
" style="fill:#ffffff;"/>
   </g>
   <g id="matplotlib.axis_3">
    <g id="xtick_7">
     <g id="text_15">
      <!-- 0 -->
      <g style="fill:#262626;" transform="translate(521.494776 206.373594)scale(0.11 -0.11)">
       <use xlink:href="#ArialMT-30"/>
      </g>
     </g>
    </g>
    <g id="xtick_8">
     <g id="text_16">
      <!-- 500 -->
      <g style="fill:#262626;" transform="translate(559.109027 206.373594)scale(0.11 -0.11)">
       <use xlink:href="#ArialMT-35"/>
       <use x="55.615234" xlink:href="#ArialMT-30"/>
       <use x="111.230469" xlink:href="#ArialMT-30"/>
      </g>
     </g>
    </g>
    <g id="xtick_9">
     <g id="text_17">
      <!-- 1000 -->
      <g style="fill:#262626;" transform="translate(599.781793 206.373594)scale(0.11 -0.11)">
       <use xlink:href="#ArialMT-31"/>
       <use x="55.615234" xlink:href="#ArialMT-30"/>
       <use x="111.230469" xlink:href="#ArialMT-30"/>
       <use x="166.845703" xlink:href="#ArialMT-30"/>
      </g>
     </g>
    </g>
    <g id="xtick_10">
     <g id="text_18">
      <!-- 1500 -->
      <g style="fill:#262626;" transform="translate(643.513075 206.373594)scale(0.11 -0.11)">
       <use xlink:href="#ArialMT-31"/>
       <use x="55.615234" xlink:href="#ArialMT-35"/>
       <use x="111.230469" xlink:href="#ArialMT-30"/>
       <use x="166.845703" xlink:href="#ArialMT-30"/>
      </g>
     </g>
    </g>
    <g id="xtick_11">
     <g id="text_19">
      <!-- 2000 -->
      <g style="fill:#262626;" transform="translate(687.244358 206.373594)scale(0.11 -0.11)">
       <use xlink:href="#ArialMT-32"/>
       <use x="55.615234" xlink:href="#ArialMT-30"/>
       <use x="111.230469" xlink:href="#ArialMT-30"/>
       <use x="166.845703" xlink:href="#ArialMT-30"/>
      </g>
     </g>
    </g>
    <g id="xtick_12">
     <g id="text_20">
      <!-- 2500 -->
      <g style="fill:#262626;" transform="translate(730.97564 206.373594)scale(0.11 -0.11)">
       <use xlink:href="#ArialMT-32"/>
       <use x="55.615234" xlink:href="#ArialMT-35"/>
       <use x="111.230469" xlink:href="#ArialMT-30"/>
       <use x="166.845703" xlink:href="#ArialMT-30"/>
      </g>
     </g>
    </g>
    <g id="text_21">
     <!-- m/z -->
     <g style="fill:#262626;" transform="translate(624.214623 221.149219)scale(0.12 -0.12)">
      <use xlink:href="#ArialMT-6d"/>
      <use x="83.300781" xlink:href="#ArialMT-2f"/>
      <use x="111.083984" xlink:href="#ArialMT-7a"/>
     </g>
    </g>
   </g>
   <g id="matplotlib.axis_4"/>
   <g id="line2d_2">
    <path clip-path="url(#pa446647089)" d="M 524.553292 189 
L 534.873874 189 
L 534.878247 188.596481 
L 534.983202 189 
L 536.273275 189 
L 536.277648 186.008501 
L 536.382603 189 
L 536.710588 189 
L 536.714961 188.637763 
L 536.819916 189 
L 538.634764 189 
L 538.7266 177.655561 
L 538.744093 189 
L 538.80969 189 
L 538.814063 187.703974 
L 538.919018 189 
L 539.684315 189 
L 539.780524 187.985972 
L 539.793643 189 
L 539.902972 189 
L 539.951076 188.366814 
L 540.0123 189 
L 540.034165 189 
L 540.038539 183.79206 
L 540.143494 189 
L 540.558941 189 
L 540.65515 187.531287 
L 540.668269 189 
L 540.690135 189 
L 540.742612 188.080746 
L 540.799463 189 
L 540.908791 189 
L 540.913164 187.545242 
L 541.018119 189 
L 541.171179 189 
L 541.175552 177.791619 
L 541.280507 189 
L 542.13764 189 
L 542.142013 182.371607 
L 542.246968 189 
L 542.312565 189 
L 542.316938 188.358093 
L 542.421893 189 
L 542.526848 189 
L 542.531222 188.234827 
L 542.636177 189 
L 542.658042 189 
L 542.749878 187.869684 
L 542.767371 189 
L 543.095355 189 
L 543.191564 186.350387 
L 543.204683 189 
L 543.274653 189 
L 543.279027 188.515662 
L 543.383982 189 
L 543.445205 189 
L 543.541414 187.597571 
L 543.554534 189 
L 543.620131 189 
L 543.624504 183.109451 
L 543.729459 189 
L 543.795056 189 
L 543.799429 188.578458 
L 543.904384 189 
L 544.582219 189 
L 544.678428 177.072962 
L 544.691547 189 
L 544.761517 189 
L 544.76589 186.421904 
L 544.870845 189 
L 545.194457 189 
L 545.19883 187.270804 
L 545.303785 189 
L 545.544307 189 
L 545.54868 188.529617 
L 545.653635 189 
L 547.031171 189 
L 547.118633 188.331346 
L 547.123006 189 
L 547.127379 25.92 
L 547.232334 189 
L 547.297931 189 
L 547.302305 188.404026 
L 547.40726 189 
L 548.430572 189 
L 548.434945 188.028999 
L 548.439318 108.209184 
L 548.443691 189 
L 548.544273 189 
L 743.205329 189 
L 743.205329 189 
" style="fill:none;stroke:#ff0000;stroke-linecap:round;stroke-width:0.5;"/>
   </g>
   <g id="patch_8">
    <path d="M 513.62069 189 
L 513.62069 25.92 
" style="fill:none;stroke:#262626;stroke-linecap:square;stroke-linejoin:miter;stroke-width:1.25;"/>
   </g>
   <g id="patch_9">
    <path d="M 754.137931 189 
L 754.137931 25.92 
" style="fill:none;stroke:#262626;stroke-linecap:square;stroke-linejoin:miter;stroke-width:1.25;"/>
   </g>
   <g id="patch_10">
    <path d="M 513.62069 189 
L 754.137931 189 
" style="fill:none;stroke:#262626;stroke-linecap:square;stroke-linejoin:miter;stroke-width:1.25;"/>
   </g>
   <g id="patch_11">
    <path d="M 513.62069 25.92 
L 754.137931 25.92 
" style="fill:none;stroke:#262626;stroke-linecap:square;stroke-linejoin:miter;stroke-width:1.25;"/>
   </g>
  </g>
  <g id="axes_3">
   <g id="patch_12">
    <path d="M 802.241379 189 
L 1042.758621 189 
L 1042.758621 25.92 
L 802.241379 25.92 
z
" style="fill:#ffffff;"/>
   </g>
   <g id="matplotlib.axis_5">
    <g id="xtick_13">
     <g id="text_22">
      <!-- 0 -->
      <g style="fill:#262626;" transform="translate(810.115466 206.373594)scale(0.11 -0.11)">
       <use xlink:href="#ArialMT-30"/>
      </g>
     </g>
    </g>
    <g id="xtick_14">
     <g id="text_23">
      <!-- 500 -->
      <g style="fill:#262626;" transform="translate(847.729716 206.373594)scale(0.11 -0.11)">
       <use xlink:href="#ArialMT-35"/>
       <use x="55.615234" xlink:href="#ArialMT-30"/>
       <use x="111.230469" xlink:href="#ArialMT-30"/>
      </g>
     </g>
    </g>
    <g id="xtick_15">
     <g id="text_24">
      <!-- 1000 -->
      <g style="fill:#262626;" transform="translate(888.402483 206.373594)scale(0.11 -0.11)">
       <use xlink:href="#ArialMT-31"/>
       <use x="55.615234" xlink:href="#ArialMT-30"/>
       <use x="111.230469" xlink:href="#ArialMT-30"/>
       <use x="166.845703" xlink:href="#ArialMT-30"/>
      </g>
     </g>
    </g>
    <g id="xtick_16">
     <g id="text_25">
      <!-- 1500 -->
      <g style="fill:#262626;" transform="translate(932.133765 206.373594)scale(0.11 -0.11)">
       <use xlink:href="#ArialMT-31"/>
       <use x="55.615234" xlink:href="#ArialMT-35"/>
       <use x="111.230469" xlink:href="#ArialMT-30"/>
       <use x="166.845703" xlink:href="#ArialMT-30"/>
      </g>
     </g>
    </g>
    <g id="xtick_17">
     <g id="text_26">
      <!-- 2000 -->
      <g style="fill:#262626;" transform="translate(975.865047 206.373594)scale(0.11 -0.11)">
       <use xlink:href="#ArialMT-32"/>
       <use x="55.615234" xlink:href="#ArialMT-30"/>
       <use x="111.230469" xlink:href="#ArialMT-30"/>
       <use x="166.845703" xlink:href="#ArialMT-30"/>
      </g>
     </g>
    </g>
    <g id="xtick_18">
     <g id="text_27">
      <!-- 2500 -->
      <g style="fill:#262626;" transform="translate(1019.596329 206.373594)scale(0.11 -0.11)">
       <use xlink:href="#ArialMT-32"/>
       <use x="55.615234" xlink:href="#ArialMT-35"/>
       <use x="111.230469" xlink:href="#ArialMT-30"/>
       <use x="166.845703" xlink:href="#ArialMT-30"/>
      </g>
     </g>
    </g>
    <g id="text_28">
     <!-- m/z -->
     <g style="fill:#262626;" transform="translate(912.835313 221.149219)scale(0.12 -0.12)">
      <use xlink:href="#ArialMT-6d"/>
      <use x="83.300781" xlink:href="#ArialMT-2f"/>
      <use x="111.083984" xlink:href="#ArialMT-7a"/>
     </g>
    </g>
   </g>
   <g id="matplotlib.axis_6"/>
   <g id="line2d_3">
    <path clip-path="url(#pca9e9ddbe1)" d="M 813.173981 189 
L 823.236549 189 
L 823.240922 188.493845 
L 823.345877 189 
L 824.373563 189 
L 824.377936 187.517265 
L 824.482891 189 
L 824.548488 189 
L 824.552861 188.127628 
L 824.657816 189 
L 825.160726 189 
L 825.165099 187.317781 
L 825.270054 189 
L 825.685501 189 
L 825.689874 187.880505 
L 825.794829 189 
L 825.864799 189 
L 825.952262 187.56788 
L 825.974127 189 
L 826.122814 189 
L 826.127187 188.440252 
L 826.232142 189 
L 827.522215 189 
L 827.526588 188.190153 
L 827.631543 189 
L 829.096541 189 
L 829.100914 187.112341 
L 829.205869 189 
L 829.275839 189 
L 829.280212 188.282451 
L 829.385167 189 
L 829.450764 189 
L 829.455138 188.365818 
L 829.560093 189 
L 830.058629 189 
L 830.063002 187.996623 
L 830.167957 189 
L 831.195643 189 
L 831.291851 188.502777 
L 831.304971 189 
L 831.374941 189 
L 831.379314 187.377328 
L 831.484269 189 
L 831.545493 189 
L 831.549866 188.529575 
L 831.654821 189 
L 832.424492 189 
L 832.428865 187.392215 
L 832.53382 189 
L 832.595044 189 
L 832.60379 187.758433 
L 832.704372 189 
L 833.644594 189 
L 833.648967 188.577212 
L 833.753923 189 
L 833.823893 189 
L 833.828266 188.225882 
L 833.933221 189 
L 833.998818 189 
L 834.003191 186.493046 
L 834.108146 189 
L 834.173743 189 
L 834.178116 186.38586 
L 834.283071 189 
L 834.698518 189 
L 834.702891 188.461094 
L 834.807846 189 
L 834.873443 189 
L 834.965279 181.095058 
L 834.982772 189 
L 835.043995 189 
L 835.135831 184.340402 
L 835.153324 189 
L 835.218921 189 
L 835.223294 187.81798 
L 835.328249 189 
L 836.272844 189 
L 836.277218 164.862385 
L 836.382173 189 
L 836.44777 189 
L 836.452143 25.92 
L 836.557098 189 
L 836.622695 189 
L 836.627068 185.340801 
L 836.732023 189 
L 837.847171 189 
L 837.851544 97.195479 
L 837.956499 189 
L 838.026469 189 
L 838.030842 187.234414 
L 838.135797 189 
L 1031.826019 189 
L 1031.826019 189 
" style="fill:none;stroke:#ff0000;stroke-linecap:round;stroke-width:0.5;"/>
   </g>
   <g id="patch_13">
    <path d="M 802.241379 189 
L 802.241379 25.92 
" style="fill:none;stroke:#262626;stroke-linecap:square;stroke-linejoin:miter;stroke-width:1.25;"/>
   </g>
   <g id="patch_14">
    <path d="M 1042.758621 189 
L 1042.758621 25.92 
" style="fill:none;stroke:#262626;stroke-linecap:square;stroke-linejoin:miter;stroke-width:1.25;"/>
   </g>
   <g id="patch_15">
    <path d="M 802.241379 189 
L 1042.758621 189 
" style="fill:none;stroke:#262626;stroke-linecap:square;stroke-linejoin:miter;stroke-width:1.25;"/>
   </g>
   <g id="patch_16">
    <path d="M 802.241379 25.92 
L 1042.758621 25.92 
" style="fill:none;stroke:#262626;stroke-linecap:square;stroke-linejoin:miter;stroke-width:1.25;"/>
   </g>
  </g>
  <g id="axes_4">
   <g id="patch_17">
    <path d="M 1090.862069 189 
L 1331.37931 189 
L 1331.37931 25.92 
L 1090.862069 25.92 
z
" style="fill:#ffffff;"/>
   </g>
   <g id="matplotlib.axis_7">
    <g id="xtick_19">
     <g id="text_29">
      <!-- 0 -->
      <g style="fill:#262626;" transform="translate(1098.736155 206.373594)scale(0.11 -0.11)">
       <use xlink:href="#ArialMT-30"/>
      </g>
     </g>
    </g>
    <g id="xtick_20">
     <g id="text_30">
      <!-- 500 -->
      <g style="fill:#262626;" transform="translate(1136.350406 206.373594)scale(0.11 -0.11)">
       <use xlink:href="#ArialMT-35"/>
       <use x="55.615234" xlink:href="#ArialMT-30"/>
       <use x="111.230469" xlink:href="#ArialMT-30"/>
      </g>
     </g>
    </g>
    <g id="xtick_21">
     <g id="text_31">
      <!-- 1000 -->
      <g style="fill:#262626;" transform="translate(1177.023173 206.373594)scale(0.11 -0.11)">
       <use xlink:href="#ArialMT-31"/>
       <use x="55.615234" xlink:href="#ArialMT-30"/>
       <use x="111.230469" xlink:href="#ArialMT-30"/>
       <use x="166.845703" xlink:href="#ArialMT-30"/>
      </g>
     </g>
    </g>
    <g id="xtick_22">
     <g id="text_32">
      <!-- 1500 -->
      <g style="fill:#262626;" transform="translate(1220.754455 206.373594)scale(0.11 -0.11)">
       <use xlink:href="#ArialMT-31"/>
       <use x="55.615234" xlink:href="#ArialMT-35"/>
       <use x="111.230469" xlink:href="#ArialMT-30"/>
       <use x="166.845703" xlink:href="#ArialMT-30"/>
      </g>
     </g>
    </g>
    <g id="xtick_23">
     <g id="text_33">
      <!-- 2000 -->
      <g style="fill:#262626;" transform="translate(1264.485737 206.373594)scale(0.11 -0.11)">
       <use xlink:href="#ArialMT-32"/>
       <use x="55.615234" xlink:href="#ArialMT-30"/>
       <use x="111.230469" xlink:href="#ArialMT-30"/>
       <use x="166.845703" xlink:href="#ArialMT-30"/>
      </g>
     </g>
    </g>
    <g id="xtick_24">
     <g id="text_34">
      <!-- 2500 -->
      <g style="fill:#262626;" transform="translate(1308.217019 206.373594)scale(0.11 -0.11)">
       <use xlink:href="#ArialMT-32"/>
       <use x="55.615234" xlink:href="#ArialMT-35"/>
       <use x="111.230469" xlink:href="#ArialMT-30"/>
       <use x="166.845703" xlink:href="#ArialMT-30"/>
      </g>
     </g>
    </g>
    <g id="text_35">
     <!-- m/z -->
     <g style="fill:#262626;" transform="translate(1201.456002 221.149219)scale(0.12 -0.12)">
      <use xlink:href="#ArialMT-6d"/>
      <use x="83.300781" xlink:href="#ArialMT-2f"/>
      <use x="111.083984" xlink:href="#ArialMT-7a"/>
     </g>
    </g>
   </g>
   <g id="matplotlib.axis_8"/>
   <g id="line2d_4">
    <path clip-path="url(#p30bae1529f)" d="M 1101.794671 189 
L 1108.616751 189 
L 1108.621124 188.53516 
L 1108.726079 189 
L 1110.191077 189 
L 1110.19545 188.096974 
L 1110.300405 189 
L 1111.32809 189 
L 1111.332463 185.446153 
L 1111.437419 189 
L 1113.951967 189 
L 1113.95634 188.350299 
L 1114.061295 189 
L 1114.651668 189 
L 1114.656041 188.580343 
L 1114.760996 189 
L 1115.701219 189 
L 1115.705592 182.072186 
L 1115.810547 189 
L 1117.104993 189 
L 1117.109366 188.700166 
L 1117.214321 189 
L 1117.629768 189 
L 1117.721604 186.811473 
L 1117.739096 189 
L 1117.892156 189 
L 1117.896529 185.014214 
L 1118.001484 189 
L 1118.504394 189 
L 1118.508767 188.036566 
L 1118.613722 189 
L 1119.641407 189 
L 1119.64578 188.68855 
L 1119.750735 189 
L 1120.07872 189 
L 1120.083093 186.986386 
L 1120.188048 189 
L 1120.253645 189 
L 1120.258018 181.903807 
L 1120.362973 189 
L 1120.42857 189 
L 1120.432943 188.716383 
L 1120.537898 189 
L 1120.686585 189 
L 1120.690958 188.714525 
L 1120.795913 189 
L 1120.953346 189 
L 1120.957719 187.328673 
L 1121.062674 189 
L 1121.827971 189 
L 1121.832344 188.660068 
L 1121.937299 189 
L 1122.002896 189 
L 1122.007269 185.35774 
L 1122.112225 189 
L 1122.265284 189 
L 1122.269657 187.408884 
L 1122.374612 189 
L 1122.440209 189 
L 1122.532045 188.405653 
L 1122.549537 189 
L 1122.702597 189 
L 1122.70697 172.646538 
L 1122.811925 189 
L 1122.877522 189 
L 1122.881895 186.755368 
L 1122.98685 189 
L 1123.135537 189 
L 1123.13991 188.654686 
L 1123.244865 189 
L 1123.577222 189 
L 1123.581596 188.431322 
L 1123.686551 189 
L 1123.752148 189 
L 1123.756521 187.230944 
L 1123.861476 189 
L 1124.276923 189 
L 1124.368759 188.313826 
L 1124.386251 189 
L 1124.451848 189 
L 1124.456221 153.367613 
L 1124.561176 189 
L 1124.626773 189 
L 1124.631146 187.724739 
L 1124.736101 189 
L 1124.797325 189 
L 1124.801698 188.725858 
L 1124.889161 189 
L 1124.893534 101.11915 
L 1124.998489 189 
L 1126.026174 189 
L 1126.030547 187.561848 
L 1126.135502 189 
L 1126.201099 189 
L 1126.205473 25.92 
L 1126.310428 189 
L 1127.775426 189 
L 1127.779799 187.555388 
L 1127.884754 189 
L 1320.446708 189 
L 1320.446708 189 
" style="fill:none;stroke:#ff0000;stroke-linecap:round;stroke-width:0.5;"/>
   </g>
   <g id="patch_18">
    <path d="M 1090.862069 189 
L 1090.862069 25.92 
" style="fill:none;stroke:#262626;stroke-linecap:square;stroke-linejoin:miter;stroke-width:1.25;"/>
   </g>
   <g id="patch_19">
    <path d="M 1331.37931 189 
L 1331.37931 25.92 
" style="fill:none;stroke:#262626;stroke-linecap:square;stroke-linejoin:miter;stroke-width:1.25;"/>
   </g>
   <g id="patch_20">
    <path d="M 1090.862069 189 
L 1331.37931 189 
" style="fill:none;stroke:#262626;stroke-linecap:square;stroke-linejoin:miter;stroke-width:1.25;"/>
   </g>
   <g id="patch_21">
    <path d="M 1090.862069 25.92 
L 1331.37931 25.92 
" style="fill:none;stroke:#262626;stroke-linecap:square;stroke-linejoin:miter;stroke-width:1.25;"/>
   </g>
  </g>
  <g id="axes_5">
   <g id="patch_22">
    <path d="M 1379.482759 189 
L 1620 189 
L 1620 25.92 
L 1379.482759 25.92 
z
" style="fill:#ffffff;"/>
   </g>
   <g id="matplotlib.axis_9">
    <g id="xtick_25">
     <g id="text_36">
      <!-- 0 -->
      <g style="fill:#262626;" transform="translate(1387.356845 206.373594)scale(0.11 -0.11)">
       <use xlink:href="#ArialMT-30"/>
      </g>
     </g>
    </g>
    <g id="xtick_26">
     <g id="text_37">
      <!-- 500 -->
      <g style="fill:#262626;" transform="translate(1424.971096 206.373594)scale(0.11 -0.11)">
       <use xlink:href="#ArialMT-35"/>
       <use x="55.615234" xlink:href="#ArialMT-30"/>
       <use x="111.230469" xlink:href="#ArialMT-30"/>
      </g>
     </g>
    </g>
    <g id="xtick_27">
     <g id="text_38">
      <!-- 1000 -->
      <g style="fill:#262626;" transform="translate(1465.643862 206.373594)scale(0.11 -0.11)">
       <use xlink:href="#ArialMT-31"/>
       <use x="55.615234" xlink:href="#ArialMT-30"/>
       <use x="111.230469" xlink:href="#ArialMT-30"/>
       <use x="166.845703" xlink:href="#ArialMT-30"/>
      </g>
     </g>
    </g>
    <g id="xtick_28">
     <g id="text_39">
      <!-- 1500 -->
      <g style="fill:#262626;" transform="translate(1509.375144 206.373594)scale(0.11 -0.11)">
       <use xlink:href="#ArialMT-31"/>
       <use x="55.615234" xlink:href="#ArialMT-35"/>
       <use x="111.230469" xlink:href="#ArialMT-30"/>
       <use x="166.845703" xlink:href="#ArialMT-30"/>
      </g>
     </g>
    </g>
    <g id="xtick_29">
     <g id="text_40">
      <!-- 2000 -->
      <g style="fill:#262626;" transform="translate(1553.106427 206.373594)scale(0.11 -0.11)">
       <use xlink:href="#ArialMT-32"/>
       <use x="55.615234" xlink:href="#ArialMT-30"/>
       <use x="111.230469" xlink:href="#ArialMT-30"/>
       <use x="166.845703" xlink:href="#ArialMT-30"/>
      </g>
     </g>
    </g>
    <g id="xtick_30">
     <g id="text_41">
      <!-- 2500 -->
      <g style="fill:#262626;" transform="translate(1596.837709 206.373594)scale(0.11 -0.11)">
       <use xlink:href="#ArialMT-32"/>
       <use x="55.615234" xlink:href="#ArialMT-35"/>
       <use x="111.230469" xlink:href="#ArialMT-30"/>
       <use x="166.845703" xlink:href="#ArialMT-30"/>
      </g>
     </g>
    </g>
    <g id="text_42">
     <!-- m/z -->
     <g style="fill:#262626;" transform="translate(1490.076692 221.149219)scale(0.12 -0.12)">
      <use xlink:href="#ArialMT-6d"/>
      <use x="83.300781" xlink:href="#ArialMT-2f"/>
      <use x="111.083984" xlink:href="#ArialMT-7a"/>
     </g>
    </g>
   </g>
   <g id="matplotlib.axis_10"/>
   <g id="line2d_5">
    <path clip-path="url(#p388eadbae9)" d="M 1390.415361 189 
L 1400.980838 189 
L 1400.985211 188.313966 
L 1401.090166 189 
L 1402.57703 189 
L 1402.581403 188.411971 
L 1402.686358 189 
L 1403.626581 189 
L 1403.630954 188.183294 
L 1403.735909 189 
L 1403.915207 189 
L 1403.91958 188.346635 
L 1404.024536 189 
L 1404.164476 189 
L 1404.168849 188.477307 
L 1404.273804 189 
L 1405.021609 189 
L 1405.025982 186.778558 
L 1405.130937 189 
L 1405.196534 189 
L 1405.200907 188.477307 
L 1405.305862 189 
L 1405.458922 189 
L 1405.463295 188.411971 
L 1405.56825 189 
L 1405.878742 189 
L 1405.883115 188.444639 
L 1405.98807 189 
L 1406.027428 189 
L 1406.075533 187.954615 
L 1406.136756 189 
L 1406.162995 189 
L 1406.167368 186.811227 
L 1406.272323 189 
L 1406.412264 189 
L 1406.416637 188.379303 
L 1406.521592 189 
L 1407.378725 189 
L 1407.474934 184.459111 
L 1407.488053 189 
L 1407.558023 189 
L 1407.649859 188.477307 
L 1407.667351 189 
L 1408.520111 189 
L 1408.61632 188.183294 
L 1408.62944 189 
L 1408.69941 189 
L 1408.703783 188.477307 
L 1408.808738 189 
L 1408.869962 189 
L 1408.874335 186.615216 
L 1408.97929 189 
L 1409.919512 189 
L 1409.923885 187.758606 
L 1410.028841 189 
L 1410.094437 189 
L 1410.098811 188.150626 
L 1410.203766 189 
L 1410.409303 189 
L 1410.413676 188.477307 
L 1410.518631 189 
L 1411.318913 189 
L 1411.323286 186.517211 
L 1411.428242 189 
L 1412.145435 189 
L 1412.149808 188.411971 
L 1412.254763 189 
L 1412.281002 189 
L 1412.285375 188.281298 
L 1412.368464 189 
L 1412.372837 25.92 
L 1412.477792 189 
L 1412.543389 189 
L 1412.547762 187.823942 
L 1412.652717 189 
L 1413.767865 189 
L 1413.772238 188.477307 
L 1413.877193 189 
L 1413.907805 189 
L 1413.912178 188.346635 
L 1413.94279 189 
L 1413.947163 97.2675 
L 1414.052119 189 
L 1609.067398 189 
L 1609.067398 189 
" style="fill:none;stroke:#ff0000;stroke-linecap:round;stroke-width:0.5;"/>
   </g>
   <g id="patch_23">
    <path d="M 1379.482759 189 
L 1379.482759 25.92 
" style="fill:none;stroke:#262626;stroke-linecap:square;stroke-linejoin:miter;stroke-width:1.25;"/>
   </g>
   <g id="patch_24">
    <path d="M 1620 189 
L 1620 25.92 
" style="fill:none;stroke:#262626;stroke-linecap:square;stroke-linejoin:miter;stroke-width:1.25;"/>
   </g>
   <g id="patch_25">
    <path d="M 1379.482759 189 
L 1620 189 
" style="fill:none;stroke:#262626;stroke-linecap:square;stroke-linejoin:miter;stroke-width:1.25;"/>
   </g>
   <g id="patch_26">
    <path d="M 1379.482759 25.92 
L 1620 25.92 
" style="fill:none;stroke:#262626;stroke-linecap:square;stroke-linejoin:miter;stroke-width:1.25;"/>
   </g>
  </g>
 </g>
 <defs>
  <clipPath id="pd7336dc626">
   <rect height="163.08" width="240.517241" x="225" y="25.92"/>
  </clipPath>
  <clipPath id="pa446647089">
   <rect height="163.08" width="240.517241" x="513.62069" y="25.92"/>
  </clipPath>
  <clipPath id="pca9e9ddbe1">
   <rect height="163.08" width="240.517241" x="802.241379" y="25.92"/>
  </clipPath>
  <clipPath id="p30bae1529f">
   <rect height="163.08" width="240.517241" x="1090.862069" y="25.92"/>
  </clipPath>
  <clipPath id="p388eadbae9">
   <rect height="163.08" width="240.517241" x="1379.482759" y="25.92"/>
  </clipPath>
 </defs>
</svg>
