<?xml version="1.0" encoding="utf-8" standalone="no"?>
<!DOCTYPE svg PUBLIC "-//W3C//DTD SVG 1.1//EN"
  "http://www.w3.org/Graphics/SVG/1.1/DTD/svg11.dtd">
<svg height="216pt" version="1.1" viewBox="0 0 1800 216" width="1800pt" xmlns="http://www.w3.org/2000/svg" xmlns:xlink="http://www.w3.org/1999/xlink">
 <metadata>
  <rdf:RDF xmlns:cc="http://creativecommons.org/ns#" xmlns:dc="http://purl.org/dc/elements/1.1/" xmlns:rdf="http://www.w3.org/1999/02/22-rdf-syntax-ns#">
   <cc:Work>
    <dc:type rdf:resource="http://purl.org/dc/dcmitype/StillImage"/>
    <dc:date>2022-05-16T21:27:40.990644</dc:date>
    <dc:format>image/svg+xml</dc:format>
    <dc:creator>
     <cc:Agent>
      <dc:title>Matplotlib v3.4.2, https://matplotlib.org/</dc:title>
     </cc:Agent>
    </dc:creator>
   </cc:Work>
  </rdf:RDF>
 </metadata>
 <defs>
  <style type="text/css">*{stroke-linecap:butt;stroke-linejoin:round;}</style>
 </defs>
 <g id="figure_1">
  <g id="patch_1">
   <path d="M 0 216 
L 1800 216 
L 1800 0 
L 0 0 
z
" style="fill:#ffffff;"/>
  </g>
  <g id="axes_1">
   <g id="patch_2">
    <path d="M 225 189 
L 465.517241 189 
L 465.517241 25.92 
L 225 25.92 
z
" style="fill:#ffffff;"/>
   </g>
   <g id="matplotlib.axis_1">
    <g id="xtick_1">
     <g id="text_1">
      <!-- 0 -->
      <g style="fill:#262626;" transform="translate(232.874086 206.373594)scale(0.11 -0.11)">
       <defs>
        <path d="M 266 2259 
Q 266 3072 433 3567 
Q 600 4063 929 4331 
Q 1259 4600 1759 4600 
Q 2128 4600 2406 4451 
Q 2684 4303 2865 4023 
Q 3047 3744 3150 3342 
Q 3253 2941 3253 2259 
Q 3253 1453 3087 958 
Q 2922 463 2592 192 
Q 2263 -78 1759 -78 
Q 1097 -78 719 397 
Q 266 969 266 2259 
z
M 844 2259 
Q 844 1131 1108 757 
Q 1372 384 1759 384 
Q 2147 384 2411 759 
Q 2675 1134 2675 2259 
Q 2675 3391 2411 3762 
Q 2147 4134 1753 4134 
Q 1366 4134 1134 3806 
Q 844 3388 844 2259 
z
" id="ArialMT-30" transform="scale(0.015625)"/>
       </defs>
       <use xlink:href="#ArialMT-30"/>
      </g>
     </g>
    </g>
    <g id="xtick_2">
     <g id="text_2">
      <!-- 500 -->
      <g style="fill:#262626;" transform="translate(270.488337 206.373594)scale(0.11 -0.11)">
       <defs>
        <path d="M 266 1200 
L 856 1250 
Q 922 819 1161 601 
Q 1400 384 1738 384 
Q 2144 384 2425 690 
Q 2706 997 2706 1503 
Q 2706 1984 2436 2262 
Q 2166 2541 1728 2541 
Q 1456 2541 1237 2417 
Q 1019 2294 894 2097 
L 366 2166 
L 809 4519 
L 3088 4519 
L 3088 3981 
L 1259 3981 
L 1013 2750 
Q 1425 3038 1878 3038 
Q 2478 3038 2890 2622 
Q 3303 2206 3303 1553 
Q 3303 931 2941 478 
Q 2500 -78 1738 -78 
Q 1113 -78 717 272 
Q 322 622 266 1200 
z
" id="ArialMT-35" transform="scale(0.015625)"/>
       </defs>
       <use xlink:href="#ArialMT-35"/>
       <use x="55.615234" xlink:href="#ArialMT-30"/>
       <use x="111.230469" xlink:href="#ArialMT-30"/>
      </g>
     </g>
    </g>
    <g id="xtick_3">
     <g id="text_3">
      <!-- 1000 -->
      <g style="fill:#262626;" transform="translate(311.161104 206.373594)scale(0.11 -0.11)">
       <defs>
        <path d="M 2384 0 
L 1822 0 
L 1822 3584 
Q 1619 3391 1289 3197 
Q 959 3003 697 2906 
L 697 3450 
Q 1169 3672 1522 3987 
Q 1875 4303 2022 4600 
L 2384 4600 
L 2384 0 
z
" id="ArialMT-31" transform="scale(0.015625)"/>
       </defs>
       <use xlink:href="#ArialMT-31"/>
       <use x="55.615234" xlink:href="#ArialMT-30"/>
       <use x="111.230469" xlink:href="#ArialMT-30"/>
       <use x="166.845703" xlink:href="#ArialMT-30"/>
      </g>
     </g>
    </g>
    <g id="xtick_4">
     <g id="text_4">
      <!-- 1500 -->
      <g style="fill:#262626;" transform="translate(354.892386 206.373594)scale(0.11 -0.11)">
       <use xlink:href="#ArialMT-31"/>
       <use x="55.615234" xlink:href="#ArialMT-35"/>
       <use x="111.230469" xlink:href="#ArialMT-30"/>
       <use x="166.845703" xlink:href="#ArialMT-30"/>
      </g>
     </g>
    </g>
    <g id="xtick_5">
     <g id="text_5">
      <!-- 2000 -->
      <g style="fill:#262626;" transform="translate(398.623668 206.373594)scale(0.11 -0.11)">
       <defs>
        <path d="M 3222 541 
L 3222 0 
L 194 0 
Q 188 203 259 391 
Q 375 700 629 1000 
Q 884 1300 1366 1694 
Q 2113 2306 2375 2664 
Q 2638 3022 2638 3341 
Q 2638 3675 2398 3904 
Q 2159 4134 1775 4134 
Q 1369 4134 1125 3890 
Q 881 3647 878 3216 
L 300 3275 
Q 359 3922 746 4261 
Q 1134 4600 1788 4600 
Q 2447 4600 2831 4234 
Q 3216 3869 3216 3328 
Q 3216 3053 3103 2787 
Q 2991 2522 2730 2228 
Q 2469 1934 1863 1422 
Q 1356 997 1212 845 
Q 1069 694 975 541 
L 3222 541 
z
" id="ArialMT-32" transform="scale(0.015625)"/>
       </defs>
       <use xlink:href="#ArialMT-32"/>
       <use x="55.615234" xlink:href="#ArialMT-30"/>
       <use x="111.230469" xlink:href="#ArialMT-30"/>
       <use x="166.845703" xlink:href="#ArialMT-30"/>
      </g>
     </g>
    </g>
    <g id="xtick_6">
     <g id="text_6">
      <!-- 2500 -->
      <g style="fill:#262626;" transform="translate(442.35495 206.373594)scale(0.11 -0.11)">
       <use xlink:href="#ArialMT-32"/>
       <use x="55.615234" xlink:href="#ArialMT-35"/>
       <use x="111.230469" xlink:href="#ArialMT-30"/>
       <use x="166.845703" xlink:href="#ArialMT-30"/>
      </g>
     </g>
    </g>
    <g id="text_7">
     <!-- m/z -->
     <g style="fill:#262626;" transform="translate(335.593933 221.149219)scale(0.12 -0.12)">
      <defs>
       <path d="M 422 0 
L 422 3319 
L 925 3319 
L 925 2853 
Q 1081 3097 1340 3245 
Q 1600 3394 1931 3394 
Q 2300 3394 2536 3241 
Q 2772 3088 2869 2813 
Q 3263 3394 3894 3394 
Q 4388 3394 4653 3120 
Q 4919 2847 4919 2278 
L 4919 0 
L 4359 0 
L 4359 2091 
Q 4359 2428 4304 2576 
Q 4250 2725 4106 2815 
Q 3963 2906 3769 2906 
Q 3419 2906 3187 2673 
Q 2956 2441 2956 1928 
L 2956 0 
L 2394 0 
L 2394 2156 
Q 2394 2531 2256 2718 
Q 2119 2906 1806 2906 
Q 1569 2906 1367 2781 
Q 1166 2656 1075 2415 
Q 984 2175 984 1722 
L 984 0 
L 422 0 
z
" id="ArialMT-6d" transform="scale(0.015625)"/>
       <path d="M 0 -78 
L 1328 4659 
L 1778 4659 
L 453 -78 
L 0 -78 
z
" id="ArialMT-2f" transform="scale(0.015625)"/>
       <path d="M 125 0 
L 125 456 
L 2238 2881 
Q 1878 2863 1603 2863 
L 250 2863 
L 250 3319 
L 2963 3319 
L 2963 2947 
L 1166 841 
L 819 456 
Q 1197 484 1528 484 
L 3063 484 
L 3063 0 
L 125 0 
z
" id="ArialMT-7a" transform="scale(0.015625)"/>
      </defs>
      <use xlink:href="#ArialMT-6d"/>
      <use x="83.300781" xlink:href="#ArialMT-2f"/>
      <use x="111.083984" xlink:href="#ArialMT-7a"/>
     </g>
    </g>
   </g>
   <g id="matplotlib.axis_2">
    <g id="ytick_1">
     <g id="text_8">
      <!-- 0 -->
      <g style="fill:#262626;" transform="translate(209.382969 192.936797)scale(0.11 -0.11)">
       <use xlink:href="#ArialMT-30"/>
      </g>
     </g>
    </g>
    <g id="ytick_2">
     <g id="text_9">
      <!-- 20 -->
      <g style="fill:#262626;" transform="translate(203.265938 160.320797)scale(0.11 -0.11)">
       <use xlink:href="#ArialMT-32"/>
       <use x="55.615234" xlink:href="#ArialMT-30"/>
      </g>
     </g>
    </g>
    <g id="ytick_3">
     <g id="text_10">
      <!-- 40 -->
      <g style="fill:#262626;" transform="translate(203.265938 127.704797)scale(0.11 -0.11)">
       <defs>
        <path d="M 2069 0 
L 2069 1097 
L 81 1097 
L 81 1613 
L 2172 4581 
L 2631 4581 
L 2631 1613 
L 3250 1613 
L 3250 1097 
L 2631 1097 
L 2631 0 
L 2069 0 
z
M 2069 1613 
L 2069 3678 
L 634 1613 
L 2069 1613 
z
" id="ArialMT-34" transform="scale(0.015625)"/>
       </defs>
       <use xlink:href="#ArialMT-34"/>
       <use x="55.615234" xlink:href="#ArialMT-30"/>
      </g>
     </g>
    </g>
    <g id="ytick_4">
     <g id="text_11">
      <!-- 60 -->
      <g style="fill:#262626;" transform="translate(203.265938 95.088797)scale(0.11 -0.11)">
       <defs>
        <path d="M 3184 3459 
L 2625 3416 
Q 2550 3747 2413 3897 
Q 2184 4138 1850 4138 
Q 1581 4138 1378 3988 
Q 1113 3794 959 3422 
Q 806 3050 800 2363 
Q 1003 2672 1297 2822 
Q 1591 2972 1913 2972 
Q 2475 2972 2870 2558 
Q 3266 2144 3266 1488 
Q 3266 1056 3080 686 
Q 2894 316 2569 119 
Q 2244 -78 1831 -78 
Q 1128 -78 684 439 
Q 241 956 241 2144 
Q 241 3472 731 4075 
Q 1159 4600 1884 4600 
Q 2425 4600 2770 4297 
Q 3116 3994 3184 3459 
z
M 888 1484 
Q 888 1194 1011 928 
Q 1134 663 1356 523 
Q 1578 384 1822 384 
Q 2178 384 2434 671 
Q 2691 959 2691 1453 
Q 2691 1928 2437 2201 
Q 2184 2475 1800 2475 
Q 1419 2475 1153 2201 
Q 888 1928 888 1484 
z
" id="ArialMT-36" transform="scale(0.015625)"/>
       </defs>
       <use xlink:href="#ArialMT-36"/>
       <use x="55.615234" xlink:href="#ArialMT-30"/>
      </g>
     </g>
    </g>
    <g id="ytick_5">
     <g id="text_12">
      <!-- 80 -->
      <g style="fill:#262626;" transform="translate(203.265938 62.472797)scale(0.11 -0.11)">
       <defs>
        <path d="M 1131 2484 
Q 781 2613 612 2850 
Q 444 3088 444 3419 
Q 444 3919 803 4259 
Q 1163 4600 1759 4600 
Q 2359 4600 2725 4251 
Q 3091 3903 3091 3403 
Q 3091 3084 2923 2848 
Q 2756 2613 2416 2484 
Q 2838 2347 3058 2040 
Q 3278 1734 3278 1309 
Q 3278 722 2862 322 
Q 2447 -78 1769 -78 
Q 1091 -78 675 323 
Q 259 725 259 1325 
Q 259 1772 486 2073 
Q 713 2375 1131 2484 
z
M 1019 3438 
Q 1019 3113 1228 2906 
Q 1438 2700 1772 2700 
Q 2097 2700 2305 2904 
Q 2513 3109 2513 3406 
Q 2513 3716 2298 3927 
Q 2084 4138 1766 4138 
Q 1444 4138 1231 3931 
Q 1019 3725 1019 3438 
z
M 838 1322 
Q 838 1081 952 856 
Q 1066 631 1291 507 
Q 1516 384 1775 384 
Q 2178 384 2440 643 
Q 2703 903 2703 1303 
Q 2703 1709 2433 1975 
Q 2163 2241 1756 2241 
Q 1359 2241 1098 1978 
Q 838 1716 838 1322 
z
" id="ArialMT-38" transform="scale(0.015625)"/>
       </defs>
       <use xlink:href="#ArialMT-38"/>
       <use x="55.615234" xlink:href="#ArialMT-30"/>
      </g>
     </g>
    </g>
    <g id="ytick_6">
     <g id="text_13">
      <!-- 100 -->
      <g style="fill:#262626;" transform="translate(197.148906 29.856797)scale(0.11 -0.11)">
       <use xlink:href="#ArialMT-31"/>
       <use x="55.615234" xlink:href="#ArialMT-30"/>
       <use x="111.230469" xlink:href="#ArialMT-30"/>
      </g>
     </g>
    </g>
    <g id="text_14">
     <!-- Intensity [%] -->
     <g style="fill:#262626;" transform="translate(190.623281 140.139375)rotate(-90)scale(0.12 -0.12)">
      <defs>
       <path d="M 597 0 
L 597 4581 
L 1203 4581 
L 1203 0 
L 597 0 
z
" id="ArialMT-49" transform="scale(0.015625)"/>
       <path d="M 422 0 
L 422 3319 
L 928 3319 
L 928 2847 
Q 1294 3394 1984 3394 
Q 2284 3394 2536 3286 
Q 2788 3178 2913 3003 
Q 3038 2828 3088 2588 
Q 3119 2431 3119 2041 
L 3119 0 
L 2556 0 
L 2556 2019 
Q 2556 2363 2490 2533 
Q 2425 2703 2258 2804 
Q 2091 2906 1866 2906 
Q 1506 2906 1245 2678 
Q 984 2450 984 1813 
L 984 0 
L 422 0 
z
" id="ArialMT-6e" transform="scale(0.015625)"/>
       <path d="M 1650 503 
L 1731 6 
Q 1494 -44 1306 -44 
Q 1000 -44 831 53 
Q 663 150 594 308 
Q 525 466 525 972 
L 525 2881 
L 113 2881 
L 113 3319 
L 525 3319 
L 525 4141 
L 1084 4478 
L 1084 3319 
L 1650 3319 
L 1650 2881 
L 1084 2881 
L 1084 941 
Q 1084 700 1114 631 
Q 1144 563 1211 522 
Q 1278 481 1403 481 
Q 1497 481 1650 503 
z
" id="ArialMT-74" transform="scale(0.015625)"/>
       <path d="M 2694 1069 
L 3275 997 
Q 3138 488 2766 206 
Q 2394 -75 1816 -75 
Q 1088 -75 661 373 
Q 234 822 234 1631 
Q 234 2469 665 2931 
Q 1097 3394 1784 3394 
Q 2450 3394 2872 2941 
Q 3294 2488 3294 1666 
Q 3294 1616 3291 1516 
L 816 1516 
Q 847 969 1125 678 
Q 1403 388 1819 388 
Q 2128 388 2347 550 
Q 2566 713 2694 1069 
z
M 847 1978 
L 2700 1978 
Q 2663 2397 2488 2606 
Q 2219 2931 1791 2931 
Q 1403 2931 1139 2672 
Q 875 2413 847 1978 
z
" id="ArialMT-65" transform="scale(0.015625)"/>
       <path d="M 197 991 
L 753 1078 
Q 800 744 1014 566 
Q 1228 388 1613 388 
Q 2000 388 2187 545 
Q 2375 703 2375 916 
Q 2375 1106 2209 1216 
Q 2094 1291 1634 1406 
Q 1016 1563 777 1677 
Q 538 1791 414 1992 
Q 291 2194 291 2438 
Q 291 2659 392 2848 
Q 494 3038 669 3163 
Q 800 3259 1026 3326 
Q 1253 3394 1513 3394 
Q 1903 3394 2198 3281 
Q 2494 3169 2634 2976 
Q 2775 2784 2828 2463 
L 2278 2388 
Q 2241 2644 2061 2787 
Q 1881 2931 1553 2931 
Q 1166 2931 1000 2803 
Q 834 2675 834 2503 
Q 834 2394 903 2306 
Q 972 2216 1119 2156 
Q 1203 2125 1616 2013 
Q 2213 1853 2448 1751 
Q 2684 1650 2818 1456 
Q 2953 1263 2953 975 
Q 2953 694 2789 445 
Q 2625 197 2315 61 
Q 2006 -75 1616 -75 
Q 969 -75 630 194 
Q 291 463 197 991 
z
" id="ArialMT-73" transform="scale(0.015625)"/>
       <path d="M 425 3934 
L 425 4581 
L 988 4581 
L 988 3934 
L 425 3934 
z
M 425 0 
L 425 3319 
L 988 3319 
L 988 0 
L 425 0 
z
" id="ArialMT-69" transform="scale(0.015625)"/>
       <path d="M 397 -1278 
L 334 -750 
Q 519 -800 656 -800 
Q 844 -800 956 -737 
Q 1069 -675 1141 -563 
Q 1194 -478 1313 -144 
Q 1328 -97 1363 -6 
L 103 3319 
L 709 3319 
L 1400 1397 
Q 1534 1031 1641 628 
Q 1738 1016 1872 1384 
L 2581 3319 
L 3144 3319 
L 1881 -56 
Q 1678 -603 1566 -809 
Q 1416 -1088 1222 -1217 
Q 1028 -1347 759 -1347 
Q 597 -1347 397 -1278 
z
" id="ArialMT-79" transform="scale(0.015625)"/>
       <path id="ArialMT-20" transform="scale(0.015625)"/>
       <path d="M 434 -1272 
L 434 4581 
L 1675 4581 
L 1675 4116 
L 997 4116 
L 997 -806 
L 1675 -806 
L 1675 -1272 
L 434 -1272 
z
" id="ArialMT-5b" transform="scale(0.015625)"/>
       <path d="M 372 3481 
Q 372 3972 619 4315 
Q 866 4659 1334 4659 
Q 1766 4659 2048 4351 
Q 2331 4044 2331 3447 
Q 2331 2866 2045 2552 
Q 1759 2238 1341 2238 
Q 925 2238 648 2547 
Q 372 2856 372 3481 
z
M 1350 4272 
Q 1141 4272 1002 4090 
Q 863 3909 863 3425 
Q 863 2984 1003 2804 
Q 1144 2625 1350 2625 
Q 1563 2625 1702 2806 
Q 1841 2988 1841 3469 
Q 1841 3913 1700 4092 
Q 1559 4272 1350 4272 
z
M 1353 -169 
L 3859 4659 
L 4316 4659 
L 1819 -169 
L 1353 -169 
z
M 3334 1075 
Q 3334 1569 3581 1911 
Q 3828 2253 4300 2253 
Q 4731 2253 5014 1945 
Q 5297 1638 5297 1041 
Q 5297 459 5011 145 
Q 4725 -169 4303 -169 
Q 3888 -169 3611 142 
Q 3334 453 3334 1075 
z
M 4316 1866 
Q 4103 1866 3964 1684 
Q 3825 1503 3825 1019 
Q 3825 581 3965 400 
Q 4106 219 4313 219 
Q 4528 219 4667 400 
Q 4806 581 4806 1063 
Q 4806 1506 4665 1686 
Q 4525 1866 4316 1866 
z
" id="ArialMT-25" transform="scale(0.015625)"/>
       <path d="M 1363 -1272 
L 122 -1272 
L 122 -806 
L 800 -806 
L 800 4116 
L 122 4116 
L 122 4581 
L 1363 4581 
L 1363 -1272 
z
" id="ArialMT-5d" transform="scale(0.015625)"/>
      </defs>
      <use xlink:href="#ArialMT-49"/>
      <use x="27.783203" xlink:href="#ArialMT-6e"/>
      <use x="83.398438" xlink:href="#ArialMT-74"/>
      <use x="111.181641" xlink:href="#ArialMT-65"/>
      <use x="166.796875" xlink:href="#ArialMT-6e"/>
      <use x="222.412109" xlink:href="#ArialMT-73"/>
      <use x="272.412109" xlink:href="#ArialMT-69"/>
      <use x="294.628906" xlink:href="#ArialMT-74"/>
      <use x="322.412109" xlink:href="#ArialMT-79"/>
      <use x="372.412109" xlink:href="#ArialMT-20"/>
      <use x="400.195312" xlink:href="#ArialMT-5b"/>
      <use x="427.978516" xlink:href="#ArialMT-25"/>
      <use x="516.894531" xlink:href="#ArialMT-5d"/>
     </g>
    </g>
   </g>
   <g id="line2d_1">
    <path clip-path="url(#pde373387e7)" d="M 235.932602 189 
L 242.23428 189 
L 242.238653 188.111349 
L 242.343608 189 
L 243.458756 189 
L 243.463129 185.544754 
L 243.568084 189 
L 243.629308 189 
L 243.633681 185.536375 
L 243.738636 189 
L 245.820245 189 
L 245.824618 187.991885 
L 245.929573 189 
L 246.257558 189 
L 246.261931 187.689377 
L 246.366886 189 
L 247.307108 189 
L 247.311481 151.338613 
L 247.416437 189 
L 247.482033 189 
L 247.486407 181.154917 
L 247.591362 189 
L 248.531584 189 
L 248.535957 185.207658 
L 248.640912 189 
L 248.706509 189 
L 248.710883 168.849952 
L 248.815838 189 
L 249.668598 189 
L 249.672971 187.315914 
L 249.777926 189 
L 249.843523 189 
L 249.847896 54.180174 
L 249.952851 189 
L 250.617566 189 
L 250.709402 164.041483 
L 250.726895 189 
L 250.792492 189 
L 250.809984 175.646606 
L 250.90182 189 
L 251.155461 189 
L 251.159834 187.791202 
L 251.264789 189 
L 251.942624 189 
L 252.03446 182.609199 
L 252.051952 189 
L 252.191893 189 
L 252.283728 150.367084 
L 252.301221 189 
L 252.366818 189 
L 252.371191 187.313846 
L 252.379937 189 
L 252.38431 25.92 
L 252.489265 189 
L 253.503831 189 
L 253.508204 187.785618 
L 253.521324 189 
L 253.525697 125.734573 
L 253.630652 189 
L 253.691876 189 
L 253.696249 187.448312 
L 253.801204 189 
L 253.866801 189 
L 253.871174 179.465134 
L 253.976129 189 
L 254.391576 189 
L 254.395949 187.463235 
L 254.500904 189 
L 254.741426 189 
L 254.745799 187.477143 
L 254.850755 189 
L 255.965902 189 
L 255.970275 186.657869 
L 256.07523 189 
L 257.369676 189 
L 257.37405 187.443582 
L 257.479005 189 
L 257.544602 189 
L 257.548975 185.772146 
L 257.65393 189 
L 454.584639 189 
L 454.584639 189 
" style="fill:none;stroke:#ff0000;stroke-linecap:round;stroke-width:0.5;"/>
   </g>
   <g id="patch_3">
    <path d="M 225 189 
L 225 25.92 
" style="fill:none;stroke:#262626;stroke-linecap:square;stroke-linejoin:miter;stroke-width:1.25;"/>
   </g>
   <g id="patch_4">
    <path d="M 465.517241 189 
L 465.517241 25.92 
" style="fill:none;stroke:#262626;stroke-linecap:square;stroke-linejoin:miter;stroke-width:1.25;"/>
   </g>
   <g id="patch_5">
    <path d="M 225 189 
L 465.517241 189 
" style="fill:none;stroke:#262626;stroke-linecap:square;stroke-linejoin:miter;stroke-width:1.25;"/>
   </g>
   <g id="patch_6">
    <path d="M 225 25.92 
L 465.517241 25.92 
" style="fill:none;stroke:#262626;stroke-linecap:square;stroke-linejoin:miter;stroke-width:1.25;"/>
   </g>
  </g>
  <g id="axes_2">
   <g id="patch_7">
    <path d="M 513.62069 189 
L 754.137931 189 
L 754.137931 25.92 
L 513.62069 25.92 
z
" style="fill:#ffffff;"/>
   </g>
   <g id="matplotlib.axis_3">
    <g id="xtick_7">
     <g id="text_15">
      <!-- 0 -->
      <g style="fill:#262626;" transform="translate(521.494776 206.373594)scale(0.11 -0.11)">
       <use xlink:href="#ArialMT-30"/>
      </g>
     </g>
    </g>
    <g id="xtick_8">
     <g id="text_16">
      <!-- 500 -->
      <g style="fill:#262626;" transform="translate(559.109027 206.373594)scale(0.11 -0.11)">
       <use xlink:href="#ArialMT-35"/>
       <use x="55.615234" xlink:href="#ArialMT-30"/>
       <use x="111.230469" xlink:href="#ArialMT-30"/>
      </g>
     </g>
    </g>
    <g id="xtick_9">
     <g id="text_17">
      <!-- 1000 -->
      <g style="fill:#262626;" transform="translate(599.781793 206.373594)scale(0.11 -0.11)">
       <use xlink:href="#ArialMT-31"/>
       <use x="55.615234" xlink:href="#ArialMT-30"/>
       <use x="111.230469" xlink:href="#ArialMT-30"/>
       <use x="166.845703" xlink:href="#ArialMT-30"/>
      </g>
     </g>
    </g>
    <g id="xtick_10">
     <g id="text_18">
      <!-- 1500 -->
      <g style="fill:#262626;" transform="translate(643.513075 206.373594)scale(0.11 -0.11)">
       <use xlink:href="#ArialMT-31"/>
       <use x="55.615234" xlink:href="#ArialMT-35"/>
       <use x="111.230469" xlink:href="#ArialMT-30"/>
       <use x="166.845703" xlink:href="#ArialMT-30"/>
      </g>
     </g>
    </g>
    <g id="xtick_11">
     <g id="text_19">
      <!-- 2000 -->
      <g style="fill:#262626;" transform="translate(687.244358 206.373594)scale(0.11 -0.11)">
       <use xlink:href="#ArialMT-32"/>
       <use x="55.615234" xlink:href="#ArialMT-30"/>
       <use x="111.230469" xlink:href="#ArialMT-30"/>
       <use x="166.845703" xlink:href="#ArialMT-30"/>
      </g>
     </g>
    </g>
    <g id="xtick_12">
     <g id="text_20">
      <!-- 2500 -->
      <g style="fill:#262626;" transform="translate(730.97564 206.373594)scale(0.11 -0.11)">
       <use xlink:href="#ArialMT-32"/>
       <use x="55.615234" xlink:href="#ArialMT-35"/>
       <use x="111.230469" xlink:href="#ArialMT-30"/>
       <use x="166.845703" xlink:href="#ArialMT-30"/>
      </g>
     </g>
    </g>
    <g id="text_21">
     <!-- m/z -->
     <g style="fill:#262626;" transform="translate(624.214623 221.149219)scale(0.12 -0.12)">
      <use xlink:href="#ArialMT-6d"/>
      <use x="83.300781" xlink:href="#ArialMT-2f"/>
      <use x="111.083984" xlink:href="#ArialMT-7a"/>
     </g>
    </g>
   </g>
   <g id="matplotlib.axis_4"/>
   <g id="line2d_2">
    <path clip-path="url(#p8a62389c18)" d="M 524.553292 189 
L 534.611486 189 
L 534.61586 187.637313 
L 534.720815 189 
L 535.661037 189 
L 535.66541 186.821993 
L 535.770365 189 
L 537.239736 189 
L 537.24411 187.748695 
L 537.349065 189 
L 538.109989 189 
L 538.114362 186.51144 
L 538.219317 189 
L 539.688688 189 
L 539.693061 186.718115 
L 539.798016 189 
L 540.558941 189 
L 540.65515 187.223483 
L 540.668269 189 
L 540.733866 189 
L 540.738239 183.646418 
L 540.843194 189 
L 541.700327 189 
L 541.792163 186.642356 
L 541.809655 189 
L 542.045804 189 
L 542.050178 185.695124 
L 542.155133 189 
L 542.749878 189 
L 542.754251 185.172827 
L 542.859206 189 
L 543.187191 189 
L 543.274653 179.315822 
L 543.296519 189 
L 543.362116 189 
L 543.366489 182.359449 
L 543.471444 189 
L 543.615757 189 
L 543.711966 181.249664 
L 543.725086 189 
L 544.236742 189 
L 544.328577 185.400415 
L 544.34607 189 
L 544.494756 189 
L 544.499129 179.933882 
L 544.604084 189 
L 545.106994 189 
L 545.19883 177.801649 
L 545.216322 189 
L 545.281919 189 
L 545.286292 187.699444 
L 545.391247 189 
L 545.63177 189 
L 545.727978 156.060315 
L 545.741098 189 
L 545.811068 189 
L 545.815441 25.92 
L 545.920396 189 
L 546.069082 189 
L 546.073455 143.998203 
L 546.178411 189 
L 546.244007 189 
L 546.33147 184.993255 
L 546.353336 189 
L 546.506395 189 
L 546.510768 186.052708 
L 546.615723 189 
L 546.773156 189 
L 546.777529 187.518333 
L 546.882484 189 
L 547.468483 189 
L 547.560319 175.404014 
L 547.577812 189 
L 547.643409 189 
L 547.647782 27.249803 
L 547.752737 189 
L 548.26002 189 
L 548.351855 79.024679 
L 548.369348 189 
L 548.434945 189 
L 548.522407 185.873595 
L 548.544273 189 
L 548.605497 189 
L 548.60987 181.223586 
L 548.714825 189 
L 549.829973 189 
L 549.834346 185.716813 
L 549.939301 189 
L 550.09236 189 
L 550.096733 150.702726 
L 550.201689 189 
L 551.229374 189 
L 551.233747 186.434952 
L 551.338702 189 
L 551.404299 189 
L 551.408672 41.183779 
L 551.513627 189 
L 743.205329 189 
L 743.205329 189 
" style="fill:none;stroke:#ff0000;stroke-linecap:round;stroke-width:0.5;"/>
   </g>
   <g id="patch_8">
    <path d="M 513.62069 189 
L 513.62069 25.92 
" style="fill:none;stroke:#262626;stroke-linecap:square;stroke-linejoin:miter;stroke-width:1.25;"/>
   </g>
   <g id="patch_9">
    <path d="M 754.137931 189 
L 754.137931 25.92 
" style="fill:none;stroke:#262626;stroke-linecap:square;stroke-linejoin:miter;stroke-width:1.25;"/>
   </g>
   <g id="patch_10">
    <path d="M 513.62069 189 
L 754.137931 189 
" style="fill:none;stroke:#262626;stroke-linecap:square;stroke-linejoin:miter;stroke-width:1.25;"/>
   </g>
   <g id="patch_11">
    <path d="M 513.62069 25.92 
L 754.137931 25.92 
" style="fill:none;stroke:#262626;stroke-linecap:square;stroke-linejoin:miter;stroke-width:1.25;"/>
   </g>
  </g>
  <g id="axes_3">
   <g id="patch_12">
    <path d="M 802.241379 189 
L 1042.758621 189 
L 1042.758621 25.92 
L 802.241379 25.92 
z
" style="fill:#ffffff;"/>
   </g>
   <g id="matplotlib.axis_5">
    <g id="xtick_13">
     <g id="text_22">
      <!-- 0 -->
      <g style="fill:#262626;" transform="translate(810.115466 206.373594)scale(0.11 -0.11)">
       <use xlink:href="#ArialMT-30"/>
      </g>
     </g>
    </g>
    <g id="xtick_14">
     <g id="text_23">
      <!-- 500 -->
      <g style="fill:#262626;" transform="translate(847.729716 206.373594)scale(0.11 -0.11)">
       <use xlink:href="#ArialMT-35"/>
       <use x="55.615234" xlink:href="#ArialMT-30"/>
       <use x="111.230469" xlink:href="#ArialMT-30"/>
      </g>
     </g>
    </g>
    <g id="xtick_15">
     <g id="text_24">
      <!-- 1000 -->
      <g style="fill:#262626;" transform="translate(888.402483 206.373594)scale(0.11 -0.11)">
       <use xlink:href="#ArialMT-31"/>
       <use x="55.615234" xlink:href="#ArialMT-30"/>
       <use x="111.230469" xlink:href="#ArialMT-30"/>
       <use x="166.845703" xlink:href="#ArialMT-30"/>
      </g>
     </g>
    </g>
    <g id="xtick_16">
     <g id="text_25">
      <!-- 1500 -->
      <g style="fill:#262626;" transform="translate(932.133765 206.373594)scale(0.11 -0.11)">
       <use xlink:href="#ArialMT-31"/>
       <use x="55.615234" xlink:href="#ArialMT-35"/>
       <use x="111.230469" xlink:href="#ArialMT-30"/>
       <use x="166.845703" xlink:href="#ArialMT-30"/>
      </g>
     </g>
    </g>
    <g id="xtick_17">
     <g id="text_26">
      <!-- 2000 -->
      <g style="fill:#262626;" transform="translate(975.865047 206.373594)scale(0.11 -0.11)">
       <use xlink:href="#ArialMT-32"/>
       <use x="55.615234" xlink:href="#ArialMT-30"/>
       <use x="111.230469" xlink:href="#ArialMT-30"/>
       <use x="166.845703" xlink:href="#ArialMT-30"/>
      </g>
     </g>
    </g>
    <g id="xtick_18">
     <g id="text_27">
      <!-- 2500 -->
      <g style="fill:#262626;" transform="translate(1019.596329 206.373594)scale(0.11 -0.11)">
       <use xlink:href="#ArialMT-32"/>
       <use x="55.615234" xlink:href="#ArialMT-35"/>
       <use x="111.230469" xlink:href="#ArialMT-30"/>
       <use x="166.845703" xlink:href="#ArialMT-30"/>
      </g>
     </g>
    </g>
    <g id="text_28">
     <!-- m/z -->
     <g style="fill:#262626;" transform="translate(912.835313 221.149219)scale(0.12 -0.12)">
      <use xlink:href="#ArialMT-6d"/>
      <use x="83.300781" xlink:href="#ArialMT-2f"/>
      <use x="111.083984" xlink:href="#ArialMT-7a"/>
     </g>
    </g>
   </g>
   <g id="matplotlib.axis_6"/>
   <g id="line2d_3">
    <path clip-path="url(#p86ea15678f)" d="M 813.173981 189 
L 822.186998 189 
L 822.191372 187.355774 
L 822.296327 189 
L 822.361924 189 
L 822.366297 183.891409 
L 822.471252 189 
L 822.532476 189 
L 822.536849 181.112738 
L 822.641804 189 
L 823.236549 189 
L 823.240922 186.986001 
L 823.345877 189 
L 823.411474 189 
L 823.415847 186.835221 
L 823.520803 189 
L 823.761325 189 
L 823.765698 185.560766 
L 823.870653 189 
L 824.2861 189 
L 824.377936 184.713522 
L 824.395428 189 
L 824.461025 189 
L 824.465398 181.159409 
L 824.570353 189 
L 824.631577 189 
L 824.63595 184.246821 
L 824.740905 189 
L 824.810875 189 
L 824.815248 129.822204 
L 824.920204 189 
L 825.510576 189 
L 825.514949 186.583921 
L 825.619904 189 
L 825.685501 189 
L 825.777337 186.192609 
L 825.794829 189 
L 825.860426 189 
L 825.864799 163.141125 
L 825.969754 189 
L 826.035351 189 
L 826.039724 186.738291 
L 826.144679 189 
L 826.560127 189 
L 826.5645 187.836835 
L 826.669455 189 
L 826.735052 189 
L 826.739425 187.025493 
L 826.84438 189 
L 826.909977 189 
L 826.91435 25.92 
L 827.019305 189 
L 827.084902 189 
L 827.089275 165.054603 
L 827.19423 189 
L 827.609677 189 
L 827.701513 187.621434 
L 827.719006 189 
L 827.784603 189 
L 827.788976 188.027105 
L 827.893931 189 
L 828.134453 189 
L 828.138826 184.760192 
L 828.243781 189 
L 828.309378 189 
L 828.313751 187.309103 
L 828.418706 189 
L 829.013452 189 
L 829.017825 187.395263 
L 829.12278 189 
L 829.358929 189 
L 829.363302 182.922105 
L 829.468257 189 
L 830.408479 189 
L 830.412853 188.055826 
L 830.517808 189 
L 830.587778 189 
L 830.592151 96.567898 
L 830.697106 189 
L 830.762703 189 
L 830.767076 138.484909 
L 830.872031 189 
L 831.462403 189 
L 831.466777 187.984026 
L 831.571732 189 
L 833.03673 189 
L 833.041103 185.970028 
L 833.146058 189 
L 835.752442 189 
L 835.756815 94.446198 
L 835.86177 189 
L 835.927367 189 
L 835.93174 187.901456 
L 836.036695 189 
L 1031.826019 189 
L 1031.826019 189 
" style="fill:none;stroke:#ff0000;stroke-linecap:round;stroke-width:0.5;"/>
   </g>
   <g id="patch_13">
    <path d="M 802.241379 189 
L 802.241379 25.92 
" style="fill:none;stroke:#262626;stroke-linecap:square;stroke-linejoin:miter;stroke-width:1.25;"/>
   </g>
   <g id="patch_14">
    <path d="M 1042.758621 189 
L 1042.758621 25.92 
" style="fill:none;stroke:#262626;stroke-linecap:square;stroke-linejoin:miter;stroke-width:1.25;"/>
   </g>
   <g id="patch_15">
    <path d="M 802.241379 189 
L 1042.758621 189 
" style="fill:none;stroke:#262626;stroke-linecap:square;stroke-linejoin:miter;stroke-width:1.25;"/>
   </g>
   <g id="patch_16">
    <path d="M 802.241379 25.92 
L 1042.758621 25.92 
" style="fill:none;stroke:#262626;stroke-linecap:square;stroke-linejoin:miter;stroke-width:1.25;"/>
   </g>
  </g>
  <g id="axes_4">
   <g id="patch_17">
    <path d="M 1090.862069 189 
L 1331.37931 189 
L 1331.37931 25.92 
L 1090.862069 25.92 
z
" style="fill:#ffffff;"/>
   </g>
   <g id="matplotlib.axis_7">
    <g id="xtick_19">
     <g id="text_29">
      <!-- 0 -->
      <g style="fill:#262626;" transform="translate(1098.736155 206.373594)scale(0.11 -0.11)">
       <use xlink:href="#ArialMT-30"/>
      </g>
     </g>
    </g>
    <g id="xtick_20">
     <g id="text_30">
      <!-- 500 -->
      <g style="fill:#262626;" transform="translate(1136.350406 206.373594)scale(0.11 -0.11)">
       <use xlink:href="#ArialMT-35"/>
       <use x="55.615234" xlink:href="#ArialMT-30"/>
       <use x="111.230469" xlink:href="#ArialMT-30"/>
      </g>
     </g>
    </g>
    <g id="xtick_21">
     <g id="text_31">
      <!-- 1000 -->
      <g style="fill:#262626;" transform="translate(1177.023173 206.373594)scale(0.11 -0.11)">
       <use xlink:href="#ArialMT-31"/>
       <use x="55.615234" xlink:href="#ArialMT-30"/>
       <use x="111.230469" xlink:href="#ArialMT-30"/>
       <use x="166.845703" xlink:href="#ArialMT-30"/>
      </g>
     </g>
    </g>
    <g id="xtick_22">
     <g id="text_32">
      <!-- 1500 -->
      <g style="fill:#262626;" transform="translate(1220.754455 206.373594)scale(0.11 -0.11)">
       <use xlink:href="#ArialMT-31"/>
       <use x="55.615234" xlink:href="#ArialMT-35"/>
       <use x="111.230469" xlink:href="#ArialMT-30"/>
       <use x="166.845703" xlink:href="#ArialMT-30"/>
      </g>
     </g>
    </g>
    <g id="xtick_23">
     <g id="text_33">
      <!-- 2000 -->
      <g style="fill:#262626;" transform="translate(1264.485737 206.373594)scale(0.11 -0.11)">
       <use xlink:href="#ArialMT-32"/>
       <use x="55.615234" xlink:href="#ArialMT-30"/>
       <use x="111.230469" xlink:href="#ArialMT-30"/>
       <use x="166.845703" xlink:href="#ArialMT-30"/>
      </g>
     </g>
    </g>
    <g id="xtick_24">
     <g id="text_34">
      <!-- 2500 -->
      <g style="fill:#262626;" transform="translate(1308.217019 206.373594)scale(0.11 -0.11)">
       <use xlink:href="#ArialMT-32"/>
       <use x="55.615234" xlink:href="#ArialMT-35"/>
       <use x="111.230469" xlink:href="#ArialMT-30"/>
       <use x="166.845703" xlink:href="#ArialMT-30"/>
      </g>
     </g>
    </g>
    <g id="text_35">
     <!-- m/z -->
     <g style="fill:#262626;" transform="translate(1201.456002 221.149219)scale(0.12 -0.12)">
      <use xlink:href="#ArialMT-6d"/>
      <use x="83.300781" xlink:href="#ArialMT-2f"/>
      <use x="111.083984" xlink:href="#ArialMT-7a"/>
     </g>
    </g>
   </g>
   <g id="matplotlib.axis_8"/>
   <g id="line2d_4">
    <path clip-path="url(#p55c94d6030)" d="M 1101.794671 189 
L 1111.245001 189 
L 1111.249374 186.518733 
L 1111.354329 189 
L 1111.677941 189 
L 1111.682314 188.054756 
L 1111.787269 189 
L 1112.198343 189 
L 1112.202716 187.37958 
L 1112.307671 189 
L 1112.469477 189 
L 1112.47385 155.47758 
L 1112.578805 189 
L 1112.640029 189 
L 1112.731865 157.258353 
L 1112.749357 189 
L 1112.814954 189 
L 1112.90679 187.354262 
L 1112.924282 189 
L 1113.335356 189 
L 1113.339729 104.130547 
L 1113.444684 189 
L 1113.510281 189 
L 1113.514654 156.870125 
L 1113.61961 189 
L 1113.781415 189 
L 1113.868878 168.635044 
L 1113.890743 189 
L 1113.951967 189 
L 1113.95634 186.974476 
L 1114.061295 189 
L 1114.47237 189 
L 1114.476743 188.046316 
L 1114.581698 189 
L 1114.647295 189 
L 1114.660414 185.143065 
L 1114.756623 189 
L 1114.914055 189 
L 1115.005891 162.339042 
L 1115.023384 189 
L 1115.088981 189 
L 1115.093354 25.92 
L 1115.198309 189 
L 1115.263906 189 
L 1115.268279 184.172501 
L 1115.373234 189 
L 1116.225994 189 
L 1116.230367 176.44175 
L 1116.335322 189 
L 1116.833859 189 
L 1116.838232 187.489297 
L 1116.943187 189 
L 1117.096246 189 
L 1117.10062 186.257104 
L 1117.205575 189 
L 1117.45047 189 
L 1117.542306 186.265543 
L 1117.559798 189 
L 1117.629768 189 
L 1117.634141 159.815577 
L 1117.739096 189 
L 1117.80032 189 
L 1117.804693 187.936599 
L 1117.909648 189 
L 1118.058335 189 
L 1118.062708 187.894401 
L 1118.167663 189 
L 1119.204094 189 
L 1119.208467 187.894401 
L 1119.313422 189 
L 1120.253645 189 
L 1120.258018 187.784685 
L 1120.362973 189 
L 1120.599122 189 
L 1120.603495 187.269865 
L 1120.70845 189 
L 1120.774047 189 
L 1120.77842 187.902842 
L 1120.883376 189 
L 1320.446708 189 
L 1320.446708 189 
" style="fill:none;stroke:#ff0000;stroke-linecap:round;stroke-width:0.5;"/>
   </g>
   <g id="patch_18">
    <path d="M 1090.862069 189 
L 1090.862069 25.92 
" style="fill:none;stroke:#262626;stroke-linecap:square;stroke-linejoin:miter;stroke-width:1.25;"/>
   </g>
   <g id="patch_19">
    <path d="M 1331.37931 189 
L 1331.37931 25.92 
" style="fill:none;stroke:#262626;stroke-linecap:square;stroke-linejoin:miter;stroke-width:1.25;"/>
   </g>
   <g id="patch_20">
    <path d="M 1090.862069 189 
L 1331.37931 189 
" style="fill:none;stroke:#262626;stroke-linecap:square;stroke-linejoin:miter;stroke-width:1.25;"/>
   </g>
   <g id="patch_21">
    <path d="M 1090.862069 25.92 
L 1331.37931 25.92 
" style="fill:none;stroke:#262626;stroke-linecap:square;stroke-linejoin:miter;stroke-width:1.25;"/>
   </g>
  </g>
  <g id="axes_5">
   <g id="patch_22">
    <path d="M 1379.482759 189 
L 1620 189 
L 1620 25.92 
L 1379.482759 25.92 
z
" style="fill:#ffffff;"/>
   </g>
   <g id="matplotlib.axis_9">
    <g id="xtick_25">
     <g id="text_36">
      <!-- 0 -->
      <g style="fill:#262626;" transform="translate(1387.356845 206.373594)scale(0.11 -0.11)">
       <use xlink:href="#ArialMT-30"/>
      </g>
     </g>
    </g>
    <g id="xtick_26">
     <g id="text_37">
      <!-- 500 -->
      <g style="fill:#262626;" transform="translate(1424.971096 206.373594)scale(0.11 -0.11)">
       <use xlink:href="#ArialMT-35"/>
       <use x="55.615234" xlink:href="#ArialMT-30"/>
       <use x="111.230469" xlink:href="#ArialMT-30"/>
      </g>
     </g>
    </g>
    <g id="xtick_27">
     <g id="text_38">
      <!-- 1000 -->
      <g style="fill:#262626;" transform="translate(1465.643862 206.373594)scale(0.11 -0.11)">
       <use xlink:href="#ArialMT-31"/>
       <use x="55.615234" xlink:href="#ArialMT-30"/>
       <use x="111.230469" xlink:href="#ArialMT-30"/>
       <use x="166.845703" xlink:href="#ArialMT-30"/>
      </g>
     </g>
    </g>
    <g id="xtick_28">
     <g id="text_39">
      <!-- 1500 -->
      <g style="fill:#262626;" transform="translate(1509.375144 206.373594)scale(0.11 -0.11)">
       <use xlink:href="#ArialMT-31"/>
       <use x="55.615234" xlink:href="#ArialMT-35"/>
       <use x="111.230469" xlink:href="#ArialMT-30"/>
       <use x="166.845703" xlink:href="#ArialMT-30"/>
      </g>
     </g>
    </g>
    <g id="xtick_29">
     <g id="text_40">
      <!-- 2000 -->
      <g style="fill:#262626;" transform="translate(1553.106427 206.373594)scale(0.11 -0.11)">
       <use xlink:href="#ArialMT-32"/>
       <use x="55.615234" xlink:href="#ArialMT-30"/>
       <use x="111.230469" xlink:href="#ArialMT-30"/>
       <use x="166.845703" xlink:href="#ArialMT-30"/>
      </g>
     </g>
    </g>
    <g id="xtick_30">
     <g id="text_41">
      <!-- 2500 -->
      <g style="fill:#262626;" transform="translate(1596.837709 206.373594)scale(0.11 -0.11)">
       <use xlink:href="#ArialMT-32"/>
       <use x="55.615234" xlink:href="#ArialMT-35"/>
       <use x="111.230469" xlink:href="#ArialMT-30"/>
       <use x="166.845703" xlink:href="#ArialMT-30"/>
      </g>
     </g>
    </g>
    <g id="text_42">
     <!-- m/z -->
     <g style="fill:#262626;" transform="translate(1490.076692 221.149219)scale(0.12 -0.12)">
      <use xlink:href="#ArialMT-6d"/>
      <use x="83.300781" xlink:href="#ArialMT-2f"/>
      <use x="111.083984" xlink:href="#ArialMT-7a"/>
     </g>
    </g>
   </g>
   <g id="matplotlib.axis_10"/>
   <g id="line2d_5">
    <path clip-path="url(#p991ff93310)" d="M 1390.415361 189 
L 1398.378827 189 
L 1398.3832 188.02152 
L 1398.488155 189 
L 1400.473555 189 
L 1400.569764 187.85844 
L 1400.582884 189 
L 1400.652854 189 
L 1400.657227 186.87996 
L 1400.762182 189 
L 1400.823406 189 
L 1400.827779 186.06456 
L 1400.932734 189 
L 1401.002704 189 
L 1401.007077 187.85844 
L 1401.112032 189 
L 1401.527479 189 
L 1401.531852 188.02152 
L 1401.636808 189 
L 1401.789867 189 
L 1401.79424 187.04304 
L 1401.899195 189 
L 1401.964792 189 
L 1401.969165 171.55044 
L 1402.07412 189 
L 1403.014343 189 
L 1403.018716 170.735039 
L 1403.123671 189 
L 1403.189268 189 
L 1403.281104 186.5538 
L 1403.298596 189 
L 1403.35982 189 
L 1403.368566 187.20612 
L 1403.469148 189 
L 1404.413744 189 
L 1404.50558 167.636521 
L 1404.523072 189 
L 1404.588669 189 
L 1404.593042 113.820122 
L 1404.697997 189 
L 1405.463295 189 
L 1405.55513 183.45528 
L 1405.572623 189 
L 1405.63822 189 
L 1405.730056 187.04304 
L 1405.747548 189 
L 1405.813145 189 
L 1405.817518 177.25824 
L 1405.922473 189 
L 1406.862696 189 
L 1406.867069 163.233358 
L 1406.972024 189 
L 1407.037621 189 
L 1407.129457 150.6762 
L 1407.146949 189 
L 1407.212546 189 
L 1407.216919 186.71688 
L 1407.321874 189 
L 1408.441395 189 
L 1408.445768 184.923 
L 1408.550723 189 
L 1609.067398 189 
L 1609.067398 189 
" style="fill:none;stroke:#ff0000;stroke-linecap:round;stroke-width:0.5;"/>
   </g>
   <g id="patch_23">
    <path d="M 1379.482759 189 
L 1379.482759 25.92 
" style="fill:none;stroke:#262626;stroke-linecap:square;stroke-linejoin:miter;stroke-width:1.25;"/>
   </g>
   <g id="patch_24">
    <path d="M 1620 189 
L 1620 25.92 
" style="fill:none;stroke:#262626;stroke-linecap:square;stroke-linejoin:miter;stroke-width:1.25;"/>
   </g>
   <g id="patch_25">
    <path d="M 1379.482759 189 
L 1620 189 
" style="fill:none;stroke:#262626;stroke-linecap:square;stroke-linejoin:miter;stroke-width:1.25;"/>
   </g>
   <g id="patch_26">
    <path d="M 1379.482759 25.92 
L 1620 25.92 
" style="fill:none;stroke:#262626;stroke-linecap:square;stroke-linejoin:miter;stroke-width:1.25;"/>
   </g>
  </g>
 </g>
 <defs>
  <clipPath id="pde373387e7">
   <rect height="163.08" width="240.517241" x="225" y="25.92"/>
  </clipPath>
  <clipPath id="p8a62389c18">
   <rect height="163.08" width="240.517241" x="513.62069" y="25.92"/>
  </clipPath>
  <clipPath id="p86ea15678f">
   <rect height="163.08" width="240.517241" x="802.241379" y="25.92"/>
  </clipPath>
  <clipPath id="p55c94d6030">
   <rect height="163.08" width="240.517241" x="1090.862069" y="25.92"/>
  </clipPath>
  <clipPath id="p991ff93310">
   <rect height="163.08" width="240.517241" x="1379.482759" y="25.92"/>
  </clipPath>
 </defs>
</svg>
