<?xml version="1.0" encoding="utf-8" standalone="no"?>
<!DOCTYPE svg PUBLIC "-//W3C//DTD SVG 1.1//EN"
  "http://www.w3.org/Graphics/SVG/1.1/DTD/svg11.dtd">
<svg height="216pt" version="1.1" viewBox="0 0 1800 216" width="1800pt" xmlns="http://www.w3.org/2000/svg" xmlns:xlink="http://www.w3.org/1999/xlink">
 <metadata>
  <rdf:RDF xmlns:cc="http://creativecommons.org/ns#" xmlns:dc="http://purl.org/dc/elements/1.1/" xmlns:rdf="http://www.w3.org/1999/02/22-rdf-syntax-ns#">
   <cc:Work>
    <dc:type rdf:resource="http://purl.org/dc/dcmitype/StillImage"/>
    <dc:date>2022-05-16T21:27:37.777637</dc:date>
    <dc:format>image/svg+xml</dc:format>
    <dc:creator>
     <cc:Agent>
      <dc:title>Matplotlib v3.4.2, https://matplotlib.org/</dc:title>
     </cc:Agent>
    </dc:creator>
   </cc:Work>
  </rdf:RDF>
 </metadata>
 <defs>
  <style type="text/css">*{stroke-linecap:butt;stroke-linejoin:round;}</style>
 </defs>
 <g id="figure_1">
  <g id="patch_1">
   <path d="M 0 216 
L 1800 216 
L 1800 0 
L 0 0 
z
" style="fill:#ffffff;"/>
  </g>
  <g id="axes_1">
   <g id="patch_2">
    <path d="M 225 189 
L 465.517241 189 
L 465.517241 25.92 
L 225 25.92 
z
" style="fill:#ffffff;"/>
   </g>
   <g id="matplotlib.axis_1">
    <g id="xtick_1">
     <g id="text_1">
      <!-- 0 -->
      <g style="fill:#262626;" transform="translate(232.874086 206.373594)scale(0.11 -0.11)">
       <defs>
        <path d="M 266 2259 
Q 266 3072 433 3567 
Q 600 4063 929 4331 
Q 1259 4600 1759 4600 
Q 2128 4600 2406 4451 
Q 2684 4303 2865 4023 
Q 3047 3744 3150 3342 
Q 3253 2941 3253 2259 
Q 3253 1453 3087 958 
Q 2922 463 2592 192 
Q 2263 -78 1759 -78 
Q 1097 -78 719 397 
Q 266 969 266 2259 
z
M 844 2259 
Q 844 1131 1108 757 
Q 1372 384 1759 384 
Q 2147 384 2411 759 
Q 2675 1134 2675 2259 
Q 2675 3391 2411 3762 
Q 2147 4134 1753 4134 
Q 1366 4134 1134 3806 
Q 844 3388 844 2259 
z
" id="ArialMT-30" transform="scale(0.015625)"/>
       </defs>
       <use xlink:href="#ArialMT-30"/>
      </g>
     </g>
    </g>
    <g id="xtick_2">
     <g id="text_2">
      <!-- 500 -->
      <g style="fill:#262626;" transform="translate(270.488337 206.373594)scale(0.11 -0.11)">
       <defs>
        <path d="M 266 1200 
L 856 1250 
Q 922 819 1161 601 
Q 1400 384 1738 384 
Q 2144 384 2425 690 
Q 2706 997 2706 1503 
Q 2706 1984 2436 2262 
Q 2166 2541 1728 2541 
Q 1456 2541 1237 2417 
Q 1019 2294 894 2097 
L 366 2166 
L 809 4519 
L 3088 4519 
L 3088 3981 
L 1259 3981 
L 1013 2750 
Q 1425 3038 1878 3038 
Q 2478 3038 2890 2622 
Q 3303 2206 3303 1553 
Q 3303 931 2941 478 
Q 2500 -78 1738 -78 
Q 1113 -78 717 272 
Q 322 622 266 1200 
z
" id="ArialMT-35" transform="scale(0.015625)"/>
       </defs>
       <use xlink:href="#ArialMT-35"/>
       <use x="55.615234" xlink:href="#ArialMT-30"/>
       <use x="111.230469" xlink:href="#ArialMT-30"/>
      </g>
     </g>
    </g>
    <g id="xtick_3">
     <g id="text_3">
      <!-- 1000 -->
      <g style="fill:#262626;" transform="translate(311.161104 206.373594)scale(0.11 -0.11)">
       <defs>
        <path d="M 2384 0 
L 1822 0 
L 1822 3584 
Q 1619 3391 1289 3197 
Q 959 3003 697 2906 
L 697 3450 
Q 1169 3672 1522 3987 
Q 1875 4303 2022 4600 
L 2384 4600 
L 2384 0 
z
" id="ArialMT-31" transform="scale(0.015625)"/>
       </defs>
       <use xlink:href="#ArialMT-31"/>
       <use x="55.615234" xlink:href="#ArialMT-30"/>
       <use x="111.230469" xlink:href="#ArialMT-30"/>
       <use x="166.845703" xlink:href="#ArialMT-30"/>
      </g>
     </g>
    </g>
    <g id="xtick_4">
     <g id="text_4">
      <!-- 1500 -->
      <g style="fill:#262626;" transform="translate(354.892386 206.373594)scale(0.11 -0.11)">
       <use xlink:href="#ArialMT-31"/>
       <use x="55.615234" xlink:href="#ArialMT-35"/>
       <use x="111.230469" xlink:href="#ArialMT-30"/>
       <use x="166.845703" xlink:href="#ArialMT-30"/>
      </g>
     </g>
    </g>
    <g id="xtick_5">
     <g id="text_5">
      <!-- 2000 -->
      <g style="fill:#262626;" transform="translate(398.623668 206.373594)scale(0.11 -0.11)">
       <defs>
        <path d="M 3222 541 
L 3222 0 
L 194 0 
Q 188 203 259 391 
Q 375 700 629 1000 
Q 884 1300 1366 1694 
Q 2113 2306 2375 2664 
Q 2638 3022 2638 3341 
Q 2638 3675 2398 3904 
Q 2159 4134 1775 4134 
Q 1369 4134 1125 3890 
Q 881 3647 878 3216 
L 300 3275 
Q 359 3922 746 4261 
Q 1134 4600 1788 4600 
Q 2447 4600 2831 4234 
Q 3216 3869 3216 3328 
Q 3216 3053 3103 2787 
Q 2991 2522 2730 2228 
Q 2469 1934 1863 1422 
Q 1356 997 1212 845 
Q 1069 694 975 541 
L 3222 541 
z
" id="ArialMT-32" transform="scale(0.015625)"/>
       </defs>
       <use xlink:href="#ArialMT-32"/>
       <use x="55.615234" xlink:href="#ArialMT-30"/>
       <use x="111.230469" xlink:href="#ArialMT-30"/>
       <use x="166.845703" xlink:href="#ArialMT-30"/>
      </g>
     </g>
    </g>
    <g id="xtick_6">
     <g id="text_6">
      <!-- 2500 -->
      <g style="fill:#262626;" transform="translate(442.35495 206.373594)scale(0.11 -0.11)">
       <use xlink:href="#ArialMT-32"/>
       <use x="55.615234" xlink:href="#ArialMT-35"/>
       <use x="111.230469" xlink:href="#ArialMT-30"/>
       <use x="166.845703" xlink:href="#ArialMT-30"/>
      </g>
     </g>
    </g>
    <g id="text_7">
     <!-- m/z -->
     <g style="fill:#262626;" transform="translate(335.593933 221.149219)scale(0.12 -0.12)">
      <defs>
       <path d="M 422 0 
L 422 3319 
L 925 3319 
L 925 2853 
Q 1081 3097 1340 3245 
Q 1600 3394 1931 3394 
Q 2300 3394 2536 3241 
Q 2772 3088 2869 2813 
Q 3263 3394 3894 3394 
Q 4388 3394 4653 3120 
Q 4919 2847 4919 2278 
L 4919 0 
L 4359 0 
L 4359 2091 
Q 4359 2428 4304 2576 
Q 4250 2725 4106 2815 
Q 3963 2906 3769 2906 
Q 3419 2906 3187 2673 
Q 2956 2441 2956 1928 
L 2956 0 
L 2394 0 
L 2394 2156 
Q 2394 2531 2256 2718 
Q 2119 2906 1806 2906 
Q 1569 2906 1367 2781 
Q 1166 2656 1075 2415 
Q 984 2175 984 1722 
L 984 0 
L 422 0 
z
" id="ArialMT-6d" transform="scale(0.015625)"/>
       <path d="M 0 -78 
L 1328 4659 
L 1778 4659 
L 453 -78 
L 0 -78 
z
" id="ArialMT-2f" transform="scale(0.015625)"/>
       <path d="M 125 0 
L 125 456 
L 2238 2881 
Q 1878 2863 1603 2863 
L 250 2863 
L 250 3319 
L 2963 3319 
L 2963 2947 
L 1166 841 
L 819 456 
Q 1197 484 1528 484 
L 3063 484 
L 3063 0 
L 125 0 
z
" id="ArialMT-7a" transform="scale(0.015625)"/>
      </defs>
      <use xlink:href="#ArialMT-6d"/>
      <use x="83.300781" xlink:href="#ArialMT-2f"/>
      <use x="111.083984" xlink:href="#ArialMT-7a"/>
     </g>
    </g>
   </g>
   <g id="matplotlib.axis_2">
    <g id="ytick_1">
     <g id="text_8">
      <!-- 0 -->
      <g style="fill:#262626;" transform="translate(209.382969 192.936797)scale(0.11 -0.11)">
       <use xlink:href="#ArialMT-30"/>
      </g>
     </g>
    </g>
    <g id="ytick_2">
     <g id="text_9">
      <!-- 20 -->
      <g style="fill:#262626;" transform="translate(203.265938 160.320797)scale(0.11 -0.11)">
       <use xlink:href="#ArialMT-32"/>
       <use x="55.615234" xlink:href="#ArialMT-30"/>
      </g>
     </g>
    </g>
    <g id="ytick_3">
     <g id="text_10">
      <!-- 40 -->
      <g style="fill:#262626;" transform="translate(203.265938 127.704797)scale(0.11 -0.11)">
       <defs>
        <path d="M 2069 0 
L 2069 1097 
L 81 1097 
L 81 1613 
L 2172 4581 
L 2631 4581 
L 2631 1613 
L 3250 1613 
L 3250 1097 
L 2631 1097 
L 2631 0 
L 2069 0 
z
M 2069 1613 
L 2069 3678 
L 634 1613 
L 2069 1613 
z
" id="ArialMT-34" transform="scale(0.015625)"/>
       </defs>
       <use xlink:href="#ArialMT-34"/>
       <use x="55.615234" xlink:href="#ArialMT-30"/>
      </g>
     </g>
    </g>
    <g id="ytick_4">
     <g id="text_11">
      <!-- 60 -->
      <g style="fill:#262626;" transform="translate(203.265938 95.088797)scale(0.11 -0.11)">
       <defs>
        <path d="M 3184 3459 
L 2625 3416 
Q 2550 3747 2413 3897 
Q 2184 4138 1850 4138 
Q 1581 4138 1378 3988 
Q 1113 3794 959 3422 
Q 806 3050 800 2363 
Q 1003 2672 1297 2822 
Q 1591 2972 1913 2972 
Q 2475 2972 2870 2558 
Q 3266 2144 3266 1488 
Q 3266 1056 3080 686 
Q 2894 316 2569 119 
Q 2244 -78 1831 -78 
Q 1128 -78 684 439 
Q 241 956 241 2144 
Q 241 3472 731 4075 
Q 1159 4600 1884 4600 
Q 2425 4600 2770 4297 
Q 3116 3994 3184 3459 
z
M 888 1484 
Q 888 1194 1011 928 
Q 1134 663 1356 523 
Q 1578 384 1822 384 
Q 2178 384 2434 671 
Q 2691 959 2691 1453 
Q 2691 1928 2437 2201 
Q 2184 2475 1800 2475 
Q 1419 2475 1153 2201 
Q 888 1928 888 1484 
z
" id="ArialMT-36" transform="scale(0.015625)"/>
       </defs>
       <use xlink:href="#ArialMT-36"/>
       <use x="55.615234" xlink:href="#ArialMT-30"/>
      </g>
     </g>
    </g>
    <g id="ytick_5">
     <g id="text_12">
      <!-- 80 -->
      <g style="fill:#262626;" transform="translate(203.265938 62.472797)scale(0.11 -0.11)">
       <defs>
        <path d="M 1131 2484 
Q 781 2613 612 2850 
Q 444 3088 444 3419 
Q 444 3919 803 4259 
Q 1163 4600 1759 4600 
Q 2359 4600 2725 4251 
Q 3091 3903 3091 3403 
Q 3091 3084 2923 2848 
Q 2756 2613 2416 2484 
Q 2838 2347 3058 2040 
Q 3278 1734 3278 1309 
Q 3278 722 2862 322 
Q 2447 -78 1769 -78 
Q 1091 -78 675 323 
Q 259 725 259 1325 
Q 259 1772 486 2073 
Q 713 2375 1131 2484 
z
M 1019 3438 
Q 1019 3113 1228 2906 
Q 1438 2700 1772 2700 
Q 2097 2700 2305 2904 
Q 2513 3109 2513 3406 
Q 2513 3716 2298 3927 
Q 2084 4138 1766 4138 
Q 1444 4138 1231 3931 
Q 1019 3725 1019 3438 
z
M 838 1322 
Q 838 1081 952 856 
Q 1066 631 1291 507 
Q 1516 384 1775 384 
Q 2178 384 2440 643 
Q 2703 903 2703 1303 
Q 2703 1709 2433 1975 
Q 2163 2241 1756 2241 
Q 1359 2241 1098 1978 
Q 838 1716 838 1322 
z
" id="ArialMT-38" transform="scale(0.015625)"/>
       </defs>
       <use xlink:href="#ArialMT-38"/>
       <use x="55.615234" xlink:href="#ArialMT-30"/>
      </g>
     </g>
    </g>
    <g id="ytick_6">
     <g id="text_13">
      <!-- 100 -->
      <g style="fill:#262626;" transform="translate(197.148906 29.856797)scale(0.11 -0.11)">
       <use xlink:href="#ArialMT-31"/>
       <use x="55.615234" xlink:href="#ArialMT-30"/>
       <use x="111.230469" xlink:href="#ArialMT-30"/>
      </g>
     </g>
    </g>
    <g id="text_14">
     <!-- Intensity [%] -->
     <g style="fill:#262626;" transform="translate(190.623281 140.139375)rotate(-90)scale(0.12 -0.12)">
      <defs>
       <path d="M 597 0 
L 597 4581 
L 1203 4581 
L 1203 0 
L 597 0 
z
" id="ArialMT-49" transform="scale(0.015625)"/>
       <path d="M 422 0 
L 422 3319 
L 928 3319 
L 928 2847 
Q 1294 3394 1984 3394 
Q 2284 3394 2536 3286 
Q 2788 3178 2913 3003 
Q 3038 2828 3088 2588 
Q 3119 2431 3119 2041 
L 3119 0 
L 2556 0 
L 2556 2019 
Q 2556 2363 2490 2533 
Q 2425 2703 2258 2804 
Q 2091 2906 1866 2906 
Q 1506 2906 1245 2678 
Q 984 2450 984 1813 
L 984 0 
L 422 0 
z
" id="ArialMT-6e" transform="scale(0.015625)"/>
       <path d="M 1650 503 
L 1731 6 
Q 1494 -44 1306 -44 
Q 1000 -44 831 53 
Q 663 150 594 308 
Q 525 466 525 972 
L 525 2881 
L 113 2881 
L 113 3319 
L 525 3319 
L 525 4141 
L 1084 4478 
L 1084 3319 
L 1650 3319 
L 1650 2881 
L 1084 2881 
L 1084 941 
Q 1084 700 1114 631 
Q 1144 563 1211 522 
Q 1278 481 1403 481 
Q 1497 481 1650 503 
z
" id="ArialMT-74" transform="scale(0.015625)"/>
       <path d="M 2694 1069 
L 3275 997 
Q 3138 488 2766 206 
Q 2394 -75 1816 -75 
Q 1088 -75 661 373 
Q 234 822 234 1631 
Q 234 2469 665 2931 
Q 1097 3394 1784 3394 
Q 2450 3394 2872 2941 
Q 3294 2488 3294 1666 
Q 3294 1616 3291 1516 
L 816 1516 
Q 847 969 1125 678 
Q 1403 388 1819 388 
Q 2128 388 2347 550 
Q 2566 713 2694 1069 
z
M 847 1978 
L 2700 1978 
Q 2663 2397 2488 2606 
Q 2219 2931 1791 2931 
Q 1403 2931 1139 2672 
Q 875 2413 847 1978 
z
" id="ArialMT-65" transform="scale(0.015625)"/>
       <path d="M 197 991 
L 753 1078 
Q 800 744 1014 566 
Q 1228 388 1613 388 
Q 2000 388 2187 545 
Q 2375 703 2375 916 
Q 2375 1106 2209 1216 
Q 2094 1291 1634 1406 
Q 1016 1563 777 1677 
Q 538 1791 414 1992 
Q 291 2194 291 2438 
Q 291 2659 392 2848 
Q 494 3038 669 3163 
Q 800 3259 1026 3326 
Q 1253 3394 1513 3394 
Q 1903 3394 2198 3281 
Q 2494 3169 2634 2976 
Q 2775 2784 2828 2463 
L 2278 2388 
Q 2241 2644 2061 2787 
Q 1881 2931 1553 2931 
Q 1166 2931 1000 2803 
Q 834 2675 834 2503 
Q 834 2394 903 2306 
Q 972 2216 1119 2156 
Q 1203 2125 1616 2013 
Q 2213 1853 2448 1751 
Q 2684 1650 2818 1456 
Q 2953 1263 2953 975 
Q 2953 694 2789 445 
Q 2625 197 2315 61 
Q 2006 -75 1616 -75 
Q 969 -75 630 194 
Q 291 463 197 991 
z
" id="ArialMT-73" transform="scale(0.015625)"/>
       <path d="M 425 3934 
L 425 4581 
L 988 4581 
L 988 3934 
L 425 3934 
z
M 425 0 
L 425 3319 
L 988 3319 
L 988 0 
L 425 0 
z
" id="ArialMT-69" transform="scale(0.015625)"/>
       <path d="M 397 -1278 
L 334 -750 
Q 519 -800 656 -800 
Q 844 -800 956 -737 
Q 1069 -675 1141 -563 
Q 1194 -478 1313 -144 
Q 1328 -97 1363 -6 
L 103 3319 
L 709 3319 
L 1400 1397 
Q 1534 1031 1641 628 
Q 1738 1016 1872 1384 
L 2581 3319 
L 3144 3319 
L 1881 -56 
Q 1678 -603 1566 -809 
Q 1416 -1088 1222 -1217 
Q 1028 -1347 759 -1347 
Q 597 -1347 397 -1278 
z
" id="ArialMT-79" transform="scale(0.015625)"/>
       <path id="ArialMT-20" transform="scale(0.015625)"/>
       <path d="M 434 -1272 
L 434 4581 
L 1675 4581 
L 1675 4116 
L 997 4116 
L 997 -806 
L 1675 -806 
L 1675 -1272 
L 434 -1272 
z
" id="ArialMT-5b" transform="scale(0.015625)"/>
       <path d="M 372 3481 
Q 372 3972 619 4315 
Q 866 4659 1334 4659 
Q 1766 4659 2048 4351 
Q 2331 4044 2331 3447 
Q 2331 2866 2045 2552 
Q 1759 2238 1341 2238 
Q 925 2238 648 2547 
Q 372 2856 372 3481 
z
M 1350 4272 
Q 1141 4272 1002 4090 
Q 863 3909 863 3425 
Q 863 2984 1003 2804 
Q 1144 2625 1350 2625 
Q 1563 2625 1702 2806 
Q 1841 2988 1841 3469 
Q 1841 3913 1700 4092 
Q 1559 4272 1350 4272 
z
M 1353 -169 
L 3859 4659 
L 4316 4659 
L 1819 -169 
L 1353 -169 
z
M 3334 1075 
Q 3334 1569 3581 1911 
Q 3828 2253 4300 2253 
Q 4731 2253 5014 1945 
Q 5297 1638 5297 1041 
Q 5297 459 5011 145 
Q 4725 -169 4303 -169 
Q 3888 -169 3611 142 
Q 3334 453 3334 1075 
z
M 4316 1866 
Q 4103 1866 3964 1684 
Q 3825 1503 3825 1019 
Q 3825 581 3965 400 
Q 4106 219 4313 219 
Q 4528 219 4667 400 
Q 4806 581 4806 1063 
Q 4806 1506 4665 1686 
Q 4525 1866 4316 1866 
z
" id="ArialMT-25" transform="scale(0.015625)"/>
       <path d="M 1363 -1272 
L 122 -1272 
L 122 -806 
L 800 -806 
L 800 4116 
L 122 4116 
L 122 4581 
L 1363 4581 
L 1363 -1272 
z
" id="ArialMT-5d" transform="scale(0.015625)"/>
      </defs>
      <use xlink:href="#ArialMT-49"/>
      <use x="27.783203" xlink:href="#ArialMT-6e"/>
      <use x="83.398438" xlink:href="#ArialMT-74"/>
      <use x="111.181641" xlink:href="#ArialMT-65"/>
      <use x="166.796875" xlink:href="#ArialMT-6e"/>
      <use x="222.412109" xlink:href="#ArialMT-73"/>
      <use x="272.412109" xlink:href="#ArialMT-69"/>
      <use x="294.628906" xlink:href="#ArialMT-74"/>
      <use x="322.412109" xlink:href="#ArialMT-79"/>
      <use x="372.412109" xlink:href="#ArialMT-20"/>
      <use x="400.195312" xlink:href="#ArialMT-5b"/>
      <use x="427.978516" xlink:href="#ArialMT-25"/>
      <use x="516.894531" xlink:href="#ArialMT-5d"/>
     </g>
    </g>
   </g>
   <g id="line2d_1">
    <path clip-path="url(#p05f60a5726)" d="M 235.932602 189 
L 242.662846 189 
L 242.667219 188.504331 
L 242.772174 189 
L 243.882949 189 
L 243.887322 188.443675 
L 243.992277 189 
L 244.49956 189 
L 244.591396 150.942608 
L 244.608888 189 
L 244.674485 189 
L 244.678858 188.479856 
L 244.766321 189 
L 244.770694 107.649598 
L 244.875649 189 
L 245.111798 189 
L 245.124917 187.938622 
L 245.221126 189 
L 245.291096 189 
L 245.295469 175.4068 
L 245.400424 189 
L 245.417917 189 
L 245.42229 187.956999 
L 245.527245 189 
L 246.078259 189 
L 246.082632 133.253134 
L 246.187588 189 
L 246.253184 189 
L 246.257558 187.67269 
L 246.362513 189 
L 246.690497 189 
L 246.69487 186.303554 
L 246.799825 189 
L 246.865422 189 
L 246.869796 180.824845 
L 246.974751 189 
L 247.254631 189 
L 247.259004 188.055114 
L 247.363959 189 
L 247.56075 189 
L 247.565123 183.821709 
L 247.670078 189 
L 247.735675 189 
L 247.740048 185.975712 
L 247.845003 189 
L 247.914973 189 
L 247.919346 182.641697 
L 248.024301 189 
L 248.041794 189 
L 248.046167 185.766678 
L 248.151122 189 
L 248.702136 189 
L 248.706509 171.925214 
L 248.811464 189 
L 248.881435 189 
L 248.885808 186.667289 
L 248.990763 189 
L 249.047613 189 
L 249.139449 185.50305 
L 249.156942 189 
L 249.843523 189 
L 249.847896 186.114882 
L 249.952851 189 
L 250.005328 189 
L 250.009702 188.535163 
L 250.114657 189 
L 250.272089 189 
L 250.276462 187.671134 
L 250.381418 189 
L 250.442641 189 
L 250.447014 188.386707 
L 250.55197 189 
L 251.247297 189 
L 251.330386 188.419207 
L 251.356625 189 
L 251.409103 189 
L 251.413476 183.37761 
L 251.417849 189 
L 251.422222 25.92 
L 251.527177 189 
L 251.588401 189 
L 251.592774 187.784394 
L 251.697729 189 
L 252.983429 189 
L 252.987802 184.29983 
L 253.092757 189 
L 454.584639 189 
L 454.584639 189 
" style="fill:none;stroke:#ff0000;stroke-linecap:round;stroke-width:0.5;"/>
   </g>
   <g id="patch_3">
    <path d="M 225 189 
L 225 25.92 
" style="fill:none;stroke:#262626;stroke-linecap:square;stroke-linejoin:miter;stroke-width:1.25;"/>
   </g>
   <g id="patch_4">
    <path d="M 465.517241 189 
L 465.517241 25.92 
" style="fill:none;stroke:#262626;stroke-linecap:square;stroke-linejoin:miter;stroke-width:1.25;"/>
   </g>
   <g id="patch_5">
    <path d="M 225 189 
L 465.517241 189 
" style="fill:none;stroke:#262626;stroke-linecap:square;stroke-linejoin:miter;stroke-width:1.25;"/>
   </g>
   <g id="patch_6">
    <path d="M 225 25.92 
L 465.517241 25.92 
" style="fill:none;stroke:#262626;stroke-linecap:square;stroke-linejoin:miter;stroke-width:1.25;"/>
   </g>
  </g>
  <g id="axes_2">
   <g id="patch_7">
    <path d="M 513.62069 189 
L 754.137931 189 
L 754.137931 25.92 
L 513.62069 25.92 
z
" style="fill:#ffffff;"/>
   </g>
   <g id="matplotlib.axis_3">
    <g id="xtick_7">
     <g id="text_15">
      <!-- 0 -->
      <g style="fill:#262626;" transform="translate(521.494776 206.373594)scale(0.11 -0.11)">
       <use xlink:href="#ArialMT-30"/>
      </g>
     </g>
    </g>
    <g id="xtick_8">
     <g id="text_16">
      <!-- 500 -->
      <g style="fill:#262626;" transform="translate(559.109027 206.373594)scale(0.11 -0.11)">
       <use xlink:href="#ArialMT-35"/>
       <use x="55.615234" xlink:href="#ArialMT-30"/>
       <use x="111.230469" xlink:href="#ArialMT-30"/>
      </g>
     </g>
    </g>
    <g id="xtick_9">
     <g id="text_17">
      <!-- 1000 -->
      <g style="fill:#262626;" transform="translate(599.781793 206.373594)scale(0.11 -0.11)">
       <use xlink:href="#ArialMT-31"/>
       <use x="55.615234" xlink:href="#ArialMT-30"/>
       <use x="111.230469" xlink:href="#ArialMT-30"/>
       <use x="166.845703" xlink:href="#ArialMT-30"/>
      </g>
     </g>
    </g>
    <g id="xtick_10">
     <g id="text_18">
      <!-- 1500 -->
      <g style="fill:#262626;" transform="translate(643.513075 206.373594)scale(0.11 -0.11)">
       <use xlink:href="#ArialMT-31"/>
       <use x="55.615234" xlink:href="#ArialMT-35"/>
       <use x="111.230469" xlink:href="#ArialMT-30"/>
       <use x="166.845703" xlink:href="#ArialMT-30"/>
      </g>
     </g>
    </g>
    <g id="xtick_11">
     <g id="text_19">
      <!-- 2000 -->
      <g style="fill:#262626;" transform="translate(687.244358 206.373594)scale(0.11 -0.11)">
       <use xlink:href="#ArialMT-32"/>
       <use x="55.615234" xlink:href="#ArialMT-30"/>
       <use x="111.230469" xlink:href="#ArialMT-30"/>
       <use x="166.845703" xlink:href="#ArialMT-30"/>
      </g>
     </g>
    </g>
    <g id="xtick_12">
     <g id="text_20">
      <!-- 2500 -->
      <g style="fill:#262626;" transform="translate(730.97564 206.373594)scale(0.11 -0.11)">
       <use xlink:href="#ArialMT-32"/>
       <use x="55.615234" xlink:href="#ArialMT-35"/>
       <use x="111.230469" xlink:href="#ArialMT-30"/>
       <use x="166.845703" xlink:href="#ArialMT-30"/>
      </g>
     </g>
    </g>
    <g id="text_21">
     <!-- m/z -->
     <g style="fill:#262626;" transform="translate(624.214623 221.149219)scale(0.12 -0.12)">
      <use xlink:href="#ArialMT-6d"/>
      <use x="83.300781" xlink:href="#ArialMT-2f"/>
      <use x="111.083984" xlink:href="#ArialMT-7a"/>
     </g>
    </g>
   </g>
   <g id="matplotlib.axis_4"/>
   <g id="line2d_2">
    <path clip-path="url(#p224b959853)" d="M 524.553292 189 
L 534.61586 189 
L 534.620233 187.506445 
L 534.725188 189 
L 534.790785 189 
L 534.795158 187.420207 
L 534.900113 189 
L 535.927798 189 
L 535.932171 183.852887 
L 536.037126 189 
L 536.977349 189 
L 536.981722 187.766221 
L 537.064811 189 
L 537.069184 50.787311 
L 537.17414 189 
L 537.239736 189 
L 537.248483 187.88086 
L 537.349065 189 
L 538.0269 189 
L 538.118735 187.988513 
L 538.136228 189 
L 538.201825 189 
L 538.29366 171.103528 
L 538.311153 189 
L 538.37675 189 
L 538.381123 186.268671 
L 538.486078 189 
L 539.163913 189 
L 539.255749 181.534122 
L 539.273241 189 
L 539.338838 189 
L 539.430674 187.610147 
L 539.448166 189 
L 539.518136 189 
L 539.522509 187.32183 
L 539.605599 189 
L 539.609972 25.92 
L 539.714927 189 
L 540.300926 189 
L 540.392762 175.407843 
L 540.410254 189 
L 540.475851 189 
L 540.480224 175.990466 
L 540.58518 189 
L 540.742612 189 
L 540.746985 187.861498 
L 540.85194 189 
L 541.525402 189 
L 541.621611 168.905205 
L 541.63473 189 
L 541.7047 189 
L 541.709074 175.666283 
L 541.814029 189 
L 541.875252 189 
L 541.883999 188.187001 
L 541.984581 189 
L 542.054551 189 
L 542.058924 187.857623 
L 542.163879 189 
L 542.749878 189 
L 542.846087 180.738527 
L 542.859206 189 
L 542.929176 189 
L 542.933549 172.803737 
L 543.038505 189 
L 543.974354 189 
L 544.06619 187.410464 
L 544.083682 189 
L 544.153652 189 
L 544.158025 188.198858 
L 544.26298 189 
L 544.503502 189 
L 544.507876 186.856977 
L 544.612831 189 
L 545.290666 189 
L 545.295039 188.032329 
L 545.399994 189 
L 546.602604 189 
L 546.606977 188.231306 
L 546.711932 189 
L 743.205329 189 
L 743.205329 189 
" style="fill:none;stroke:#ff0000;stroke-linecap:round;stroke-width:0.5;"/>
   </g>
   <g id="patch_8">
    <path d="M 513.62069 189 
L 513.62069 25.92 
" style="fill:none;stroke:#262626;stroke-linecap:square;stroke-linejoin:miter;stroke-width:1.25;"/>
   </g>
   <g id="patch_9">
    <path d="M 754.137931 189 
L 754.137931 25.92 
" style="fill:none;stroke:#262626;stroke-linecap:square;stroke-linejoin:miter;stroke-width:1.25;"/>
   </g>
   <g id="patch_10">
    <path d="M 513.62069 189 
L 754.137931 189 
" style="fill:none;stroke:#262626;stroke-linecap:square;stroke-linejoin:miter;stroke-width:1.25;"/>
   </g>
   <g id="patch_11">
    <path d="M 513.62069 25.92 
L 754.137931 25.92 
" style="fill:none;stroke:#262626;stroke-linecap:square;stroke-linejoin:miter;stroke-width:1.25;"/>
   </g>
  </g>
  <g id="axes_3">
   <g id="patch_12">
    <path d="M 802.241379 189 
L 1042.758621 189 
L 1042.758621 25.92 
L 802.241379 25.92 
z
" style="fill:#ffffff;"/>
   </g>
   <g id="matplotlib.axis_5">
    <g id="xtick_13">
     <g id="text_22">
      <!-- 0 -->
      <g style="fill:#262626;" transform="translate(810.115466 206.373594)scale(0.11 -0.11)">
       <use xlink:href="#ArialMT-30"/>
      </g>
     </g>
    </g>
    <g id="xtick_14">
     <g id="text_23">
      <!-- 500 -->
      <g style="fill:#262626;" transform="translate(847.729716 206.373594)scale(0.11 -0.11)">
       <use xlink:href="#ArialMT-35"/>
       <use x="55.615234" xlink:href="#ArialMT-30"/>
       <use x="111.230469" xlink:href="#ArialMT-30"/>
      </g>
     </g>
    </g>
    <g id="xtick_15">
     <g id="text_24">
      <!-- 1000 -->
      <g style="fill:#262626;" transform="translate(888.402483 206.373594)scale(0.11 -0.11)">
       <use xlink:href="#ArialMT-31"/>
       <use x="55.615234" xlink:href="#ArialMT-30"/>
       <use x="111.230469" xlink:href="#ArialMT-30"/>
       <use x="166.845703" xlink:href="#ArialMT-30"/>
      </g>
     </g>
    </g>
    <g id="xtick_16">
     <g id="text_25">
      <!-- 1500 -->
      <g style="fill:#262626;" transform="translate(932.133765 206.373594)scale(0.11 -0.11)">
       <use xlink:href="#ArialMT-31"/>
       <use x="55.615234" xlink:href="#ArialMT-35"/>
       <use x="111.230469" xlink:href="#ArialMT-30"/>
       <use x="166.845703" xlink:href="#ArialMT-30"/>
      </g>
     </g>
    </g>
    <g id="xtick_17">
     <g id="text_26">
      <!-- 2000 -->
      <g style="fill:#262626;" transform="translate(975.865047 206.373594)scale(0.11 -0.11)">
       <use xlink:href="#ArialMT-32"/>
       <use x="55.615234" xlink:href="#ArialMT-30"/>
       <use x="111.230469" xlink:href="#ArialMT-30"/>
       <use x="166.845703" xlink:href="#ArialMT-30"/>
      </g>
     </g>
    </g>
    <g id="xtick_18">
     <g id="text_27">
      <!-- 2500 -->
      <g style="fill:#262626;" transform="translate(1019.596329 206.373594)scale(0.11 -0.11)">
       <use xlink:href="#ArialMT-32"/>
       <use x="55.615234" xlink:href="#ArialMT-35"/>
       <use x="111.230469" xlink:href="#ArialMT-30"/>
       <use x="166.845703" xlink:href="#ArialMT-30"/>
      </g>
     </g>
    </g>
    <g id="text_28">
     <!-- m/z -->
     <g style="fill:#262626;" transform="translate(912.835313 221.149219)scale(0.12 -0.12)">
      <use xlink:href="#ArialMT-6d"/>
      <use x="83.300781" xlink:href="#ArialMT-2f"/>
      <use x="111.083984" xlink:href="#ArialMT-7a"/>
     </g>
    </g>
   </g>
   <g id="matplotlib.axis_6"/>
   <g id="line2d_3">
    <path clip-path="url(#p6dffce962c)" d="M 813.173981 189 
L 818.334272 189 
L 818.338646 175.445353 
L 818.443601 189 
L 820.166613 189 
L 820.170986 182.633366 
L 820.275941 189 
L 821.308 189 
L 821.312373 188.347895 
L 821.417328 189 
L 821.653477 189 
L 821.65785 115.216571 
L 821.762805 189 
L 821.911491 189 
L 821.915864 186.026776 
L 822.02082 189 
L 824.797756 189 
L 824.802129 188.064938 
L 824.907084 189 
L 824.972681 189 
L 824.977054 186.701011 
L 825.082009 189 
L 826.030978 189 
L 826.035351 186.04377 
L 826.140306 189 
L 826.210276 189 
L 826.21465 187.830146 
L 826.319605 189 
L 826.909977 189 
L 826.91435 188.229957 
L 827.019305 189 
L 827.080529 189 
L 827.084902 184.41643 
L 827.189857 189 
L 827.259827 189 
L 827.2642 187.846653 
L 827.369155 189 
L 827.412887 189 
L 827.434752 188.26668 
L 827.522215 189 
L 827.963901 189 
L 827.968274 187.737195 
L 828.073229 189 
L 828.134453 189 
L 828.138826 184.293239 
L 828.243781 189 
L 828.309378 189 
L 828.313751 121.284082 
L 828.418706 189 
L 828.47993 189 
L 828.484303 181.314361 
L 828.589258 189 
L 828.659228 189 
L 828.746691 176.729096 
L 828.768556 189 
L 829.271466 189 
L 829.275839 184.589568 
L 829.380794 189 
L 829.533854 189 
L 829.538227 161.626214 
L 829.643182 189 
L 829.879331 189 
L 829.883704 152.128246 
L 829.988659 189 
L 830.233554 189 
L 830.237927 188.402488 
L 830.342883 189 
L 830.408479 189 
L 830.500315 187.510674 
L 830.517808 189 
L 830.583405 189 
L 830.587778 25.92 
L 830.692733 189 
L 830.75833 189 
L 830.762703 187.641526 
L 830.867658 189 
L 830.928882 189 
L 830.933255 35.753336 
L 831.03821 189 
L 831.10818 189 
L 831.112553 187.112465 
L 831.217508 189 
L 831.807881 189 
L 831.812254 179.434107 
L 831.917209 189 
L 831.982806 189 
L 831.987179 187.678463 
L 832.092134 189 
L 832.157731 189 
L 832.162104 187.316585 
L 832.267059 189 
L 832.428865 189 
L 832.433238 188.13095 
L 832.538193 189 
L 833.382207 189 
L 833.38658 187.103924 
L 833.491535 189 
L 833.557132 189 
L 833.561505 187.809761 
L 833.66646 189 
L 834.081907 189 
L 834.08628 188.420874 
L 834.191235 189 
L 834.256832 189 
L 834.261205 187.500902 
L 834.366161 189 
L 834.431757 189 
L 834.436131 184.174688 
L 834.541086 189 
L 835.656233 189 
L 835.660606 188.281711 
L 835.765562 189 
L 1031.826019 189 
L 1031.826019 189 
" style="fill:none;stroke:#ff0000;stroke-linecap:round;stroke-width:0.5;"/>
   </g>
   <g id="patch_13">
    <path d="M 802.241379 189 
L 802.241379 25.92 
" style="fill:none;stroke:#262626;stroke-linecap:square;stroke-linejoin:miter;stroke-width:1.25;"/>
   </g>
   <g id="patch_14">
    <path d="M 1042.758621 189 
L 1042.758621 25.92 
" style="fill:none;stroke:#262626;stroke-linecap:square;stroke-linejoin:miter;stroke-width:1.25;"/>
   </g>
   <g id="patch_15">
    <path d="M 802.241379 189 
L 1042.758621 189 
" style="fill:none;stroke:#262626;stroke-linecap:square;stroke-linejoin:miter;stroke-width:1.25;"/>
   </g>
   <g id="patch_16">
    <path d="M 802.241379 25.92 
L 1042.758621 25.92 
" style="fill:none;stroke:#262626;stroke-linecap:square;stroke-linejoin:miter;stroke-width:1.25;"/>
   </g>
  </g>
  <g id="axes_4">
   <g id="patch_17">
    <path d="M 1090.862069 189 
L 1331.37931 189 
L 1331.37931 25.92 
L 1090.862069 25.92 
z
" style="fill:#ffffff;"/>
   </g>
   <g id="matplotlib.axis_7">
    <g id="xtick_19">
     <g id="text_29">
      <!-- 0 -->
      <g style="fill:#262626;" transform="translate(1098.736155 206.373594)scale(0.11 -0.11)">
       <use xlink:href="#ArialMT-30"/>
      </g>
     </g>
    </g>
    <g id="xtick_20">
     <g id="text_30">
      <!-- 500 -->
      <g style="fill:#262626;" transform="translate(1136.350406 206.373594)scale(0.11 -0.11)">
       <use xlink:href="#ArialMT-35"/>
       <use x="55.615234" xlink:href="#ArialMT-30"/>
       <use x="111.230469" xlink:href="#ArialMT-30"/>
      </g>
     </g>
    </g>
    <g id="xtick_21">
     <g id="text_31">
      <!-- 1000 -->
      <g style="fill:#262626;" transform="translate(1177.023173 206.373594)scale(0.11 -0.11)">
       <use xlink:href="#ArialMT-31"/>
       <use x="55.615234" xlink:href="#ArialMT-30"/>
       <use x="111.230469" xlink:href="#ArialMT-30"/>
       <use x="166.845703" xlink:href="#ArialMT-30"/>
      </g>
     </g>
    </g>
    <g id="xtick_22">
     <g id="text_32">
      <!-- 1500 -->
      <g style="fill:#262626;" transform="translate(1220.754455 206.373594)scale(0.11 -0.11)">
       <use xlink:href="#ArialMT-31"/>
       <use x="55.615234" xlink:href="#ArialMT-35"/>
       <use x="111.230469" xlink:href="#ArialMT-30"/>
       <use x="166.845703" xlink:href="#ArialMT-30"/>
      </g>
     </g>
    </g>
    <g id="xtick_23">
     <g id="text_33">
      <!-- 2000 -->
      <g style="fill:#262626;" transform="translate(1264.485737 206.373594)scale(0.11 -0.11)">
       <use xlink:href="#ArialMT-32"/>
       <use x="55.615234" xlink:href="#ArialMT-30"/>
       <use x="111.230469" xlink:href="#ArialMT-30"/>
       <use x="166.845703" xlink:href="#ArialMT-30"/>
      </g>
     </g>
    </g>
    <g id="xtick_24">
     <g id="text_34">
      <!-- 2500 -->
      <g style="fill:#262626;" transform="translate(1308.217019 206.373594)scale(0.11 -0.11)">
       <use xlink:href="#ArialMT-32"/>
       <use x="55.615234" xlink:href="#ArialMT-35"/>
       <use x="111.230469" xlink:href="#ArialMT-30"/>
       <use x="166.845703" xlink:href="#ArialMT-30"/>
      </g>
     </g>
    </g>
    <g id="text_35">
     <!-- m/z -->
     <g style="fill:#262626;" transform="translate(1201.456002 221.149219)scale(0.12 -0.12)">
      <use xlink:href="#ArialMT-6d"/>
      <use x="83.300781" xlink:href="#ArialMT-2f"/>
      <use x="111.083984" xlink:href="#ArialMT-7a"/>
     </g>
    </g>
   </g>
   <g id="matplotlib.axis_8"/>
   <g id="line2d_4">
    <path clip-path="url(#pd8ef8f3ebd)" d="M 1101.794671 189 
L 1106.775664 189 
L 1106.780037 188.279108 
L 1106.884992 189 
L 1113.95634 189 
L 1113.960714 187.110028 
L 1114.065669 189 
L 1114.651668 189 
L 1114.656041 187.400394 
L 1114.760996 189 
L 1115.001518 189 
L 1115.097727 187.641087 
L 1115.110846 189 
L 1115.443204 189 
L 1115.447577 187.709432 
L 1115.552532 189 
L 1116.230367 189 
L 1116.23474 188.312135 
L 1116.339695 189 
L 1116.400919 189 
L 1116.405292 185.86504 
L 1116.510247 189 
L 1116.580217 189 
L 1116.58459 187.687209 
L 1116.689546 189 
L 1117.542306 189 
L 1117.634141 186.974282 
L 1117.651634 189 
L 1117.717231 189 
L 1117.721604 179.60069 
L 1117.826559 189 
L 1118.067081 189 
L 1118.071454 188.42202 
L 1118.176409 189 
L 1118.849871 189 
L 1118.94608 184.41529 
L 1118.959199 189 
L 1119.029169 189 
L 1119.033542 186.421519 
L 1119.138497 189 
L 1119.199721 189 
L 1119.204094 188.420502 
L 1119.309049 189 
L 1119.991257 189 
L 1119.99563 186.581806 
L 1120.100586 189 
L 1120.166182 189 
L 1120.170556 165.318082 
L 1120.275511 189 
L 1120.341108 189 
L 1120.345481 187.865028 
L 1120.450436 189 
L 1120.516033 189 
L 1120.520406 183.44771 
L 1120.625361 189 
L 1120.988331 189 
L 1120.992704 188.401276 
L 1121.097659 189 
L 1121.298823 189 
L 1121.303196 168.462853 
L 1121.408151 189 
L 1121.478121 189 
L 1121.482494 187.123099 
L 1121.587449 189 
L 1122.435836 189 
L 1122.532045 180.288273 
L 1122.545164 189 
L 1122.615134 189 
L 1122.619507 60.623857 
L 1122.724462 189 
L 1122.785686 189 
L 1122.790059 188.033139 
L 1122.895014 189 
L 1122.964985 189 
L 1122.969358 184.846162 
L 1123.074313 189 
L 1123.747774 189 
L 1123.752148 184.324854 
L 1123.857103 189 
L 1123.9227 189 
L 1123.927073 188.424814 
L 1124.032028 189 
L 1124.97225 189 
L 1124.976624 186.296722 
L 1125.064086 189 
L 1125.068459 25.92 
L 1125.173414 189 
L 1125.239011 189 
L 1125.243384 176.521956 
L 1125.348339 189 
L 1126.376025 189 
L 1126.380398 124.520083 
L 1126.485353 189 
L 1126.55095 189 
L 1126.555323 187.031768 
L 1126.660278 189 
L 1320.446708 189 
L 1320.446708 189 
" style="fill:none;stroke:#ff0000;stroke-linecap:round;stroke-width:0.5;"/>
   </g>
   <g id="patch_18">
    <path d="M 1090.862069 189 
L 1090.862069 25.92 
" style="fill:none;stroke:#262626;stroke-linecap:square;stroke-linejoin:miter;stroke-width:1.25;"/>
   </g>
   <g id="patch_19">
    <path d="M 1331.37931 189 
L 1331.37931 25.92 
" style="fill:none;stroke:#262626;stroke-linecap:square;stroke-linejoin:miter;stroke-width:1.25;"/>
   </g>
   <g id="patch_20">
    <path d="M 1090.862069 189 
L 1331.37931 189 
" style="fill:none;stroke:#262626;stroke-linecap:square;stroke-linejoin:miter;stroke-width:1.25;"/>
   </g>
   <g id="patch_21">
    <path d="M 1090.862069 25.92 
L 1331.37931 25.92 
" style="fill:none;stroke:#262626;stroke-linecap:square;stroke-linejoin:miter;stroke-width:1.25;"/>
   </g>
  </g>
  <g id="axes_5">
   <g id="patch_22">
    <path d="M 1379.482759 189 
L 1620 189 
L 1620 25.92 
L 1379.482759 25.92 
z
" style="fill:#ffffff;"/>
   </g>
   <g id="matplotlib.axis_9">
    <g id="xtick_25">
     <g id="text_36">
      <!-- 0 -->
      <g style="fill:#262626;" transform="translate(1387.356845 206.373594)scale(0.11 -0.11)">
       <use xlink:href="#ArialMT-30"/>
      </g>
     </g>
    </g>
    <g id="xtick_26">
     <g id="text_37">
      <!-- 500 -->
      <g style="fill:#262626;" transform="translate(1424.971096 206.373594)scale(0.11 -0.11)">
       <use xlink:href="#ArialMT-35"/>
       <use x="55.615234" xlink:href="#ArialMT-30"/>
       <use x="111.230469" xlink:href="#ArialMT-30"/>
      </g>
     </g>
    </g>
    <g id="xtick_27">
     <g id="text_38">
      <!-- 1000 -->
      <g style="fill:#262626;" transform="translate(1465.643862 206.373594)scale(0.11 -0.11)">
       <use xlink:href="#ArialMT-31"/>
       <use x="55.615234" xlink:href="#ArialMT-30"/>
       <use x="111.230469" xlink:href="#ArialMT-30"/>
       <use x="166.845703" xlink:href="#ArialMT-30"/>
      </g>
     </g>
    </g>
    <g id="xtick_28">
     <g id="text_39">
      <!-- 1500 -->
      <g style="fill:#262626;" transform="translate(1509.375144 206.373594)scale(0.11 -0.11)">
       <use xlink:href="#ArialMT-31"/>
       <use x="55.615234" xlink:href="#ArialMT-35"/>
       <use x="111.230469" xlink:href="#ArialMT-30"/>
       <use x="166.845703" xlink:href="#ArialMT-30"/>
      </g>
     </g>
    </g>
    <g id="xtick_29">
     <g id="text_40">
      <!-- 2000 -->
      <g style="fill:#262626;" transform="translate(1553.106427 206.373594)scale(0.11 -0.11)">
       <use xlink:href="#ArialMT-32"/>
       <use x="55.615234" xlink:href="#ArialMT-30"/>
       <use x="111.230469" xlink:href="#ArialMT-30"/>
       <use x="166.845703" xlink:href="#ArialMT-30"/>
      </g>
     </g>
    </g>
    <g id="xtick_30">
     <g id="text_41">
      <!-- 2500 -->
      <g style="fill:#262626;" transform="translate(1596.837709 206.373594)scale(0.11 -0.11)">
       <use xlink:href="#ArialMT-32"/>
       <use x="55.615234" xlink:href="#ArialMT-35"/>
       <use x="111.230469" xlink:href="#ArialMT-30"/>
       <use x="166.845703" xlink:href="#ArialMT-30"/>
      </g>
     </g>
    </g>
    <g id="text_42">
     <!-- m/z -->
     <g style="fill:#262626;" transform="translate(1490.076692 221.149219)scale(0.12 -0.12)">
      <use xlink:href="#ArialMT-6d"/>
      <use x="83.300781" xlink:href="#ArialMT-2f"/>
      <use x="111.083984" xlink:href="#ArialMT-7a"/>
     </g>
    </g>
   </g>
   <g id="matplotlib.axis_10"/>
   <g id="line2d_5">
    <path clip-path="url(#p8949e961eb)" d="M 1390.415361 189 
L 1400.477929 189 
L 1400.482302 187.612264 
L 1400.587257 189 
L 1401.614942 189 
L 1401.619315 182.716387 
L 1401.72427 189 
L 1401.872956 189 
L 1401.87733 187.552991 
L 1401.982285 189 
L 1402.92688 189 
L 1402.931253 182.469517 
L 1403.036209 189 
L 1403.272357 189 
L 1403.276731 184.660807 
L 1403.381686 189 
L 1403.801506 189 
L 1403.805879 185.90983 
L 1403.910834 189 
L 1403.976431 189 
L 1403.980804 187.366004 
L 1404.085759 189 
L 1404.151356 189 
L 1404.155729 187.643429 
L 1404.260684 189 
L 1404.321908 189 
L 1404.326281 186.014933 
L 1404.431236 189 
L 1405.371459 189 
L 1405.380205 180.832465 
L 1405.480787 189 
L 1405.546384 189 
L 1405.550757 188.499535 
L 1405.655712 189 
L 1405.721309 189 
L 1405.725682 113.999959 
L 1405.830637 189 
L 1406.250458 189 
L 1406.254831 184.101679 
L 1406.359786 189 
L 1406.512845 189 
L 1406.517219 183.470445 
L 1406.622174 189 
L 1406.77086 189 
L 1406.775233 187.262733 
L 1406.880188 189 
L 1406.945785 189 
L 1406.954531 184.784853 
L 1407.055113 189 
L 1407.820411 189 
L 1407.829157 175.135478 
L 1407.929739 189 
L 1408.170261 189 
L 1408.174634 185.215045 
L 1408.279589 189 
L 1408.69941 189 
L 1408.703783 188.338825 
L 1408.808738 189 
L 1408.957424 189 
L 1408.961797 188.283828 
L 1409.066752 189 
L 1409.224185 189 
L 1409.228558 185.747284 
L 1409.333513 189 
L 1409.39911 189 
L 1409.403483 174.078943 
L 1409.508438 189 
L 1410.273736 189 
L 1410.278109 71.440897 
L 1410.383064 189 
L 1411.848062 189 
L 1411.852435 25.92 
L 1411.95739 189 
L 1413.422388 189 
L 1413.426761 188.442095 
L 1413.531716 189 
L 1413.947163 189 
L 1413.951537 188.381599 
L 1414.056492 189 
L 1415.52149 189 
L 1415.525863 126.100324 
L 1415.630818 189 
L 1609.067398 189 
L 1609.067398 189 
" style="fill:none;stroke:#ff0000;stroke-linecap:round;stroke-width:0.5;"/>
   </g>
   <g id="patch_23">
    <path d="M 1379.482759 189 
L 1379.482759 25.92 
" style="fill:none;stroke:#262626;stroke-linecap:square;stroke-linejoin:miter;stroke-width:1.25;"/>
   </g>
   <g id="patch_24">
    <path d="M 1620 189 
L 1620 25.92 
" style="fill:none;stroke:#262626;stroke-linecap:square;stroke-linejoin:miter;stroke-width:1.25;"/>
   </g>
   <g id="patch_25">
    <path d="M 1379.482759 189 
L 1620 189 
" style="fill:none;stroke:#262626;stroke-linecap:square;stroke-linejoin:miter;stroke-width:1.25;"/>
   </g>
   <g id="patch_26">
    <path d="M 1379.482759 25.92 
L 1620 25.92 
" style="fill:none;stroke:#262626;stroke-linecap:square;stroke-linejoin:miter;stroke-width:1.25;"/>
   </g>
  </g>
 </g>
 <defs>
  <clipPath id="p05f60a5726">
   <rect height="163.08" width="240.517241" x="225" y="25.92"/>
  </clipPath>
  <clipPath id="p224b959853">
   <rect height="163.08" width="240.517241" x="513.62069" y="25.92"/>
  </clipPath>
  <clipPath id="p6dffce962c">
   <rect height="163.08" width="240.517241" x="802.241379" y="25.92"/>
  </clipPath>
  <clipPath id="pd8ef8f3ebd">
   <rect height="163.08" width="240.517241" x="1090.862069" y="25.92"/>
  </clipPath>
  <clipPath id="p8949e961eb">
   <rect height="163.08" width="240.517241" x="1379.482759" y="25.92"/>
  </clipPath>
 </defs>
</svg>
