<?xml version="1.0" encoding="utf-8" standalone="no"?>
<!DOCTYPE svg PUBLIC "-//W3C//DTD SVG 1.1//EN"
  "http://www.w3.org/Graphics/SVG/1.1/DTD/svg11.dtd">
<svg height="216pt" version="1.1" viewBox="0 0 1800 216" width="1800pt" xmlns="http://www.w3.org/2000/svg" xmlns:xlink="http://www.w3.org/1999/xlink">
 <metadata>
  <rdf:RDF xmlns:cc="http://creativecommons.org/ns#" xmlns:dc="http://purl.org/dc/elements/1.1/" xmlns:rdf="http://www.w3.org/1999/02/22-rdf-syntax-ns#">
   <cc:Work>
    <dc:type rdf:resource="http://purl.org/dc/dcmitype/StillImage"/>
    <dc:date>2022-05-16T21:27:29.746332</dc:date>
    <dc:format>image/svg+xml</dc:format>
    <dc:creator>
     <cc:Agent>
      <dc:title>Matplotlib v3.4.2, https://matplotlib.org/</dc:title>
     </cc:Agent>
    </dc:creator>
   </cc:Work>
  </rdf:RDF>
 </metadata>
 <defs>
  <style type="text/css">*{stroke-linecap:butt;stroke-linejoin:round;}</style>
 </defs>
 <g id="figure_1">
  <g id="patch_1">
   <path d="M 0 216 
L 1800 216 
L 1800 0 
L 0 0 
z
" style="fill:#ffffff;"/>
  </g>
  <g id="axes_1">
   <g id="patch_2">
    <path d="M 225 189 
L 465.517241 189 
L 465.517241 25.92 
L 225 25.92 
z
" style="fill:#ffffff;"/>
   </g>
   <g id="matplotlib.axis_1">
    <g id="xtick_1">
     <g id="text_1">
      <!-- 0 -->
      <g style="fill:#262626;" transform="translate(232.874086 206.373594)scale(0.11 -0.11)">
       <defs>
        <path d="M 266 2259 
Q 266 3072 433 3567 
Q 600 4063 929 4331 
Q 1259 4600 1759 4600 
Q 2128 4600 2406 4451 
Q 2684 4303 2865 4023 
Q 3047 3744 3150 3342 
Q 3253 2941 3253 2259 
Q 3253 1453 3087 958 
Q 2922 463 2592 192 
Q 2263 -78 1759 -78 
Q 1097 -78 719 397 
Q 266 969 266 2259 
z
M 844 2259 
Q 844 1131 1108 757 
Q 1372 384 1759 384 
Q 2147 384 2411 759 
Q 2675 1134 2675 2259 
Q 2675 3391 2411 3762 
Q 2147 4134 1753 4134 
Q 1366 4134 1134 3806 
Q 844 3388 844 2259 
z
" id="ArialMT-30" transform="scale(0.015625)"/>
       </defs>
       <use xlink:href="#ArialMT-30"/>
      </g>
     </g>
    </g>
    <g id="xtick_2">
     <g id="text_2">
      <!-- 500 -->
      <g style="fill:#262626;" transform="translate(270.488337 206.373594)scale(0.11 -0.11)">
       <defs>
        <path d="M 266 1200 
L 856 1250 
Q 922 819 1161 601 
Q 1400 384 1738 384 
Q 2144 384 2425 690 
Q 2706 997 2706 1503 
Q 2706 1984 2436 2262 
Q 2166 2541 1728 2541 
Q 1456 2541 1237 2417 
Q 1019 2294 894 2097 
L 366 2166 
L 809 4519 
L 3088 4519 
L 3088 3981 
L 1259 3981 
L 1013 2750 
Q 1425 3038 1878 3038 
Q 2478 3038 2890 2622 
Q 3303 2206 3303 1553 
Q 3303 931 2941 478 
Q 2500 -78 1738 -78 
Q 1113 -78 717 272 
Q 322 622 266 1200 
z
" id="ArialMT-35" transform="scale(0.015625)"/>
       </defs>
       <use xlink:href="#ArialMT-35"/>
       <use x="55.615234" xlink:href="#ArialMT-30"/>
       <use x="111.230469" xlink:href="#ArialMT-30"/>
      </g>
     </g>
    </g>
    <g id="xtick_3">
     <g id="text_3">
      <!-- 1000 -->
      <g style="fill:#262626;" transform="translate(311.161104 206.373594)scale(0.11 -0.11)">
       <defs>
        <path d="M 2384 0 
L 1822 0 
L 1822 3584 
Q 1619 3391 1289 3197 
Q 959 3003 697 2906 
L 697 3450 
Q 1169 3672 1522 3987 
Q 1875 4303 2022 4600 
L 2384 4600 
L 2384 0 
z
" id="ArialMT-31" transform="scale(0.015625)"/>
       </defs>
       <use xlink:href="#ArialMT-31"/>
       <use x="55.615234" xlink:href="#ArialMT-30"/>
       <use x="111.230469" xlink:href="#ArialMT-30"/>
       <use x="166.845703" xlink:href="#ArialMT-30"/>
      </g>
     </g>
    </g>
    <g id="xtick_4">
     <g id="text_4">
      <!-- 1500 -->
      <g style="fill:#262626;" transform="translate(354.892386 206.373594)scale(0.11 -0.11)">
       <use xlink:href="#ArialMT-31"/>
       <use x="55.615234" xlink:href="#ArialMT-35"/>
       <use x="111.230469" xlink:href="#ArialMT-30"/>
       <use x="166.845703" xlink:href="#ArialMT-30"/>
      </g>
     </g>
    </g>
    <g id="xtick_5">
     <g id="text_5">
      <!-- 2000 -->
      <g style="fill:#262626;" transform="translate(398.623668 206.373594)scale(0.11 -0.11)">
       <defs>
        <path d="M 3222 541 
L 3222 0 
L 194 0 
Q 188 203 259 391 
Q 375 700 629 1000 
Q 884 1300 1366 1694 
Q 2113 2306 2375 2664 
Q 2638 3022 2638 3341 
Q 2638 3675 2398 3904 
Q 2159 4134 1775 4134 
Q 1369 4134 1125 3890 
Q 881 3647 878 3216 
L 300 3275 
Q 359 3922 746 4261 
Q 1134 4600 1788 4600 
Q 2447 4600 2831 4234 
Q 3216 3869 3216 3328 
Q 3216 3053 3103 2787 
Q 2991 2522 2730 2228 
Q 2469 1934 1863 1422 
Q 1356 997 1212 845 
Q 1069 694 975 541 
L 3222 541 
z
" id="ArialMT-32" transform="scale(0.015625)"/>
       </defs>
       <use xlink:href="#ArialMT-32"/>
       <use x="55.615234" xlink:href="#ArialMT-30"/>
       <use x="111.230469" xlink:href="#ArialMT-30"/>
       <use x="166.845703" xlink:href="#ArialMT-30"/>
      </g>
     </g>
    </g>
    <g id="xtick_6">
     <g id="text_6">
      <!-- 2500 -->
      <g style="fill:#262626;" transform="translate(442.35495 206.373594)scale(0.11 -0.11)">
       <use xlink:href="#ArialMT-32"/>
       <use x="55.615234" xlink:href="#ArialMT-35"/>
       <use x="111.230469" xlink:href="#ArialMT-30"/>
       <use x="166.845703" xlink:href="#ArialMT-30"/>
      </g>
     </g>
    </g>
    <g id="text_7">
     <!-- m/z -->
     <g style="fill:#262626;" transform="translate(335.593933 221.149219)scale(0.12 -0.12)">
      <defs>
       <path d="M 422 0 
L 422 3319 
L 925 3319 
L 925 2853 
Q 1081 3097 1340 3245 
Q 1600 3394 1931 3394 
Q 2300 3394 2536 3241 
Q 2772 3088 2869 2813 
Q 3263 3394 3894 3394 
Q 4388 3394 4653 3120 
Q 4919 2847 4919 2278 
L 4919 0 
L 4359 0 
L 4359 2091 
Q 4359 2428 4304 2576 
Q 4250 2725 4106 2815 
Q 3963 2906 3769 2906 
Q 3419 2906 3187 2673 
Q 2956 2441 2956 1928 
L 2956 0 
L 2394 0 
L 2394 2156 
Q 2394 2531 2256 2718 
Q 2119 2906 1806 2906 
Q 1569 2906 1367 2781 
Q 1166 2656 1075 2415 
Q 984 2175 984 1722 
L 984 0 
L 422 0 
z
" id="ArialMT-6d" transform="scale(0.015625)"/>
       <path d="M 0 -78 
L 1328 4659 
L 1778 4659 
L 453 -78 
L 0 -78 
z
" id="ArialMT-2f" transform="scale(0.015625)"/>
       <path d="M 125 0 
L 125 456 
L 2238 2881 
Q 1878 2863 1603 2863 
L 250 2863 
L 250 3319 
L 2963 3319 
L 2963 2947 
L 1166 841 
L 819 456 
Q 1197 484 1528 484 
L 3063 484 
L 3063 0 
L 125 0 
z
" id="ArialMT-7a" transform="scale(0.015625)"/>
      </defs>
      <use xlink:href="#ArialMT-6d"/>
      <use x="83.300781" xlink:href="#ArialMT-2f"/>
      <use x="111.083984" xlink:href="#ArialMT-7a"/>
     </g>
    </g>
   </g>
   <g id="matplotlib.axis_2">
    <g id="ytick_1">
     <g id="text_8">
      <!-- 0 -->
      <g style="fill:#262626;" transform="translate(209.382969 192.936797)scale(0.11 -0.11)">
       <use xlink:href="#ArialMT-30"/>
      </g>
     </g>
    </g>
    <g id="ytick_2">
     <g id="text_9">
      <!-- 20 -->
      <g style="fill:#262626;" transform="translate(203.265938 160.320797)scale(0.11 -0.11)">
       <use xlink:href="#ArialMT-32"/>
       <use x="55.615234" xlink:href="#ArialMT-30"/>
      </g>
     </g>
    </g>
    <g id="ytick_3">
     <g id="text_10">
      <!-- 40 -->
      <g style="fill:#262626;" transform="translate(203.265938 127.704797)scale(0.11 -0.11)">
       <defs>
        <path d="M 2069 0 
L 2069 1097 
L 81 1097 
L 81 1613 
L 2172 4581 
L 2631 4581 
L 2631 1613 
L 3250 1613 
L 3250 1097 
L 2631 1097 
L 2631 0 
L 2069 0 
z
M 2069 1613 
L 2069 3678 
L 634 1613 
L 2069 1613 
z
" id="ArialMT-34" transform="scale(0.015625)"/>
       </defs>
       <use xlink:href="#ArialMT-34"/>
       <use x="55.615234" xlink:href="#ArialMT-30"/>
      </g>
     </g>
    </g>
    <g id="ytick_4">
     <g id="text_11">
      <!-- 60 -->
      <g style="fill:#262626;" transform="translate(203.265938 95.088797)scale(0.11 -0.11)">
       <defs>
        <path d="M 3184 3459 
L 2625 3416 
Q 2550 3747 2413 3897 
Q 2184 4138 1850 4138 
Q 1581 4138 1378 3988 
Q 1113 3794 959 3422 
Q 806 3050 800 2363 
Q 1003 2672 1297 2822 
Q 1591 2972 1913 2972 
Q 2475 2972 2870 2558 
Q 3266 2144 3266 1488 
Q 3266 1056 3080 686 
Q 2894 316 2569 119 
Q 2244 -78 1831 -78 
Q 1128 -78 684 439 
Q 241 956 241 2144 
Q 241 3472 731 4075 
Q 1159 4600 1884 4600 
Q 2425 4600 2770 4297 
Q 3116 3994 3184 3459 
z
M 888 1484 
Q 888 1194 1011 928 
Q 1134 663 1356 523 
Q 1578 384 1822 384 
Q 2178 384 2434 671 
Q 2691 959 2691 1453 
Q 2691 1928 2437 2201 
Q 2184 2475 1800 2475 
Q 1419 2475 1153 2201 
Q 888 1928 888 1484 
z
" id="ArialMT-36" transform="scale(0.015625)"/>
       </defs>
       <use xlink:href="#ArialMT-36"/>
       <use x="55.615234" xlink:href="#ArialMT-30"/>
      </g>
     </g>
    </g>
    <g id="ytick_5">
     <g id="text_12">
      <!-- 80 -->
      <g style="fill:#262626;" transform="translate(203.265938 62.472797)scale(0.11 -0.11)">
       <defs>
        <path d="M 1131 2484 
Q 781 2613 612 2850 
Q 444 3088 444 3419 
Q 444 3919 803 4259 
Q 1163 4600 1759 4600 
Q 2359 4600 2725 4251 
Q 3091 3903 3091 3403 
Q 3091 3084 2923 2848 
Q 2756 2613 2416 2484 
Q 2838 2347 3058 2040 
Q 3278 1734 3278 1309 
Q 3278 722 2862 322 
Q 2447 -78 1769 -78 
Q 1091 -78 675 323 
Q 259 725 259 1325 
Q 259 1772 486 2073 
Q 713 2375 1131 2484 
z
M 1019 3438 
Q 1019 3113 1228 2906 
Q 1438 2700 1772 2700 
Q 2097 2700 2305 2904 
Q 2513 3109 2513 3406 
Q 2513 3716 2298 3927 
Q 2084 4138 1766 4138 
Q 1444 4138 1231 3931 
Q 1019 3725 1019 3438 
z
M 838 1322 
Q 838 1081 952 856 
Q 1066 631 1291 507 
Q 1516 384 1775 384 
Q 2178 384 2440 643 
Q 2703 903 2703 1303 
Q 2703 1709 2433 1975 
Q 2163 2241 1756 2241 
Q 1359 2241 1098 1978 
Q 838 1716 838 1322 
z
" id="ArialMT-38" transform="scale(0.015625)"/>
       </defs>
       <use xlink:href="#ArialMT-38"/>
       <use x="55.615234" xlink:href="#ArialMT-30"/>
      </g>
     </g>
    </g>
    <g id="ytick_6">
     <g id="text_13">
      <!-- 100 -->
      <g style="fill:#262626;" transform="translate(197.148906 29.856797)scale(0.11 -0.11)">
       <use xlink:href="#ArialMT-31"/>
       <use x="55.615234" xlink:href="#ArialMT-30"/>
       <use x="111.230469" xlink:href="#ArialMT-30"/>
      </g>
     </g>
    </g>
    <g id="text_14">
     <!-- Intensity [%] -->
     <g style="fill:#262626;" transform="translate(190.623281 140.139375)rotate(-90)scale(0.12 -0.12)">
      <defs>
       <path d="M 597 0 
L 597 4581 
L 1203 4581 
L 1203 0 
L 597 0 
z
" id="ArialMT-49" transform="scale(0.015625)"/>
       <path d="M 422 0 
L 422 3319 
L 928 3319 
L 928 2847 
Q 1294 3394 1984 3394 
Q 2284 3394 2536 3286 
Q 2788 3178 2913 3003 
Q 3038 2828 3088 2588 
Q 3119 2431 3119 2041 
L 3119 0 
L 2556 0 
L 2556 2019 
Q 2556 2363 2490 2533 
Q 2425 2703 2258 2804 
Q 2091 2906 1866 2906 
Q 1506 2906 1245 2678 
Q 984 2450 984 1813 
L 984 0 
L 422 0 
z
" id="ArialMT-6e" transform="scale(0.015625)"/>
       <path d="M 1650 503 
L 1731 6 
Q 1494 -44 1306 -44 
Q 1000 -44 831 53 
Q 663 150 594 308 
Q 525 466 525 972 
L 525 2881 
L 113 2881 
L 113 3319 
L 525 3319 
L 525 4141 
L 1084 4478 
L 1084 3319 
L 1650 3319 
L 1650 2881 
L 1084 2881 
L 1084 941 
Q 1084 700 1114 631 
Q 1144 563 1211 522 
Q 1278 481 1403 481 
Q 1497 481 1650 503 
z
" id="ArialMT-74" transform="scale(0.015625)"/>
       <path d="M 2694 1069 
L 3275 997 
Q 3138 488 2766 206 
Q 2394 -75 1816 -75 
Q 1088 -75 661 373 
Q 234 822 234 1631 
Q 234 2469 665 2931 
Q 1097 3394 1784 3394 
Q 2450 3394 2872 2941 
Q 3294 2488 3294 1666 
Q 3294 1616 3291 1516 
L 816 1516 
Q 847 969 1125 678 
Q 1403 388 1819 388 
Q 2128 388 2347 550 
Q 2566 713 2694 1069 
z
M 847 1978 
L 2700 1978 
Q 2663 2397 2488 2606 
Q 2219 2931 1791 2931 
Q 1403 2931 1139 2672 
Q 875 2413 847 1978 
z
" id="ArialMT-65" transform="scale(0.015625)"/>
       <path d="M 197 991 
L 753 1078 
Q 800 744 1014 566 
Q 1228 388 1613 388 
Q 2000 388 2187 545 
Q 2375 703 2375 916 
Q 2375 1106 2209 1216 
Q 2094 1291 1634 1406 
Q 1016 1563 777 1677 
Q 538 1791 414 1992 
Q 291 2194 291 2438 
Q 291 2659 392 2848 
Q 494 3038 669 3163 
Q 800 3259 1026 3326 
Q 1253 3394 1513 3394 
Q 1903 3394 2198 3281 
Q 2494 3169 2634 2976 
Q 2775 2784 2828 2463 
L 2278 2388 
Q 2241 2644 2061 2787 
Q 1881 2931 1553 2931 
Q 1166 2931 1000 2803 
Q 834 2675 834 2503 
Q 834 2394 903 2306 
Q 972 2216 1119 2156 
Q 1203 2125 1616 2013 
Q 2213 1853 2448 1751 
Q 2684 1650 2818 1456 
Q 2953 1263 2953 975 
Q 2953 694 2789 445 
Q 2625 197 2315 61 
Q 2006 -75 1616 -75 
Q 969 -75 630 194 
Q 291 463 197 991 
z
" id="ArialMT-73" transform="scale(0.015625)"/>
       <path d="M 425 3934 
L 425 4581 
L 988 4581 
L 988 3934 
L 425 3934 
z
M 425 0 
L 425 3319 
L 988 3319 
L 988 0 
L 425 0 
z
" id="ArialMT-69" transform="scale(0.015625)"/>
       <path d="M 397 -1278 
L 334 -750 
Q 519 -800 656 -800 
Q 844 -800 956 -737 
Q 1069 -675 1141 -563 
Q 1194 -478 1313 -144 
Q 1328 -97 1363 -6 
L 103 3319 
L 709 3319 
L 1400 1397 
Q 1534 1031 1641 628 
Q 1738 1016 1872 1384 
L 2581 3319 
L 3144 3319 
L 1881 -56 
Q 1678 -603 1566 -809 
Q 1416 -1088 1222 -1217 
Q 1028 -1347 759 -1347 
Q 597 -1347 397 -1278 
z
" id="ArialMT-79" transform="scale(0.015625)"/>
       <path id="ArialMT-20" transform="scale(0.015625)"/>
       <path d="M 434 -1272 
L 434 4581 
L 1675 4581 
L 1675 4116 
L 997 4116 
L 997 -806 
L 1675 -806 
L 1675 -1272 
L 434 -1272 
z
" id="ArialMT-5b" transform="scale(0.015625)"/>
       <path d="M 372 3481 
Q 372 3972 619 4315 
Q 866 4659 1334 4659 
Q 1766 4659 2048 4351 
Q 2331 4044 2331 3447 
Q 2331 2866 2045 2552 
Q 1759 2238 1341 2238 
Q 925 2238 648 2547 
Q 372 2856 372 3481 
z
M 1350 4272 
Q 1141 4272 1002 4090 
Q 863 3909 863 3425 
Q 863 2984 1003 2804 
Q 1144 2625 1350 2625 
Q 1563 2625 1702 2806 
Q 1841 2988 1841 3469 
Q 1841 3913 1700 4092 
Q 1559 4272 1350 4272 
z
M 1353 -169 
L 3859 4659 
L 4316 4659 
L 1819 -169 
L 1353 -169 
z
M 3334 1075 
Q 3334 1569 3581 1911 
Q 3828 2253 4300 2253 
Q 4731 2253 5014 1945 
Q 5297 1638 5297 1041 
Q 5297 459 5011 145 
Q 4725 -169 4303 -169 
Q 3888 -169 3611 142 
Q 3334 453 3334 1075 
z
M 4316 1866 
Q 4103 1866 3964 1684 
Q 3825 1503 3825 1019 
Q 3825 581 3965 400 
Q 4106 219 4313 219 
Q 4528 219 4667 400 
Q 4806 581 4806 1063 
Q 4806 1506 4665 1686 
Q 4525 1866 4316 1866 
z
" id="ArialMT-25" transform="scale(0.015625)"/>
       <path d="M 1363 -1272 
L 122 -1272 
L 122 -806 
L 800 -806 
L 800 4116 
L 122 4116 
L 122 4581 
L 1363 4581 
L 1363 -1272 
z
" id="ArialMT-5d" transform="scale(0.015625)"/>
      </defs>
      <use xlink:href="#ArialMT-49"/>
      <use x="27.783203" xlink:href="#ArialMT-6e"/>
      <use x="83.398438" xlink:href="#ArialMT-74"/>
      <use x="111.181641" xlink:href="#ArialMT-65"/>
      <use x="166.796875" xlink:href="#ArialMT-6e"/>
      <use x="222.412109" xlink:href="#ArialMT-73"/>
      <use x="272.412109" xlink:href="#ArialMT-69"/>
      <use x="294.628906" xlink:href="#ArialMT-74"/>
      <use x="322.412109" xlink:href="#ArialMT-79"/>
      <use x="372.412109" xlink:href="#ArialMT-20"/>
      <use x="400.195312" xlink:href="#ArialMT-5b"/>
      <use x="427.978516" xlink:href="#ArialMT-25"/>
      <use x="516.894531" xlink:href="#ArialMT-5d"/>
     </g>
    </g>
   </g>
   <g id="line2d_1">
    <path clip-path="url(#p5bfa3c2a1c)" d="M 235.932602 189 
L 243.896068 189 
L 243.900441 188.232206 
L 244.005397 189 
L 245.99517 189 
L 246.082632 187.79479 
L 246.104498 189 
L 246.170095 189 
L 246.174468 188.68142 
L 246.279423 189 
L 248.094271 189 
L 248.098645 188.679735 
L 248.2036 189 
L 249.143822 189 
L 249.235658 185.452638 
L 249.25315 189 
L 250.189 189 
L 250.285209 187.895084 
L 250.298328 189 
L 250.368298 189 
L 250.372671 176.298948 
L 250.477626 189 
L 250.543223 189 
L 250.547596 185.073378 
L 250.652551 189 
L 251.330386 189 
L 251.422222 187.273095 
L 251.439715 189 
L 251.505311 189 
L 251.509685 186.01816 
L 251.61464 189 
L 252.554862 189 
L 252.646698 180.364632 
L 252.66419 189 
L 252.67731 189 
L 252.681683 188.247376 
L 252.729787 189 
L 252.73416 95.49766 
L 252.839116 189 
L 252.856608 189 
L 252.860981 187.134032 
L 252.904712 189 
L 252.909086 25.92 
L 253.014041 189 
L 253.031533 189 
L 253.035906 188.7716 
L 253.140861 189 
L 255.178739 189 
L 255.183112 183.526833 
L 255.288067 189 
L 256.669976 189 
L 256.674349 152.954971 
L 256.779304 189 
L 454.584639 189 
L 454.584639 189 
" style="fill:none;stroke:#ff0000;stroke-linecap:round;stroke-width:0.5;"/>
   </g>
   <g id="patch_3">
    <path d="M 225 189 
L 225 25.92 
" style="fill:none;stroke:#262626;stroke-linecap:square;stroke-linejoin:miter;stroke-width:1.25;"/>
   </g>
   <g id="patch_4">
    <path d="M 465.517241 189 
L 465.517241 25.92 
" style="fill:none;stroke:#262626;stroke-linecap:square;stroke-linejoin:miter;stroke-width:1.25;"/>
   </g>
   <g id="patch_5">
    <path d="M 225 189 
L 465.517241 189 
" style="fill:none;stroke:#262626;stroke-linecap:square;stroke-linejoin:miter;stroke-width:1.25;"/>
   </g>
   <g id="patch_6">
    <path d="M 225 25.92 
L 465.517241 25.92 
" style="fill:none;stroke:#262626;stroke-linecap:square;stroke-linejoin:miter;stroke-width:1.25;"/>
   </g>
  </g>
  <g id="axes_2">
   <g id="patch_7">
    <path d="M 513.62069 189 
L 754.137931 189 
L 754.137931 25.92 
L 513.62069 25.92 
z
" style="fill:#ffffff;"/>
   </g>
   <g id="matplotlib.axis_3">
    <g id="xtick_7">
     <g id="text_15">
      <!-- 0 -->
      <g style="fill:#262626;" transform="translate(521.494776 206.373594)scale(0.11 -0.11)">
       <use xlink:href="#ArialMT-30"/>
      </g>
     </g>
    </g>
    <g id="xtick_8">
     <g id="text_16">
      <!-- 500 -->
      <g style="fill:#262626;" transform="translate(559.109027 206.373594)scale(0.11 -0.11)">
       <use xlink:href="#ArialMT-35"/>
       <use x="55.615234" xlink:href="#ArialMT-30"/>
       <use x="111.230469" xlink:href="#ArialMT-30"/>
      </g>
     </g>
    </g>
    <g id="xtick_9">
     <g id="text_17">
      <!-- 1000 -->
      <g style="fill:#262626;" transform="translate(599.781793 206.373594)scale(0.11 -0.11)">
       <use xlink:href="#ArialMT-31"/>
       <use x="55.615234" xlink:href="#ArialMT-30"/>
       <use x="111.230469" xlink:href="#ArialMT-30"/>
       <use x="166.845703" xlink:href="#ArialMT-30"/>
      </g>
     </g>
    </g>
    <g id="xtick_10">
     <g id="text_18">
      <!-- 1500 -->
      <g style="fill:#262626;" transform="translate(643.513075 206.373594)scale(0.11 -0.11)">
       <use xlink:href="#ArialMT-31"/>
       <use x="55.615234" xlink:href="#ArialMT-35"/>
       <use x="111.230469" xlink:href="#ArialMT-30"/>
       <use x="166.845703" xlink:href="#ArialMT-30"/>
      </g>
     </g>
    </g>
    <g id="xtick_11">
     <g id="text_19">
      <!-- 2000 -->
      <g style="fill:#262626;" transform="translate(687.244358 206.373594)scale(0.11 -0.11)">
       <use xlink:href="#ArialMT-32"/>
       <use x="55.615234" xlink:href="#ArialMT-30"/>
       <use x="111.230469" xlink:href="#ArialMT-30"/>
       <use x="166.845703" xlink:href="#ArialMT-30"/>
      </g>
     </g>
    </g>
    <g id="xtick_12">
     <g id="text_20">
      <!-- 2500 -->
      <g style="fill:#262626;" transform="translate(730.97564 206.373594)scale(0.11 -0.11)">
       <use xlink:href="#ArialMT-32"/>
       <use x="55.615234" xlink:href="#ArialMT-35"/>
       <use x="111.230469" xlink:href="#ArialMT-30"/>
       <use x="166.845703" xlink:href="#ArialMT-30"/>
      </g>
     </g>
    </g>
    <g id="text_21">
     <!-- m/z -->
     <g style="fill:#262626;" transform="translate(624.214623 221.149219)scale(0.12 -0.12)">
      <use xlink:href="#ArialMT-6d"/>
      <use x="83.300781" xlink:href="#ArialMT-2f"/>
      <use x="111.083984" xlink:href="#ArialMT-7a"/>
     </g>
    </g>
   </g>
   <g id="matplotlib.axis_4"/>
   <g id="line2d_2">
    <path clip-path="url(#p35fd592b3c)" d="M 524.553292 189 
L 540.913164 189 
L 540.917537 188.651712 
L 541.022492 189 
L 543.969981 189 
L 544.061817 186.564602 
L 544.079309 189 
L 544.149279 189 
L 544.153652 186.614358 
L 544.258607 189 
L 546.423306 189 
L 546.427679 188.536489 
L 546.532634 189 
L 546.768783 189 
L 546.773156 188.33223 
L 546.878111 189 
L 546.943708 189 
L 546.948081 188.484114 
L 547.053036 189 
L 547.385394 189 
L 547.47723 188.334849 
L 547.494722 189 
L 547.905796 189 
L 547.997632 184.985522 
L 548.015124 189 
L 548.080721 189 
L 548.085094 187.829438 
L 548.19005 189 
L 548.701706 189 
L 548.706079 185.930875 
L 548.811034 189 
L 549.04281 189 
L 549.134645 188.300806 
L 549.152138 189 
L 549.222108 189 
L 549.226481 188.447452 
L 549.331436 189 
L 550.271659 189 
L 550.276032 158.476349 
L 550.380987 189 
L 550.446584 189 
L 550.450957 181.594296 
L 550.555912 189 
L 550.621509 189 
L 550.625882 188.646475 
L 550.730837 189 
L 551.496134 189 
L 551.58797 178.00143 
L 551.605463 189 
L 551.67106 189 
L 551.675433 187.507337 
L 551.780388 189 
L 552.72061 189 
L 552.724983 187.653985 
L 552.829939 189 
L 552.869297 189 
L 552.895535 188.620288 
L 552.899909 189 
L 552.904282 40.079351 
L 553.009237 189 
L 553.074834 189 
L 553.079207 180.099013 
L 553.184162 189 
L 553.949459 189 
L 553.953833 188.510302 
L 554.058788 189 
L 554.382399 189 
L 554.386772 188.497208 
L 554.491727 189 
L 555.318249 189 
L 555.344487 188.45531 
L 555.34886 188.463165 
L 555.353234 25.92 
L 555.357607 189 
L 555.458189 189 
L 555.523786 189 
L 555.528159 170.776415 
L 555.633114 189 
L 743.205329 189 
L 743.205329 189 
" style="fill:none;stroke:#ff0000;stroke-linecap:round;stroke-width:0.5;"/>
   </g>
   <g id="patch_8">
    <path d="M 513.62069 189 
L 513.62069 25.92 
" style="fill:none;stroke:#262626;stroke-linecap:square;stroke-linejoin:miter;stroke-width:1.25;"/>
   </g>
   <g id="patch_9">
    <path d="M 754.137931 189 
L 754.137931 25.92 
" style="fill:none;stroke:#262626;stroke-linecap:square;stroke-linejoin:miter;stroke-width:1.25;"/>
   </g>
   <g id="patch_10">
    <path d="M 513.62069 189 
L 754.137931 189 
" style="fill:none;stroke:#262626;stroke-linecap:square;stroke-linejoin:miter;stroke-width:1.25;"/>
   </g>
   <g id="patch_11">
    <path d="M 513.62069 25.92 
L 754.137931 25.92 
" style="fill:none;stroke:#262626;stroke-linecap:square;stroke-linejoin:miter;stroke-width:1.25;"/>
   </g>
  </g>
  <g id="axes_3">
   <g id="patch_12">
    <path d="M 802.241379 189 
L 1042.758621 189 
L 1042.758621 25.92 
L 802.241379 25.92 
z
" style="fill:#ffffff;"/>
   </g>
   <g id="matplotlib.axis_5">
    <g id="xtick_13">
     <g id="text_22">
      <!-- 0 -->
      <g style="fill:#262626;" transform="translate(810.115466 206.373594)scale(0.11 -0.11)">
       <use xlink:href="#ArialMT-30"/>
      </g>
     </g>
    </g>
    <g id="xtick_14">
     <g id="text_23">
      <!-- 500 -->
      <g style="fill:#262626;" transform="translate(847.729716 206.373594)scale(0.11 -0.11)">
       <use xlink:href="#ArialMT-35"/>
       <use x="55.615234" xlink:href="#ArialMT-30"/>
       <use x="111.230469" xlink:href="#ArialMT-30"/>
      </g>
     </g>
    </g>
    <g id="xtick_15">
     <g id="text_24">
      <!-- 1000 -->
      <g style="fill:#262626;" transform="translate(888.402483 206.373594)scale(0.11 -0.11)">
       <use xlink:href="#ArialMT-31"/>
       <use x="55.615234" xlink:href="#ArialMT-30"/>
       <use x="111.230469" xlink:href="#ArialMT-30"/>
       <use x="166.845703" xlink:href="#ArialMT-30"/>
      </g>
     </g>
    </g>
    <g id="xtick_16">
     <g id="text_25">
      <!-- 1500 -->
      <g style="fill:#262626;" transform="translate(932.133765 206.373594)scale(0.11 -0.11)">
       <use xlink:href="#ArialMT-31"/>
       <use x="55.615234" xlink:href="#ArialMT-35"/>
       <use x="111.230469" xlink:href="#ArialMT-30"/>
       <use x="166.845703" xlink:href="#ArialMT-30"/>
      </g>
     </g>
    </g>
    <g id="xtick_17">
     <g id="text_26">
      <!-- 2000 -->
      <g style="fill:#262626;" transform="translate(975.865047 206.373594)scale(0.11 -0.11)">
       <use xlink:href="#ArialMT-32"/>
       <use x="55.615234" xlink:href="#ArialMT-30"/>
       <use x="111.230469" xlink:href="#ArialMT-30"/>
       <use x="166.845703" xlink:href="#ArialMT-30"/>
      </g>
     </g>
    </g>
    <g id="xtick_18">
     <g id="text_27">
      <!-- 2500 -->
      <g style="fill:#262626;" transform="translate(1019.596329 206.373594)scale(0.11 -0.11)">
       <use xlink:href="#ArialMT-32"/>
       <use x="55.615234" xlink:href="#ArialMT-35"/>
       <use x="111.230469" xlink:href="#ArialMT-30"/>
       <use x="166.845703" xlink:href="#ArialMT-30"/>
      </g>
     </g>
    </g>
    <g id="text_28">
     <!-- m/z -->
     <g style="fill:#262626;" transform="translate(912.835313 221.149219)scale(0.12 -0.12)">
      <use xlink:href="#ArialMT-6d"/>
      <use x="83.300781" xlink:href="#ArialMT-2f"/>
      <use x="111.083984" xlink:href="#ArialMT-7a"/>
     </g>
    </g>
   </g>
   <g id="matplotlib.axis_6"/>
   <g id="line2d_3">
    <path clip-path="url(#p767f6cdf35)" d="M 813.173981 189 
L 822.186998 189 
L 822.191372 188.700742 
L 822.296327 189 
L 824.023712 189 
L 824.028085 188.186228 
L 824.13304 189 
L 824.2861 189 
L 824.377936 187.606087 
L 824.395428 189 
L 825.598038 189 
L 825.602412 188.711242 
L 825.707367 189 
L 826.205903 189 
L 826.297739 188.637741 
L 826.315231 189 
L 826.468291 189 
L 826.472664 187.319953 
L 826.577619 189 
L 826.643216 189 
L 826.739425 187.745215 
L 826.752544 189 
L 827.430379 189 
L 827.434752 185.847288 
L 827.539707 189 
L 827.605304 189 
L 827.609677 187.834467 
L 827.714633 189 
L 828.134453 189 
L 828.138826 188.692867 
L 828.243781 189 
L 828.654855 189 
L 828.659228 169.739844 
L 828.764183 189 
L 828.82978 189 
L 828.834153 184.836635 
L 828.939108 189 
L 829.009078 189 
L 829.013452 188.64824 
L 829.118407 189 
L 829.616943 189 
L 829.621316 188.650865 
L 829.726271 189 
L 829.791868 189 
L 829.796242 187.818717 
L 829.901197 189 
L 829.966794 189 
L 829.971167 188.545863 
L 830.076122 189 
L 830.321017 189 
L 830.32539 188.028723 
L 830.430345 189 
L 830.495942 189 
L 830.500315 187.411831 
L 830.60527 189 
L 831.283105 189 
L 831.287478 186.26205 
L 831.392433 189 
L 831.45803 189 
L 831.462403 188.356857 
L 831.567358 189 
L 831.812254 189 
L 831.816627 187.894844 
L 831.921582 189 
L 831.978433 189 
L 831.982806 188.708617 
L 832.087761 189 
L 833.469669 189 
L 833.474042 188.317481 
L 833.557132 189 
L 833.561505 156.036967 
L 833.66646 189 
L 833.732057 189 
L 833.73643 181.880803 
L 833.841385 189 
L 834.440504 189 
L 834.444877 188.64299 
L 834.549832 189 
L 834.904055 189 
L 835.00901 187.511584 
L 835.013383 189 
L 835.043995 189 
L 835.135831 131.340286 
L 835.153324 189 
L 835.218921 189 
L 835.223294 184.797259 
L 835.328249 189 
L 1031.826019 189 
L 1031.826019 189 
" style="fill:none;stroke:#ff0000;stroke-linecap:round;stroke-width:0.5;"/>
   </g>
   <g id="patch_13">
    <path d="M 802.241379 189 
L 802.241379 25.92 
" style="fill:none;stroke:#262626;stroke-linecap:square;stroke-linejoin:miter;stroke-width:1.25;"/>
   </g>
   <g id="patch_14">
    <path d="M 1042.758621 189 
L 1042.758621 25.92 
" style="fill:none;stroke:#262626;stroke-linecap:square;stroke-linejoin:miter;stroke-width:1.25;"/>
   </g>
   <g id="patch_15">
    <path d="M 802.241379 189 
L 1042.758621 189 
" style="fill:none;stroke:#262626;stroke-linecap:square;stroke-linejoin:miter;stroke-width:1.25;"/>
   </g>
   <g id="patch_16">
    <path d="M 802.241379 25.92 
L 1042.758621 25.92 
" style="fill:none;stroke:#262626;stroke-linecap:square;stroke-linejoin:miter;stroke-width:1.25;"/>
   </g>
  </g>
  <g id="axes_4">
   <g id="patch_17">
    <path d="M 1090.862069 189 
L 1331.37931 189 
L 1331.37931 25.92 
L 1090.862069 25.92 
z
" style="fill:#ffffff;"/>
   </g>
   <g id="matplotlib.axis_7">
    <g id="xtick_19">
     <g id="text_29">
      <!-- 0 -->
      <g style="fill:#262626;" transform="translate(1098.736155 206.373594)scale(0.11 -0.11)">
       <use xlink:href="#ArialMT-30"/>
      </g>
     </g>
    </g>
    <g id="xtick_20">
     <g id="text_30">
      <!-- 500 -->
      <g style="fill:#262626;" transform="translate(1136.350406 206.373594)scale(0.11 -0.11)">
       <use xlink:href="#ArialMT-35"/>
       <use x="55.615234" xlink:href="#ArialMT-30"/>
       <use x="111.230469" xlink:href="#ArialMT-30"/>
      </g>
     </g>
    </g>
    <g id="xtick_21">
     <g id="text_31">
      <!-- 1000 -->
      <g style="fill:#262626;" transform="translate(1177.023173 206.373594)scale(0.11 -0.11)">
       <use xlink:href="#ArialMT-31"/>
       <use x="55.615234" xlink:href="#ArialMT-30"/>
       <use x="111.230469" xlink:href="#ArialMT-30"/>
       <use x="166.845703" xlink:href="#ArialMT-30"/>
      </g>
     </g>
    </g>
    <g id="xtick_22">
     <g id="text_32">
      <!-- 1500 -->
      <g style="fill:#262626;" transform="translate(1220.754455 206.373594)scale(0.11 -0.11)">
       <use xlink:href="#ArialMT-31"/>
       <use x="55.615234" xlink:href="#ArialMT-35"/>
       <use x="111.230469" xlink:href="#ArialMT-30"/>
       <use x="166.845703" xlink:href="#ArialMT-30"/>
      </g>
     </g>
    </g>
    <g id="xtick_23">
     <g id="text_33">
      <!-- 2000 -->
      <g style="fill:#262626;" transform="translate(1264.485737 206.373594)scale(0.11 -0.11)">
       <use xlink:href="#ArialMT-32"/>
       <use x="55.615234" xlink:href="#ArialMT-30"/>
       <use x="111.230469" xlink:href="#ArialMT-30"/>
       <use x="166.845703" xlink:href="#ArialMT-30"/>
      </g>
     </g>
    </g>
    <g id="xtick_24">
     <g id="text_34">
      <!-- 2500 -->
      <g style="fill:#262626;" transform="translate(1308.217019 206.373594)scale(0.11 -0.11)">
       <use xlink:href="#ArialMT-32"/>
       <use x="55.615234" xlink:href="#ArialMT-35"/>
       <use x="111.230469" xlink:href="#ArialMT-30"/>
       <use x="166.845703" xlink:href="#ArialMT-30"/>
      </g>
     </g>
    </g>
    <g id="text_35">
     <!-- m/z -->
     <g style="fill:#262626;" transform="translate(1201.456002 221.149219)scale(0.12 -0.12)">
      <use xlink:href="#ArialMT-6d"/>
      <use x="83.300781" xlink:href="#ArialMT-2f"/>
      <use x="111.083984" xlink:href="#ArialMT-7a"/>
     </g>
    </g>
   </g>
   <g id="matplotlib.axis_8"/>
   <g id="line2d_4">
    <path clip-path="url(#p37aced9768)" d="M 1101.794671 189 
L 1113.081715 189 
L 1113.086088 188.566819 
L 1113.191043 189 
L 1114.481116 189 
L 1114.485489 188.719706 
L 1114.590444 189 
L 1114.656041 189 
L 1114.660414 188.775765 
L 1114.765369 189 
L 1116.930068 189 
L 1116.934441 188.770669 
L 1117.039396 189 
L 1117.10062 189 
L 1117.104993 188.235562 
L 1117.209948 189 
L 1117.275545 189 
L 1117.284291 188.566819 
L 1117.384873 189 
L 1117.80032 189 
L 1117.804693 188.439413 
L 1117.909648 189 
L 1117.979618 189 
L 1117.983991 188.413931 
L 1118.088947 189 
L 1118.15017 189 
L 1118.154543 185.177812 
L 1118.259499 189 
L 1118.679319 189 
L 1118.683692 184.923 
L 1118.788647 189 
L 1118.849871 189 
L 1118.854244 188.747735 
L 1118.959199 189 
L 1119.379019 189 
L 1119.383393 187.267275 
L 1119.488348 189 
L 1119.549571 189 
L 1119.553945 188.668744 
L 1119.6589 189 
L 1119.72887 189 
L 1119.733243 183.90375 
L 1119.838198 189 
L 1120.249272 189 
L 1120.253645 187.674975 
L 1120.3586 189 
L 1120.42857 189 
L 1120.432943 188.566819 
L 1120.537898 189 
L 1120.599122 189 
L 1120.603495 188.286525 
L 1120.70845 189 
L 1120.77842 189 
L 1120.782794 188.694225 
L 1120.887749 189 
L 1120.948972 189 
L 1120.957719 181.610437 
L 1121.058301 189 
L 1121.123898 189 
L 1121.128271 181.355625 
L 1121.233226 189 
L 1121.814852 189 
L 1121.819225 188.668744 
L 1121.823598 188.694225 
L 1121.827971 25.92 
L 1121.832344 189 
L 1121.932926 189 
L 1122.002896 189 
L 1122.007269 187.16535 
L 1122.112225 189 
L 1122.173448 189 
L 1122.177821 188.133637 
L 1122.282777 189 
L 1122.698224 189 
L 1122.702597 188.747735 
L 1122.807552 189 
L 1123.402297 189 
L 1123.40667 181.355625 
L 1123.511626 189 
L 1123.577222 189 
L 1123.581596 188.337488 
L 1123.686551 189 
L 1124.27255 189 
L 1124.276923 174.985312 
L 1124.381878 189 
L 1124.539311 189 
L 1124.631146 188.159119 
L 1124.648639 189 
L 1125.842503 189 
L 1125.846876 188.780861 
L 1125.851249 189 
L 1125.855622 127.845 
L 1125.960577 189 
L 1126.026174 189 
L 1126.030547 188.801246 
L 1126.135502 189 
L 1128.650051 189 
L 1128.654424 187.98075 
L 1128.759379 189 
L 1134.772431 189 
L 1134.776804 188.757927 
L 1134.881759 189 
L 1320.446708 189 
L 1320.446708 189 
" style="fill:none;stroke:#ff0000;stroke-linecap:round;stroke-width:0.5;"/>
   </g>
   <g id="patch_18">
    <path d="M 1090.862069 189 
L 1090.862069 25.92 
" style="fill:none;stroke:#262626;stroke-linecap:square;stroke-linejoin:miter;stroke-width:1.25;"/>
   </g>
   <g id="patch_19">
    <path d="M 1331.37931 189 
L 1331.37931 25.92 
" style="fill:none;stroke:#262626;stroke-linecap:square;stroke-linejoin:miter;stroke-width:1.25;"/>
   </g>
   <g id="patch_20">
    <path d="M 1090.862069 189 
L 1331.37931 189 
" style="fill:none;stroke:#262626;stroke-linecap:square;stroke-linejoin:miter;stroke-width:1.25;"/>
   </g>
   <g id="patch_21">
    <path d="M 1090.862069 25.92 
L 1331.37931 25.92 
" style="fill:none;stroke:#262626;stroke-linecap:square;stroke-linejoin:miter;stroke-width:1.25;"/>
   </g>
  </g>
  <g id="axes_5">
   <g id="patch_22">
    <path d="M 1379.482759 189 
L 1620 189 
L 1620 25.92 
L 1379.482759 25.92 
z
" style="fill:#ffffff;"/>
   </g>
   <g id="matplotlib.axis_9">
    <g id="xtick_25">
     <g id="text_36">
      <!-- 0 -->
      <g style="fill:#262626;" transform="translate(1387.356845 206.373594)scale(0.11 -0.11)">
       <use xlink:href="#ArialMT-30"/>
      </g>
     </g>
    </g>
    <g id="xtick_26">
     <g id="text_37">
      <!-- 500 -->
      <g style="fill:#262626;" transform="translate(1424.971096 206.373594)scale(0.11 -0.11)">
       <use xlink:href="#ArialMT-35"/>
       <use x="55.615234" xlink:href="#ArialMT-30"/>
       <use x="111.230469" xlink:href="#ArialMT-30"/>
      </g>
     </g>
    </g>
    <g id="xtick_27">
     <g id="text_38">
      <!-- 1000 -->
      <g style="fill:#262626;" transform="translate(1465.643862 206.373594)scale(0.11 -0.11)">
       <use xlink:href="#ArialMT-31"/>
       <use x="55.615234" xlink:href="#ArialMT-30"/>
       <use x="111.230469" xlink:href="#ArialMT-30"/>
       <use x="166.845703" xlink:href="#ArialMT-30"/>
      </g>
     </g>
    </g>
    <g id="xtick_28">
     <g id="text_39">
      <!-- 1500 -->
      <g style="fill:#262626;" transform="translate(1509.375144 206.373594)scale(0.11 -0.11)">
       <use xlink:href="#ArialMT-31"/>
       <use x="55.615234" xlink:href="#ArialMT-35"/>
       <use x="111.230469" xlink:href="#ArialMT-30"/>
       <use x="166.845703" xlink:href="#ArialMT-30"/>
      </g>
     </g>
    </g>
    <g id="xtick_29">
     <g id="text_40">
      <!-- 2000 -->
      <g style="fill:#262626;" transform="translate(1553.106427 206.373594)scale(0.11 -0.11)">
       <use xlink:href="#ArialMT-32"/>
       <use x="55.615234" xlink:href="#ArialMT-30"/>
       <use x="111.230469" xlink:href="#ArialMT-30"/>
       <use x="166.845703" xlink:href="#ArialMT-30"/>
      </g>
     </g>
    </g>
    <g id="xtick_30">
     <g id="text_41">
      <!-- 2500 -->
      <g style="fill:#262626;" transform="translate(1596.837709 206.373594)scale(0.11 -0.11)">
       <use xlink:href="#ArialMT-32"/>
       <use x="55.615234" xlink:href="#ArialMT-35"/>
       <use x="111.230469" xlink:href="#ArialMT-30"/>
       <use x="166.845703" xlink:href="#ArialMT-30"/>
      </g>
     </g>
    </g>
    <g id="text_42">
     <!-- m/z -->
     <g style="fill:#262626;" transform="translate(1490.076692 221.149219)scale(0.12 -0.12)">
      <use xlink:href="#ArialMT-6d"/>
      <use x="83.300781" xlink:href="#ArialMT-2f"/>
      <use x="111.083984" xlink:href="#ArialMT-7a"/>
     </g>
    </g>
   </g>
   <g id="matplotlib.axis_10"/>
   <g id="line2d_5">
    <path clip-path="url(#p7d05a96117)" d="M 1390.415361 189 
L 1403.976431 189 
L 1403.980804 188.405993 
L 1404.085759 189 
L 1405.021609 189 
L 1405.025982 188.610043 
L 1405.130937 189 
L 1405.200907 189 
L 1405.28837 188.512324 
L 1405.310235 189 
L 1405.371459 189 
L 1405.375832 188.552469 
L 1405.480787 189 
L 1406.333547 189 
L 1406.425383 187.491937 
L 1406.442875 189 
L 1407.295635 189 
L 1407.300009 188.762583 
L 1407.404964 189 
L 1407.645486 189 
L 1407.737321 187.500243 
L 1407.754814 189 
L 1407.820411 189 
L 1407.824784 186.752805 
L 1407.929739 189 
L 1407.999709 189 
L 1408.004082 188.718711 
L 1408.109037 189 
L 1408.782499 189 
L 1408.874335 183.622936 
L 1408.891827 189 
L 1408.953051 189 
L 1408.957424 188.263363 
L 1409.062379 189 
L 1410.011348 189 
L 1410.015721 188.666405 
L 1410.120676 189 
L 1410.1819 189 
L 1410.273736 181.392597 
L 1410.291228 189 
L 1410.356825 189 
L 1410.361198 186.180696 
L 1410.466153 189 
L 1411.231451 189 
L 1411.323286 182.935151 
L 1411.340779 189 
L 1411.406376 189 
L 1411.410749 187.835635 
L 1411.515704 189 
L 1412.543389 189 
L 1412.635225 188.184512 
L 1412.652717 189 
L 1412.718314 189 
L 1412.81015 95.073332 
L 1412.827643 188.792389 
L 1412.89324 189 
L 1412.897613 171.560266 
L 1413.002568 189 
L 1413.850955 189 
L 1413.951537 188.533583 
L 1413.960283 189 
L 1414.034626 189 
L 1414.038999 188.013537 
L 1414.143954 189 
L 1415.167266 189 
L 1415.259102 186.911868 
L 1415.276594 189 
L 1415.342191 189 
L 1415.346564 179.798661 
L 1415.45152 189 
L 1416.57104 189 
L 1416.575413 25.92 
L 1416.680369 189 
L 1416.745965 189 
L 1416.750339 188.264214 
L 1416.855294 189 
L 1609.067398 189 
L 1609.067398 189 
" style="fill:none;stroke:#ff0000;stroke-linecap:round;stroke-width:0.5;"/>
   </g>
   <g id="patch_23">
    <path d="M 1379.482759 189 
L 1379.482759 25.92 
" style="fill:none;stroke:#262626;stroke-linecap:square;stroke-linejoin:miter;stroke-width:1.25;"/>
   </g>
   <g id="patch_24">
    <path d="M 1620 189 
L 1620 25.92 
" style="fill:none;stroke:#262626;stroke-linecap:square;stroke-linejoin:miter;stroke-width:1.25;"/>
   </g>
   <g id="patch_25">
    <path d="M 1379.482759 189 
L 1620 189 
" style="fill:none;stroke:#262626;stroke-linecap:square;stroke-linejoin:miter;stroke-width:1.25;"/>
   </g>
   <g id="patch_26">
    <path d="M 1379.482759 25.92 
L 1620 25.92 
" style="fill:none;stroke:#262626;stroke-linecap:square;stroke-linejoin:miter;stroke-width:1.25;"/>
   </g>
  </g>
 </g>
 <defs>
  <clipPath id="p5bfa3c2a1c">
   <rect height="163.08" width="240.517241" x="225" y="25.92"/>
  </clipPath>
  <clipPath id="p35fd592b3c">
   <rect height="163.08" width="240.517241" x="513.62069" y="25.92"/>
  </clipPath>
  <clipPath id="p767f6cdf35">
   <rect height="163.08" width="240.517241" x="802.241379" y="25.92"/>
  </clipPath>
  <clipPath id="p37aced9768">
   <rect height="163.08" width="240.517241" x="1090.862069" y="25.92"/>
  </clipPath>
  <clipPath id="p7d05a96117">
   <rect height="163.08" width="240.517241" x="1379.482759" y="25.92"/>
  </clipPath>
 </defs>
</svg>
